SourceSerif-Italic_c1.ufo
<glyph name="exclam" format="2">
	<unicode hex="0021"/>
	<advance width="300"/>
	<outline>
		<contour>
			<point x="128" y="196" type="line"/>
			<point x="180" y="196" type="line"/>
			<point x="272" y="532"/>
			<point x="292" y="594"/>
			<point x="292" y="634" type="curve" smooth="yes"/>
			<point x="292" y="664"/>
			<point x="274" y="682"/>
			<point x="242" y="682" type="curve" smooth="yes"/>
			<point x="210" y="682"/>
			<point x="192" y="662"/>
			<point x="184" y="622" type="curve" smooth="yes"/>
			<point x="176" y="582"/>
			<point x="164" y="500"/>
			<point x="148" y="364" type="curve" smooth="yes"/>
		</contour>
		<contour>
			<point x="64" y="46" type="curve" smooth="yes"/>
			<point x="64" y="14"/>
			<point x="86" y="-12"/>
			<point x="126" y="-12" type="curve" smooth="yes"/>
			<point x="174" y="-12"/>
			<point x="204" y="26"/>
			<point x="204" y="70" type="curve" smooth="yes"/>
			<point x="204" y="102"/>
			<point x="182" y="128"/>
			<point x="142" y="128" type="curve" smooth="yes"/>
			<point x="94" y="128"/>
			<point x="64" y="90"/>
		</contour>
	</outline>
</glyph>
<glyph name="ampersand" format="2">
	<unicode hex="0026"/>
	<advance width="732"/>
	<outline>
		<contour>
			<point x="312" y="-16" type="curve" smooth="yes"/>
			<point x="456" y="-16"/>
			<point x="548" y="57"/>
			<point x="548" y="160" type="curve" smooth="yes"/>
			<point x="548" y="224"/>
			<point x="500" y="264"/>
			<point x="444" y="272" type="curve"/>
			<point x="444" y="288" type="line"/>
			<point x="580" y="296"/>
			<point x="668" y="344"/>
			<point x="720" y="460" type="curve"/>
			<point x="656" y="492" type="line"/>
			<point x="612" y="376"/>
			<point x="556" y="320"/>
			<point x="416" y="312" type="curve"/>
			<point x="408" y="260" type="line"/>
			<point x="468" y="244"/>
			<point x="492" y="208"/>
			<point x="492" y="160" type="curve" smooth="yes"/>
			<point x="492" y="96"/>
			<point x="432" y="48"/>
			<point x="328" y="48" type="curve" smooth="yes"/>
			<point x="220" y="48"/>
			<point x="148" y="108"/>
			<point x="148" y="216" type="curve" smooth="yes"/>
			<point x="148" y="300"/>
			<point x="188" y="388"/>
			<point x="304" y="408" type="curve"/>
			<point x="284" y="424"/>
			<point x="268" y="456"/>
			<point x="268" y="504" type="curve" smooth="yes"/>
			<point x="268" y="580"/>
			<point x="316" y="644"/>
			<point x="418" y="644" type="curve" smooth="yes"/>
			<point x="448" y="644"/>
			<point x="472" y="640"/>
			<point x="488" y="636" type="curve"/>
			<point x="440" y="676" type="line"/>
			<point x="460" y="604" type="line" smooth="yes"/>
			<point x="468" y="576"/>
			<point x="484" y="560"/>
			<point x="512" y="560" type="curve" smooth="yes"/>
			<point x="536" y="560"/>
			<point x="554" y="578"/>
			<point x="560" y="600" type="curve"/>
			<point x="544" y="648"/>
			<point x="488" y="688"/>
			<point x="402" y="688" type="curve" smooth="yes"/>
			<point x="276" y="688"/>
			<point x="196" y="612"/>
			<point x="196" y="512" type="curve" smooth="yes"/>
			<point x="196" y="424"/>
			<point x="268" y="344"/>
			<point x="344" y="344" type="curve" smooth="yes"/>
			<point x="372" y="344"/>
			<point x="388" y="360"/>
			<point x="388" y="380" type="curve" smooth="yes"/>
			<point x="388" y="408"/>
			<point x="364" y="424"/>
			<point x="296" y="424" type="curve" smooth="yes"/>
			<point x="148" y="424"/>
			<point x="60" y="324"/>
			<point x="60" y="200" type="curve" smooth="yes"/>
			<point x="60" y="60"/>
			<point x="164" y="-16"/>
		</contour>
	</outline>
</glyph>
<glyph name="quotesingle" format="2">
	<unicode hex="0027"/>
	<advance width="256"/>
	<outline>
		<contour>
			<point x="208" y="744" type="curve" smooth="yes"/>
			<point x="180" y="744"/>
			<point x="164" y="728"/>
			<point x="156" y="704" type="curve" smooth="yes"/>
			<point x="148" y="680"/>
			<point x="144" y="636"/>
			<point x="140" y="568" type="curve" smooth="yes"/>
			<point x="132" y="432" type="line"/>
			<point x="180" y="432" type="line"/>
			<point x="220" y="552"/>
			<point x="256" y="660"/>
			<point x="256" y="700" type="curve" smooth="yes"/>
			<point x="256" y="728"/>
			<point x="236" y="744"/>
		</contour>
	</outline>
</glyph>
<glyph name="asterisk" format="2">
	<unicode hex="002A"/>
	<advance width="480"/>
	<outline>
		<contour>
			<point x="268" y="752" type="curve" smooth="yes"/>
			<point x="244" y="752"/>
			<point x="230" y="734"/>
			<point x="230" y="710" type="curve" smooth="yes"/>
			<point x="230" y="684"/>
			<point x="248" y="640"/>
			<point x="294" y="550" type="curve"/>
			<point x="192" y="596"/>
			<point x="164" y="604"/>
			<point x="138" y="604" type="curve" smooth="yes"/>
			<point x="112" y="604"/>
			<point x="96" y="590"/>
			<point x="96" y="568" type="curve" smooth="yes"/>
			<point x="96" y="532"/>
			<point x="136" y="516"/>
			<point x="294" y="538" type="curve"/>
			<point x="204" y="440"/>
			<point x="184" y="412"/>
			<point x="184" y="386" type="curve" smooth="yes"/>
			<point x="184" y="366"/>
			<point x="200" y="352"/>
			<point x="220" y="352" type="curve" smooth="yes"/>
			<point x="256" y="352"/>
			<point x="272" y="388"/>
			<point x="302" y="534" type="curve"/>
			<point x="383" y="405"/>
			<point x="402" y="383"/>
			<point x="435" y="389" type="curve" smooth="yes"/>
			<point x="454" y="392"/>
			<point x="468" y="410"/>
			<point x="464" y="430" type="curve" smooth="yes"/>
			<point x="458" y="459"/>
			<point x="429" y="479"/>
			<point x="308" y="542" type="curve"/>
			<point x="452" y="576"/>
			<point x="488" y="592"/>
			<point x="488" y="628" type="curve" smooth="yes"/>
			<point x="488" y="648"/>
			<point x="474" y="660"/>
			<point x="452" y="660" type="curve" smooth="yes"/>
			<point x="412" y="660"/>
			<point x="380" y="624"/>
			<point x="304" y="550" type="curve"/>
			<point x="314" y="672"/>
			<point x="312" y="704"/>
			<point x="308" y="720" type="curve" smooth="yes"/>
			<point x="304" y="736"/>
			<point x="292" y="752"/>
		</contour>
	</outline>
</glyph>
<glyph name="comma" format="2">
	<unicode hex="002C"/>
	<advance width="300"/>
	<outline>
		<contour>
			<point x="9" y="-184" type="line"/>
			<point x="129" y="-128"/>
			<point x="186" y="-51"/>
			<point x="186" y="53" type="curve" smooth="yes"/>
			<point x="186" y="85"/>
			<point x="178" y="104"/>
			<point x="170" y="118" type="curve"/>
			<point x="160" y="122"/>
			<point x="144" y="126"/>
			<point x="124" y="126" type="curve" smooth="yes"/>
			<point x="76" y="126"/>
			<point x="50" y="90"/>
			<point x="50" y="54" type="curve" smooth="yes"/>
			<point x="50" y="16"/>
			<point x="75" y="-10"/>
			<point x="114" y="-10" type="curve"/>
			<point x="132" y="-25" type="line"/>
			<point x="132" y="-4" type="line"/>
			<point x="105" y="-74"/>
			<point x="79" y="-101"/>
			<point x="-9" y="-145" type="curve"/>
		</contour>
	</outline>
</glyph>
<glyph name="slash" format="2">
	<unicode hex="002F"/>
	<advance width="348"/>
	<outline>
		<contour>
			<point x="-80" y="-160" type="line"/>
			<point x="-16" y="-160" type="line"/>
			<point x="428" y="710" type="line"/>
			<point x="364" y="710" type="line"/>
		</contour>
	</outline>
</glyph>
<glyph name="one" format="2">
	<unicode hex="0031"/>
	<advance width="562"/>
	<outline>
		<contour>
			<point x="44" y="0" type="line"/>
			<point x="456" y="0" type="line"/>
			<point x="466" y="60" type="line"/>
			<point x="264" y="60" type="line"/>
			<point x="236" y="60" type="line"/>
			<point x="54" y="60" type="line"/>
		</contour>
		<contour>
			<point x="202" y="0" type="line"/>
			<point x="298" y="0" type="line"/>
			<point x="313" y="72"/>
			<point x="327" y="144"/>
			<point x="342" y="216" type="curve" smooth="yes"/>
			<point x="400" y="500" type="line"/>
			<point x="430" y="648" type="line"/>
			<point x="402" y="648" type="line"/>
			<point x="180" y="592" type="line"/>
			<point x="168" y="536" type="line"/>
			<point x="362" y="560" type="line"/>
			<point x="326" y="608" type="line"/>
		</contour>
	</outline>
</glyph>
<glyph name="question" format="2">
	<unicode hex="003F"/>
	<advance width="474"/>
	<outline>
		<contour>
			<point x="140" y="188" type="curve"/>
			<point x="188" y="188" type="line"/>
			<point x="196" y="260"/>
			<point x="228" y="292"/>
			<point x="284" y="324" type="curve" smooth="yes"/>
			<point x="303" y="335"/>
			<point x="321" y="345"/>
			<point x="340" y="356" type="curve" smooth="yes"/>
			<point x="432" y="408"/>
			<point x="490" y="466"/>
			<point x="490" y="550" type="curve" smooth="yes"/>
			<point x="490" y="634"/>
			<point x="416" y="686"/>
			<point x="316" y="686" type="curve" smooth="yes"/>
			<point x="212" y="686"/>
			<point x="156" y="626"/>
			<point x="140" y="570" type="curve"/>
			<point x="146" y="548"/>
			<point x="162" y="530"/>
			<point x="188" y="530" type="curve" smooth="yes"/>
			<point x="214" y="530"/>
			<point x="232" y="542"/>
			<point x="244" y="578" type="curve" smooth="yes"/>
			<point x="276" y="670" type="line"/>
			<point x="228" y="634" type="line"/>
			<point x="244" y="638"/>
			<point x="268" y="642"/>
			<point x="300" y="642" type="curve" smooth="yes"/>
			<point x="376" y="642"/>
			<point x="404" y="606"/>
			<point x="404" y="554" type="curve" smooth="yes"/>
			<point x="404" y="502"/>
			<point x="388" y="468"/>
			<point x="304" y="420" type="curve" smooth="yes"/>
			<point x="285" y="409"/>
			<point x="267" y="399"/>
			<point x="248" y="388" type="curve" smooth="yes"/>
			<point x="172" y="344"/>
			<point x="148" y="292"/>
		</contour>
		<contour>
			<point x="84" y="46" type="curve" smooth="yes"/>
			<point x="84" y="14"/>
			<point x="106" y="-12"/>
			<point x="146" y="-12" type="curve" smooth="yes"/>
			<point x="194" y="-12"/>
			<point x="224" y="26"/>
			<point x="224" y="70" type="curve" smooth="yes"/>
			<point x="224" y="102"/>
			<point x="202" y="128"/>
			<point x="162" y="128" type="curve" smooth="yes"/>
			<point x="114" y="128"/>
			<point x="84" y="90"/>
		</contour>
	</outline>
</glyph>
<glyph name="at" format="2">
	<unicode hex="0040"/>
	<advance width="908"/>
	<outline>
		<contour>
			<point x="365" y="44" type="curve" smooth="yes"/>
			<point x="421" y="44"/>
			<point x="457" y="76"/>
			<point x="485" y="132" type="curve"/>
			<point x="541" y="132" type="line"/>
			<point x="541" y="212" type="line"/>
			<point x="473" y="136"/>
			<point x="449" y="112"/>
			<point x="401" y="112" type="curve" smooth="yes"/>
			<point x="361" y="112"/>
			<point x="337" y="136"/>
			<point x="337" y="188" type="curve" smooth="yes"/>
			<point x="337" y="320"/>
			<point x="425" y="428"/>
			<point x="517" y="428" type="curve" smooth="yes"/>
			<point x="565" y="428"/>
			<point x="585" y="412"/>
			<point x="609" y="396" type="curve"/>
			<point x="609" y="428" type="line"/>
			<point x="593" y="456"/>
			<point x="573" y="488"/>
			<point x="509" y="488" type="curve" smooth="yes"/>
			<point x="409" y="488"/>
			<point x="257" y="336"/>
			<point x="257" y="172" type="curve" smooth="yes"/>
			<point x="257" y="80"/>
			<point x="305" y="44"/>
		</contour>
		<contour>
			<point x="613" y="44" type="curve" smooth="yes"/>
			<point x="733" y="44"/>
			<point x="861" y="160"/>
			<point x="861" y="360" type="curve" smooth="yes"/>
			<point x="861" y="532"/>
			<point x="753" y="660"/>
			<point x="541" y="660" type="curve" smooth="yes"/>
			<point x="285" y="660"/>
			<point x="73" y="444"/>
			<point x="73" y="164" type="curve" smooth="yes"/>
			<point x="73" y="-40"/>
			<point x="213" y="-156"/>
			<point x="413" y="-156" type="curve" smooth="yes"/>
			<point x="493" y="-156"/>
			<point x="565" y="-136"/>
			<point x="605" y="-116" type="curve"/>
			<point x="593" y="-76" type="line"/>
			<point x="557" y="-92"/>
			<point x="493" y="-108"/>
			<point x="421" y="-108" type="curve" smooth="yes"/>
			<point x="245" y="-108"/>
			<point x="137" y="-8"/>
			<point x="137" y="172" type="curve" smooth="yes"/>
			<point x="137" y="412"/>
			<point x="325" y="612"/>
			<point x="537" y="612" type="curve" smooth="yes"/>
			<point x="705" y="612"/>
			<point x="801" y="508"/>
			<point x="801" y="356" type="curve" smooth="yes"/>
			<point x="801" y="192"/>
			<point x="701" y="100"/>
			<point x="637" y="100" type="curve" smooth="yes"/>
			<point x="589" y="100"/>
			<point x="579" y="126"/>
			<point x="593" y="188" type="curve" smooth="yes"/>
			<point x="661" y="496" type="line"/>
			<point x="621" y="496" type="line"/>
			<point x="569" y="444" type="line"/>
			<point x="513" y="188" type="line" smooth="yes"/>
			<point x="491" y="86"/>
			<point x="541" y="44"/>
		</contour>
	</outline>
</glyph>
<glyph name="A" format="2">
	<unicode hex="0041"/>
	<advance width="724"/>
	<outline>
		<contour>
			<point x="4" y="0" type="line"/>
			<point x="234" y="0" type="line"/>
			<point x="244" y="60" type="line"/>
			<point x="136" y="60" type="line"/>
			<point x="116" y="60" type="line"/>
			<point x="14" y="60" type="line"/>
		</contour>
		<contour>
			<point x="56" y="0" type="line"/>
			<point x="128" y="0" type="line"/>
			<point x="428" y="604" type="line"/>
			<point x="440" y="604" type="line"/>
			<point x="500" y="0" type="line"/>
			<point x="596" y="0" type="line"/>
			<point x="516" y="672" type="line"/>
			<point x="404" y="672" type="line"/>
		</contour>
		<contour>
			<point x="236" y="240" type="line"/>
			<point x="508" y="240" type="line"/>
			<point x="508" y="292" type="line"/>
			<point x="236" y="292" type="line"/>
		</contour>
		<contour>
			<point x="392" y="0" type="line"/>
			<point x="662" y="0" type="line"/>
			<point x="672" y="60" type="line"/>
			<point x="572" y="60" type="line"/>
			<point x="512" y="60" type="line"/>
			<point x="402" y="60" type="line"/>
		</contour>
	</outline>
	<anchor name="aboveUC" x="432" y="691"/>
	<anchor name="belowLC" x="282" y="-22"/>
	<anchor name="ogonek" x="526" y="0"/>
	<anchor name="aboveUC" x="464" y="691"/>
	<anchor name="belowLC" x="314" y="-22"/>
	<anchor name="ogonek" x="558" y="0"/>
</glyph>
<glyph name="B" format="2">
	<unicode hex="0042"/>
	<advance width="648"/>
	<outline>
		<contour>
			<point x="16" y="0" type="line"/>
			<point x="148" y="0" type="line"/>
			<point x="148" y="60" type="line"/>
			<point x="132" y="60" type="line"/>
			<point x="26" y="60" type="line"/>
		</contour>
		<contour>
			<point x="104" y="0" type="line"/>
			<point x="200" y="0" type="line"/>
			<point x="256" y="312" type="line"/>
			<point x="320" y="672" type="line"/>
			<point x="224" y="672" type="line"/>
			<point x="168" y="360" type="line"/>
		</contour>
		<contour>
			<point x="120" y="612" type="line"/>
			<point x="232" y="612" type="line"/>
			<point x="248" y="612" type="line"/>
			<point x="248" y="672" type="line"/>
			<point x="130" y="672" type="line"/>
		</contour>
		<contour>
			<point x="164" y="0" type="line"/>
			<point x="300" y="0" type="line" smooth="yes"/>
			<point x="476" y="0"/>
			<point x="584" y="84"/>
			<point x="584" y="204" type="curve" smooth="yes"/>
			<point x="584" y="292"/>
			<point x="508" y="340"/>
			<point x="368" y="340" type="curve"/>
			<point x="368" y="360" type="line"/>
			<point x="492" y="360"/>
			<point x="596" y="416"/>
			<point x="596" y="524" type="curve" smooth="yes"/>
			<point x="596" y="620"/>
			<point x="516" y="672"/>
			<point x="384" y="672" type="curve" smooth="yes"/>
			<point x="280" y="672" type="line"/>
			<point x="280" y="612" type="line"/>
			<point x="376" y="612" type="line" smooth="yes"/>
			<point x="460" y="612"/>
			<point x="500" y="572"/>
			<point x="500" y="508" type="curve" smooth="yes"/>
			<point x="500" y="436"/>
			<point x="452" y="378"/>
			<point x="336" y="378" type="curve" smooth="yes"/>
			<point x="216" y="378" type="line"/>
			<point x="216" y="322" type="line"/>
			<point x="336" y="322" type="line" smooth="yes"/>
			<point x="444" y="322"/>
			<point x="484" y="276"/>
			<point x="484" y="204" type="curve" smooth="yes"/>
			<point x="484" y="124"/>
			<point x="428" y="60"/>
			<point x="300" y="60" type="curve" smooth="yes"/>
			<point x="164" y="60" type="line"/>
		</contour>
	</outline>
	<anchor name="aboveUC" x="376" y="691"/>
	<anchor name="belowLC" x="289" y="-22"/>
</glyph>
<glyph name="C" format="2">
	<unicode hex="0043"/>
	<advance width="644"/>
	<outline>
		<contour>
			<point x="360" y="-16" type="curve" smooth="yes"/>
			<point x="448" y="-16"/>
			<point x="512" y="8"/>
			<point x="544" y="24" type="curve"/>
			<point x="564" y="180" type="line"/>
			<point x="502" y="180" type="line"/>
			<point x="456" y="28" type="line"/>
			<point x="508" y="68" type="line"/>
			<point x="472" y="52"/>
			<point x="440" y="44"/>
			<point x="392" y="44" type="curve" smooth="yes"/>
			<point x="260" y="44"/>
			<point x="170" y="124"/>
			<point x="170" y="284" type="curve" smooth="yes"/>
			<point x="170" y="476"/>
			<point x="284" y="626"/>
			<point x="448" y="626" type="curve" smooth="yes"/>
			<point x="512" y="626"/>
			<point x="560" y="610"/>
			<point x="584" y="594" type="curve"/>
			<point x="544" y="634" type="line"/>
			<point x="544" y="496" type="line"/>
			<point x="606" y="496" type="line"/>
			<point x="632" y="646" type="line"/>
			<point x="616" y="654"/>
			<point x="544" y="686"/>
			<point x="444" y="686" type="curve" smooth="yes"/>
			<point x="228" y="686"/>
			<point x="68" y="508"/>
			<point x="68" y="276" type="curve" smooth="yes"/>
			<point x="68" y="92"/>
			<point x="180" y="-16"/>
		</contour>
	</outline>
	<anchor name="aboveUC" x="443" y="691"/>
	<anchor name="belowLC" x="323" y="-22"/>
	<anchor name="baseLC" x="346" y="0"/>
</glyph>
<glyph name="D" format="2">
	<unicode hex="0044"/>
	<advance width="744"/>
	<outline>
		<contour>
			<point x="16" y="0" type="line"/>
			<point x="148" y="0" type="line"/>
			<point x="148" y="60" type="line"/>
			<point x="132" y="60" type="line"/>
			<point x="26" y="60" type="line"/>
		</contour>
		<contour>
			<point x="104" y="0" type="line"/>
			<point x="200" y="0" type="line"/>
			<point x="256" y="312" type="line"/>
			<point x="320" y="672" type="line"/>
			<point x="224" y="672" type="line"/>
			<point x="168" y="360" type="line"/>
		</contour>
		<contour>
			<point x="120" y="612" type="line"/>
			<point x="232" y="612" type="line"/>
			<point x="248" y="612" type="line"/>
			<point x="248" y="672" type="line"/>
			<point x="130" y="672" type="line"/>
		</contour>
		<contour>
			<point x="164" y="0" type="line"/>
			<point x="300" y="0" type="line" smooth="yes"/>
			<point x="564" y="0"/>
			<point x="700" y="200"/>
			<point x="700" y="392" type="curve" smooth="yes"/>
			<point x="700" y="580"/>
			<point x="584" y="672"/>
			<point x="396" y="672" type="curve" smooth="yes"/>
			<point x="264" y="672" type="line"/>
			<point x="264" y="612" type="line"/>
			<point x="380" y="612" type="line" smooth="yes"/>
			<point x="528" y="612"/>
			<point x="598" y="540"/>
			<point x="598" y="392" type="curve" smooth="yes"/>
			<point x="598" y="232"/>
			<point x="500" y="60"/>
			<point x="300" y="60" type="curve" smooth="yes"/>
			<point x="164" y="60" type="line"/>
		</contour>
	</outline>
	<anchor name="aboveUC" x="409" y="691"/>
	<anchor name="belowLC" x="301" y="-22"/>
</glyph>
<glyph name="E" format="2">
	<unicode hex="0045"/>
	<advance width="644"/>
	<outline>
		<contour>
			<point x="16" y="0" type="line"/>
			<point x="148" y="0" type="line"/>
			<point x="148" y="60" type="line"/>
			<point x="132" y="60" type="line"/>
			<point x="26" y="60" type="line"/>
		</contour>
		<contour>
			<point x="104" y="0" type="line"/>
			<point x="200" y="0" type="line"/>
			<point x="256" y="312" type="line"/>
			<point x="320" y="672" type="line"/>
			<point x="224" y="672" type="line"/>
			<point x="168" y="360" type="line"/>
		</contour>
		<contour>
			<point x="120" y="612" type="line"/>
			<point x="232" y="612" type="line"/>
			<point x="248" y="612" type="line"/>
			<point x="248" y="672" type="line"/>
			<point x="130" y="672" type="line"/>
		</contour>
		<contour>
			<point x="176" y="0" type="line"/>
			<point x="532" y="0" type="line"/>
			<point x="572" y="188" type="line"/>
			<point x="512" y="188" type="line"/>
			<point x="436" y="16" type="line"/>
			<point x="508" y="60" type="line"/>
			<point x="176" y="60" type="line"/>
		</contour>
		<contour>
			<point x="216" y="314" type="line"/>
			<point x="440" y="314" type="line"/>
			<point x="440" y="370" type="line"/>
			<point x="216" y="370" type="line"/>
		</contour>
		<contour>
			<point x="276" y="612" type="line"/>
			<point x="560" y="612" type="line"/>
			<point x="528" y="636" type="line"/>
			<point x="528" y="492" type="line"/>
			<point x="592" y="492" type="line"/>
			<point x="620" y="672" type="line"/>
			<point x="276" y="672" type="line"/>
		</contour>
		<contour>
			<point x="388" y="224" type="line"/>
			<point x="444" y="224" type="line"/>
			<point x="486" y="460" type="line"/>
			<point x="430" y="460" type="line"/>
			<point x="392" y="354" type="line"/>
			<point x="388" y="330" type="line"/>
		</contour>
	</outline>
	<anchor name="aboveUC" x="397" y="691"/>
	<anchor name="belowLC" x="308" y="-22"/>
	<anchor name="ogonek" x="425" y="0"/>
	<anchor name="aboveUC" x="401" y="691"/>
	<anchor name="belowLC" x="312" y="-22"/>
	<anchor name="ogonek" x="429" y="0"/>
</glyph>
<glyph name="F" format="2">
	<unicode hex="0046"/>
	<advance width="624"/>
	<outline>
		<contour>
			<point x="16" y="0" type="line"/>
			<point x="314" y="0" type="line"/>
			<point x="324" y="60" type="line"/>
			<point x="176" y="60" type="line"/>
			<point x="148" y="60" type="line"/>
			<point x="26" y="60" type="line"/>
		</contour>
		<contour>
			<point x="104" y="0" type="line"/>
			<point x="200" y="0" type="line"/>
			<point x="256" y="312" type="line"/>
			<point x="320" y="672" type="line"/>
			<point x="224" y="672" type="line"/>
			<point x="168" y="360" type="line"/>
		</contour>
		<contour>
			<point x="120" y="612" type="line"/>
			<point x="232" y="612" type="line"/>
			<point x="248" y="612" type="line"/>
			<point x="248" y="672" type="line"/>
			<point x="130" y="672" type="line"/>
		</contour>
		<contour>
			<point x="216" y="310" type="line"/>
			<point x="440" y="310" type="line"/>
			<point x="440" y="366" type="line"/>
			<point x="216" y="366" type="line"/>
		</contour>
		<contour>
			<point x="276" y="612" type="line"/>
			<point x="560" y="612" type="line"/>
			<point x="528" y="636" type="line"/>
			<point x="528" y="492" type="line"/>
			<point x="592" y="492" type="line"/>
			<point x="620" y="672" type="line"/>
			<point x="276" y="672" type="line"/>
		</contour>
		<contour>
			<point x="388" y="220" type="line"/>
			<point x="444" y="220" type="line"/>
			<point x="486" y="456" type="line"/>
			<point x="430" y="456" type="line"/>
			<point x="392" y="350" type="line"/>
			<point x="388" y="326" type="line"/>
		</contour>
	</outline>
	<anchor name="aboveUC" x="397" y="691"/>
	<anchor name="belowLC" x="151" y="-22"/>
</glyph>
<glyph name="G" format="2">
	<unicode hex="0047"/>
	<advance width="683"/>
	<outline>
		<contour>
			<point x="67" y="276" type="curve" smooth="yes"/>
			<point x="67" y="92"/>
			<point x="187" y="-16"/>
			<point x="363" y="-16" type="curve" smooth="yes"/>
			<point x="455" y="-16"/>
			<point x="519" y="8"/>
			<point x="555" y="28" type="curve"/>
			<point x="607" y="320" type="line"/>
			<point x="519" y="320" type="line"/>
			<point x="506" y="245"/>
			<point x="492" y="171"/>
			<point x="479" y="96" type="curve" smooth="yes"/>
			<point x="467" y="28" type="line"/>
			<point x="527" y="68" type="line"/>
			<point x="479" y="52"/>
			<point x="447" y="44"/>
			<point x="395" y="44" type="curve" smooth="yes"/>
			<point x="256" y="44"/>
			<point x="166" y="119"/>
			<point x="166" y="281" type="curve" smooth="yes"/>
			<point x="166" y="475"/>
			<point x="282" y="626"/>
			<point x="458" y="626" type="curve" smooth="yes"/>
			<point x="529" y="626"/>
			<point x="579" y="610"/>
			<point x="603" y="594" type="curve"/>
			<point x="555" y="634" type="line"/>
			<point x="559" y="496" type="line"/>
			<point x="621" y="496" type="line"/>
			<point x="643" y="646" type="line"/>
			<point x="615" y="662"/>
			<point x="545" y="686"/>
			<point x="454" y="686" type="curve" smooth="yes"/>
			<point x="228" y="686"/>
			<point x="67" y="508"/>
		</contour>
		<contour>
			<point x="407" y="260" type="line"/>
			<point x="527" y="260" type="line"/>
			<point x="579" y="260" type="line"/>
			<point x="669" y="260" type="line"/>
			<point x="679" y="320" type="line"/>
			<point x="417" y="320" type="line"/>
		</contour>
	</outline>
	<anchor name="aboveUC" x="451" y="690"/>
	<anchor name="belowLC" x="355" y="-20"/>
</glyph>
<glyph name="H" format="2">
	<unicode hex="0048"/>
	<advance width="780"/>
	<outline>
		<contour>
			<point x="16" y="0" type="line"/>
			<point x="294" y="0" type="line"/>
			<point x="304" y="60" type="line"/>
			<point x="176" y="60" type="line"/>
			<point x="148" y="60" type="line"/>
			<point x="26" y="60" type="line"/>
		</contour>
		<contour>
			<point x="104" y="0" type="line"/>
			<point x="200" y="0" type="line"/>
			<point x="256" y="312" type="line"/>
			<point x="320" y="672" type="line"/>
			<point x="224" y="672" type="line"/>
			<point x="168" y="360" type="line"/>
		</contour>
		<contour>
			<point x="120" y="612" type="line"/>
			<point x="248" y="612" type="line"/>
			<point x="276" y="612" type="line"/>
			<point x="398" y="612" type="line"/>
			<point x="408" y="672" type="line"/>
			<point x="130" y="672" type="line"/>
		</contour>
		<contour>
			<point x="208" y="316" type="line"/>
			<point x="624" y="316" type="line"/>
			<point x="624" y="372" type="line"/>
			<point x="208" y="372" type="line"/>
		</contour>
		<contour>
			<point x="424" y="0" type="line"/>
			<point x="702" y="0" type="line"/>
			<point x="712" y="60" type="line"/>
			<point x="584" y="60" type="line"/>
			<point x="556" y="60" type="line"/>
			<point x="434" y="60" type="line"/>
		</contour>
		<contour>
			<point x="512" y="0" type="line"/>
			<point x="608" y="0" type="line"/>
			<point x="664" y="312" type="line"/>
			<point x="728" y="672" type="line"/>
			<point x="632" y="672" type="line"/>
			<point x="576" y="360" type="line"/>
		</contour>
		<contour>
			<point x="528" y="612" type="line"/>
			<point x="656" y="612" type="line"/>
			<point x="684" y="612" type="line"/>
			<point x="806" y="612" type="line"/>
			<point x="816" y="672" type="line"/>
			<point x="538" y="672" type="line"/>
		</contour>
	</outline>
	<anchor name="aboveUC" x="464" y="691"/>
	<anchor name="belowLC" x="350" y="-22"/>
	<anchor name="aboveUC" x="468" y="691"/>
	<anchor name="belowLC" x="354" y="-22"/>
	<note>
		skew 10 scale 120
	</note>
</glyph>
<glyph name="I" format="2">
	<unicode hex="0049"/>
	<advance width="372"/>
	<outline>
		<contour>
			<point x="16" y="0" type="line"/>
			<point x="294" y="0" type="line"/>
			<point x="304" y="60" type="line"/>
			<point x="176" y="60" type="line"/>
			<point x="148" y="60" type="line"/>
			<point x="26" y="60" type="line"/>
		</contour>
		<contour>
			<point x="104" y="0" type="line"/>
			<point x="200" y="0" type="line"/>
			<point x="219" y="104"/>
			<point x="237" y="208"/>
			<point x="256" y="312" type="curve" smooth="yes"/>
			<point x="320" y="670" type="line"/>
			<point x="224" y="670" type="line"/>
			<point x="205" y="566"/>
			<point x="187" y="464"/>
			<point x="168" y="360" type="curve" smooth="yes"/>
		</contour>
		<contour>
			<point x="120" y="610" type="line"/>
			<point x="248" y="610" type="line"/>
			<point x="276" y="610" type="line"/>
			<point x="398" y="610" type="line"/>
			<point x="408" y="670" type="line"/>
			<point x="130" y="670" type="line"/>
		</contour>
	</outline>
	<anchor name="aboveUC" x="272" y="690"/>
	<anchor name="belowLC" x="152" y="-20"/>
	<anchor name="ogonek" x="185" y="0"/>
</glyph>
<glyph name="J" format="2">
	<unicode hex="004A"/>
	<advance width="380"/>
	<outline>
		<contour>
			<point x="-96" y="9" type="curve"/>
			<point x="-88" y="-19"/>
			<point x="-52" y="-43"/>
			<point x="0" y="-43" type="curve" smooth="yes"/>
			<point x="120" y="-43"/>
			<point x="180" y="49"/>
			<point x="212" y="113" type="curve"/>
			<point x="244" y="177"/>
			<point x="266" y="256"/>
			<point x="288" y="385" type="curve" smooth="yes"/>
			<point x="336" y="672" type="line"/>
			<point x="240" y="672" type="line"/>
			<point x="191" y="384" type="line" smooth="yes"/>
			<point x="178" y="307"/>
			<point x="160" y="217"/>
			<point x="140" y="145" type="curve"/>
			<point x="120" y="73"/>
			<point x="104" y="33"/>
			<point x="88" y="5" type="curve"/>
			<point x="44" y="5" type="line"/>
			<point x="76" y="-11" type="line"/>
			<point x="36" y="37"/>
			<point x="12" y="53"/>
			<point x="-28" y="53" type="curve" smooth="yes"/>
			<point x="-68" y="53"/>
			<point x="-88" y="33"/>
		</contour>
		<contour>
			<point x="120" y="612" type="line"/>
			<point x="264" y="612" type="line"/>
			<point x="292" y="612" type="line"/>
			<point x="414" y="612" type="line"/>
			<point x="424" y="672" type="line"/>
			<point x="130" y="672" type="line"/>
		</contour>
	</outline>
	<anchor name="aboveUC" x="284" y="691"/>
	<anchor name="belowLC" x="38" y="-145"/>
</glyph>
<glyph name="L" format="2">
	<unicode hex="004C"/>
	<advance width="600"/>
	<outline>
		<contour>
			<point x="16" y="0" type="line"/>
			<point x="148" y="0" type="line"/>
			<point x="148" y="60" type="line"/>
			<point x="132" y="60" type="line"/>
			<point x="26" y="60" type="line"/>
		</contour>
		<contour>
			<point x="104" y="0" type="line"/>
			<point x="200" y="0" type="line"/>
			<point x="219" y="104"/>
			<point x="237" y="208"/>
			<point x="256" y="312" type="curve" smooth="yes"/>
			<point x="320" y="672" type="line"/>
			<point x="224" y="672" type="line"/>
			<point x="205" y="568"/>
			<point x="187" y="464"/>
			<point x="168" y="360" type="curve" smooth="yes"/>
		</contour>
		<contour>
			<point x="120" y="612" type="line"/>
			<point x="248" y="612" type="line"/>
			<point x="276" y="612" type="line"/>
			<point x="406" y="612" type="line"/>
			<point x="416" y="672" type="line"/>
			<point x="130" y="672" type="line"/>
		</contour>
		<contour>
			<point x="176" y="0" type="line"/>
			<point x="516" y="0" type="line"/>
			<point x="556" y="204" type="line"/>
			<point x="496" y="204" type="line"/>
			<point x="420" y="16" type="line"/>
			<point x="492" y="60" type="line"/>
			<point x="176" y="60" type="line"/>
		</contour>
	</outline>
	<anchor name="aboveUC" x="263" y="691"/>
	<anchor name="belowLC" x="300" y="-22"/>
</glyph>
<glyph name="M" format="2">
	<unicode hex="004D"/>
	<advance width="948"/>
	<outline>
		<contour>
			<point x="8" y="0" type="line"/>
			<point x="270" y="0" type="line"/>
			<point x="280" y="60" type="line"/>
			<point x="156" y="60" type="line"/>
			<point x="124" y="60" type="line"/>
			<point x="18" y="60" type="line"/>
		</contour>
		<contour>
			<point x="96" y="0" type="line"/>
			<point x="164" y="0" type="line"/>
			<point x="312" y="672" type="line"/>
			<point x="252" y="672" type="line"/>
		</contour>
		<contour>
			<point x="388" y="0" type="line"/>
			<point x="440" y="0" type="line"/>
			<point x="808" y="672" type="line"/>
			<point x="744" y="672" type="line"/>
			<point x="438" y="100" type="line"/>
			<point x="456" y="100" type="line"/>
			<point x="376" y="672" type="line"/>
			<point x="158" y="672" type="line"/>
			<point x="148" y="612" type="line"/>
			<point x="320" y="612" type="line"/>
			<point x="292" y="636" type="line"/>
		</contour>
		<contour>
			<point x="596" y="0" type="line"/>
			<point x="878" y="0" type="line"/>
			<point x="888" y="60" type="line"/>
			<point x="760" y="60" type="line"/>
			<point x="736" y="60" type="line"/>
			<point x="606" y="60" type="line"/>
		</contour>
		<contour>
			<point x="692" y="0" type="line"/>
			<point x="784" y="0" type="line"/>
			<point x="824" y="320" type="line"/>
			<point x="868" y="672" type="line"/>
			<point x="796" y="672" type="line"/>
			<point x="780" y="644" type="line"/>
		</contour>
		<contour>
			<point x="824" y="612" type="line"/>
			<point x="946" y="612" type="line"/>
			<point x="956" y="672" type="line"/>
			<point x="824" y="672" type="line"/>
		</contour>
	</outline>
	<anchor name="aboveUC" x="540" y="661"/>
	<anchor name="belowLC" x="405" y="-22"/>
	<anchor name="aboveUC" x="548" y="661"/>
	<anchor name="belowLC" x="413" y="-22"/>
</glyph>
<glyph name="N" format="2">
	<unicode hex="004E"/>
	<advance width="764"/>
	<outline>
		<contour>
			<point x="12" y="0" type="line"/>
			<point x="270" y="0" type="line"/>
			<point x="280" y="60" type="line"/>
			<point x="156" y="60" type="line"/>
			<point x="128" y="60" type="line"/>
			<point x="22" y="60" type="line"/>
		</contour>
		<contour>
			<point x="100" y="0" type="line"/>
			<point x="168" y="0" type="line"/>
			<point x="284" y="670" type="line"/>
			<point x="224" y="670" type="line"/>
		</contour>
		<contour>
			<point x="548" y="610" type="line"/>
			<point x="672" y="610" type="line"/>
			<point x="700" y="610" type="line"/>
			<point x="806" y="610" type="line"/>
			<point x="816" y="670" type="line"/>
			<point x="558" y="670" type="line"/>
		</contour>
		<contour>
			<point x="603" y="132" type="line"/>
			<point x="551" y="132" type="line"/>
			<point x="336" y="670" type="line"/>
			<point x="130" y="670" type="line"/>
			<point x="120" y="610" type="line"/>
			<point x="241" y="610" type="line"/>
			<point x="241" y="560" type="line"/>
			<point x="282" y="560" type="line"/>
			<point x="510" y="0" type="line"/>
			<point x="606" y="0" type="line"/>
			<point x="728" y="670" type="line"/>
			<point x="660" y="670" type="line"/>
			<point x="556" y="60" type="line"/>
		</contour>
	</outline>
	<anchor name="aboveUC" x="453" y="690"/>
	<anchor name="belowLC" x="377" y="-20"/>
</glyph>
<glyph name="O" format="2">
	<unicode hex="004F"/>
	<advance width="688"/>
	<outline>
		<contour>
			<point x="319" y="-16" type="curve" smooth="yes"/>
			<point x="519" y="-16"/>
			<point x="679" y="196"/>
			<point x="679" y="424" type="curve" smooth="yes"/>
			<point x="679" y="596"/>
			<point x="579" y="686"/>
			<point x="431" y="686" type="curve" smooth="yes"/>
			<point x="231" y="686"/>
			<point x="71" y="476"/>
			<point x="71" y="248" type="curve" smooth="yes"/>
			<point x="71" y="76"/>
			<point x="171" y="-16"/>
		</contour>
		<contour>
			<point x="327" y="44" type="curve" smooth="yes"/>
			<point x="227" y="44"/>
			<point x="173" y="108"/>
			<point x="173" y="240" type="curve" smooth="yes"/>
			<point x="173" y="444"/>
			<point x="279" y="626"/>
			<point x="423" y="626" type="curve" smooth="yes"/>
			<point x="523" y="626"/>
			<point x="577" y="564"/>
			<point x="577" y="432" type="curve" smooth="yes"/>
			<point x="577" y="228"/>
			<point x="471" y="44"/>
		</contour>
	</outline>
	<anchor name="aboveUC" x="432" y="690"/>
	<anchor name="belowLC" x="319" y="-20"/>
	<anchor name="ogonek" x="407" y="0"/>
	<anchor name="hornLC" x="583" y="574"/>
</glyph>
<glyph name="P" format="2">
	<unicode hex="0050"/>
	<advance width="578"/>
	<outline>
		<contour>
			<point x="16" y="0" type="line"/>
			<point x="310" y="0" type="line"/>
			<point x="320" y="60" type="line"/>
			<point x="176" y="60" type="line"/>
			<point x="148" y="60" type="line"/>
			<point x="26" y="60" type="line"/>
		</contour>
		<contour>
			<point x="104" y="0" type="line"/>
			<point x="200" y="0" type="line"/>
			<point x="219" y="104"/>
			<point x="237" y="208"/>
			<point x="256" y="312" type="curve" smooth="yes"/>
			<point x="320" y="670" type="line"/>
			<point x="224" y="670" type="line"/>
			<point x="205" y="566"/>
			<point x="187" y="464"/>
			<point x="168" y="360" type="curve" smooth="yes"/>
		</contour>
		<contour>
			<point x="120" y="610" type="line"/>
			<point x="248" y="610" type="line"/>
			<point x="276" y="610" type="line"/>
			<point x="276" y="670" type="line"/>
			<point x="130" y="670" type="line"/>
		</contour>
		<contour>
			<point x="204" y="256" type="line"/>
			<point x="312" y="256" type="line" smooth="yes"/>
			<point x="496" y="256"/>
			<point x="600" y="356"/>
			<point x="600" y="488" type="curve" smooth="yes"/>
			<point x="600" y="600"/>
			<point x="516" y="670"/>
			<point x="364" y="670" type="curve" smooth="yes"/>
			<point x="292" y="670" type="line"/>
			<point x="292" y="610" type="line"/>
			<point x="356" y="610" type="line" smooth="yes"/>
			<point x="452" y="610"/>
			<point x="500" y="568"/>
			<point x="500" y="484" type="curve" smooth="yes"/>
			<point x="500" y="380"/>
			<point x="440" y="312"/>
			<point x="312" y="312" type="curve" smooth="yes"/>
			<point x="204" y="312" type="line"/>
		</contour>
	</outline>
	<anchor name="aboveUC" x="376" y="690"/>
	<anchor name="belowLC" x="151" y="-20"/>
</glyph>
<glyph name="Q" format="2">
	<unicode hex="0051"/>
	<advance width="720"/>
	<outline>
		<contour>
			<point x="508" y="-224" type="curve" smooth="yes"/>
			<point x="596" y="-224"/>
			<point x="644" y="-192"/>
			<point x="676" y="-172" type="curve"/>
			<point x="656" y="-128" type="line"/>
			<point x="628" y="-144"/>
			<point x="588" y="-160"/>
			<point x="532" y="-160" type="curve" smooth="yes"/>
			<point x="428" y="-160"/>
			<point x="368" y="-92"/>
			<point x="368" y="20" type="curve"/>
			<point x="276" y="20" type="line"/>
			<point x="276" y="-140"/>
			<point x="364" y="-224"/>
		</contour>
		<contour>
			<point x="316" y="-16" type="curve" smooth="yes"/>
			<point x="516" y="-16"/>
			<point x="676" y="196"/>
			<point x="676" y="424" type="curve" smooth="yes"/>
			<point x="676" y="596"/>
			<point x="576" y="688"/>
			<point x="428" y="688" type="curve" smooth="yes"/>
			<point x="228" y="688"/>
			<point x="68" y="476"/>
			<point x="68" y="248" type="curve" smooth="yes"/>
			<point x="68" y="76"/>
			<point x="168" y="-16"/>
		</contour>
		<contour>
			<point x="324" y="44" type="curve" smooth="yes"/>
			<point x="224" y="44"/>
			<point x="170" y="108"/>
			<point x="170" y="240" type="curve" smooth="yes"/>
			<point x="170" y="444"/>
			<point x="276" y="628"/>
			<point x="420" y="628" type="curve" smooth="yes"/>
			<point x="520" y="628"/>
			<point x="574" y="564"/>
			<point x="574" y="432" type="curve" smooth="yes"/>
			<point x="574" y="228"/>
			<point x="468" y="44"/>
		</contour>
		<component base="O"/>
	</outline>
	<anchor name="aboveUC" x="417" y="691"/>
</glyph>
<glyph name="S" format="2">
	<unicode hex="0053"/>
	<advance width="536"/>
	<outline>
		<contour>
			<point x="48" y="24" type="line"/>
			<point x="88" y="0"/>
			<point x="152" y="-16"/>
			<point x="236" y="-16" type="curve" smooth="yes"/>
			<point x="372" y="-16"/>
			<point x="468" y="60"/>
			<point x="468" y="180" type="curve" smooth="yes"/>
			<point x="468" y="280"/>
			<point x="396" y="332"/>
			<point x="318" y="388" type="curve" smooth="yes"/>
			<point x="252" y="436"/>
			<point x="216" y="468"/>
			<point x="216" y="528" type="curve" smooth="yes"/>
			<point x="216" y="588"/>
			<point x="256" y="628"/>
			<point x="344" y="628" type="curve" smooth="yes"/>
			<point x="400" y="628"/>
			<point x="448" y="612"/>
			<point x="472" y="596" type="curve"/>
			<point x="424" y="644" type="line"/>
			<point x="434" y="496" type="line"/>
			<point x="496" y="496" type="line"/>
			<point x="512" y="648" type="line"/>
			<point x="464" y="672"/>
			<point x="408" y="688"/>
			<point x="340" y="688" type="curve" smooth="yes"/>
			<point x="216" y="688"/>
			<point x="124" y="620"/>
			<point x="124" y="508" type="curve" smooth="yes"/>
			<point x="124" y="408"/>
			<point x="196" y="356"/>
			<point x="274" y="300" type="curve" smooth="yes"/>
			<point x="340" y="252"/>
			<point x="376" y="216"/>
			<point x="376" y="160" type="curve" smooth="yes"/>
			<point x="376" y="92"/>
			<point x="332" y="44"/>
			<point x="236" y="44" type="curve" smooth="yes"/>
			<point x="168" y="44"/>
			<point x="128" y="60"/>
			<point x="88" y="80" type="curve"/>
			<point x="136" y="32" type="line"/>
			<point x="126" y="188" type="line"/>
			<point x="64" y="188" type="line"/>
		</contour>
	</outline>
	<anchor name="aboveUC" x="354" y="691"/>
	<anchor name="belowLC" x="210" y="-22"/>
	<anchor name="baseLC" x="205" y="0"/>
	<anchor name="aboveUC" x="358" y="691"/>
	<anchor name="belowLC" x="214" y="-22"/>
	<anchor name="baseLC" x="209" y="0"/>
</glyph>
<glyph name="T" format="2">
	<unicode hex="0054"/>
	<advance width="624"/>
	<outline>
		<contour>
			<point x="84" y="484" type="line"/>
			<point x="144" y="484" type="line"/>
			<point x="220" y="656" type="line"/>
			<point x="148" y="612" type="line"/>
			<point x="608" y="612" type="line"/>
			<point x="576" y="636" type="line"/>
			<point x="576" y="484" type="line"/>
			<point x="640" y="484" type="line"/>
			<point x="668" y="672" type="line"/>
			<point x="124" y="672" type="line"/>
		</contour>
		<contour>
			<point x="120" y="0" type="line"/>
			<point x="430" y="0" type="line"/>
			<point x="440" y="60" type="line"/>
			<point x="296" y="60" type="line"/>
			<point x="268" y="60" type="line"/>
			<point x="130" y="60" type="line"/>
		</contour>
		<contour>
			<point x="224" y="0" type="line"/>
			<point x="320" y="0" type="line"/>
			<point x="339" y="104"/>
			<point x="357" y="208"/>
			<point x="376" y="312" type="curve" smooth="yes"/>
			<point x="440" y="672" type="line"/>
			<point x="344" y="672" type="line"/>
			<point x="325" y="568"/>
			<point x="307" y="464"/>
			<point x="288" y="360" type="curve" smooth="yes"/>
		</contour>
	</outline>
	<anchor name="aboveUC" x="377" y="691"/>
	<anchor name="belowLC" x="254" y="-22"/>
	<anchor name="baseLC" x="253" y="0"/>
</glyph>
<glyph name="U" format="2">
	<unicode hex="0055"/>
	<advance width="756"/>
	<outline>
		<contour>
			<point x="348" y="-16" type="curve" smooth="yes"/>
			<point x="524" y="-16"/>
			<point x="612" y="100"/>
			<point x="644" y="284" type="curve" smooth="yes"/>
			<point x="712" y="672" type="line"/>
			<point x="648" y="672" type="line"/>
			<point x="580" y="288" type="line" smooth="yes"/>
			<point x="552" y="132"/>
			<point x="484" y="48"/>
			<point x="372" y="48" type="curve" smooth="yes"/>
			<point x="260" y="48"/>
			<point x="232" y="116"/>
			<point x="232" y="180" type="curve" smooth="yes"/>
			<point x="232" y="216"/>
			<point x="236" y="240"/>
			<point x="244" y="288" type="curve" smooth="yes"/>
			<point x="312" y="672" type="line"/>
			<point x="216" y="672" type="line"/>
			<point x="160" y="360" type="line"/>
			<point x="148" y="292" type="line" smooth="yes"/>
			<point x="140" y="248"/>
			<point x="136" y="216"/>
			<point x="136" y="180" type="curve" smooth="yes"/>
			<point x="136" y="68"/>
			<point x="204" y="-16"/>
		</contour>
		<contour>
			<point x="112" y="612" type="line"/>
			<point x="240" y="612" type="line"/>
			<point x="268" y="612" type="line"/>
			<point x="394" y="612" type="line"/>
			<point x="404" y="672" type="line"/>
			<point x="122" y="672" type="line"/>
		</contour>
		<contour>
			<point x="540" y="612" type="line"/>
			<point x="656" y="612" type="line"/>
			<point x="684" y="612" type="line"/>
			<point x="790" y="612" type="line"/>
			<point x="800" y="672" type="line"/>
			<point x="550" y="672" type="line"/>
		</contour>
	</outline>
	<anchor name="aboveUC" x="454" y="691"/>
	<anchor name="belowLC" x="336" y="-22"/>
	<anchor name="ogonek" x="422" y="0"/>
	<anchor name="hornLC" x="668" y="679"/>
	<anchor name="aboveUC" x="470" y="691"/>
	<anchor name="belowLC" x="352" y="-22"/>
	<anchor name="ogonek" x="438" y="0"/>
	<anchor name="hornLC" x="684" y="679"/>
</glyph>
<glyph name="V" format="2">
	<unicode hex="0056"/>
	<advance width="724"/>
	<outline>
		<contour>
			<point x="104" y="612" type="line"/>
			<point x="204" y="612" type="line"/>
			<point x="264" y="612" type="line"/>
			<point x="374" y="612" type="line"/>
			<point x="384" y="672" type="line"/>
			<point x="114" y="672" type="line"/>
		</contour>
		<contour>
			<point x="268" y="0" type="line"/>
			<point x="380" y="0" type="line"/>
			<point x="720" y="672" type="line"/>
			<point x="648" y="672" type="line"/>
			<point x="356" y="68" type="line"/>
			<point x="344" y="68" type="line"/>
			<point x="276" y="672" type="line"/>
			<point x="180" y="672" type="line"/>
		</contour>
		<contour>
			<point x="528" y="612" type="line"/>
			<point x="640" y="612" type="line"/>
			<point x="660" y="612" type="line"/>
			<point x="762" y="612" type="line"/>
			<point x="772" y="672" type="line"/>
			<point x="538" y="672" type="line"/>
		</contour>
	</outline>
	<anchor name="aboveUC" x="466" y="691"/>
	<anchor name="belowLC" x="312" y="-22"/>
</glyph>
<glyph name="W" format="2">
	<unicode hex="0057"/>
	<advance width="972"/>
	<outline>
		<contour>
			<point x="103" y="610" type="line"/>
			<point x="188" y="610" type="line"/>
			<point x="248" y="610" type="line"/>
			<point x="341" y="610" type="line"/>
			<point x="353" y="670" type="line"/>
			<point x="115" y="670" type="line"/>
		</contour>
		<contour>
			<point x="220" y="0" type="line"/>
			<point x="335" y="0" type="line"/>
			<point x="550" y="579" type="line"/>
			<point x="569" y="579" type="line"/>
			<point x="574" y="0" type="line"/>
			<point x="696" y="0" type="line"/>
			<point x="972" y="670" type="line"/>
			<point x="900" y="670" type="line"/>
			<point x="676" y="80" type="line"/>
			<point x="660" y="80" type="line"/>
			<point x="651" y="670" type="line"/>
			<point x="525" y="670" type="line"/>
			<point x="311" y="80" type="line"/>
			<point x="295" y="80" type="line"/>
			<point x="264" y="670" type="line"/>
			<point x="168" y="670" type="line"/>
		</contour>
		<contour>
			<point x="435" y="610" type="line"/>
			<point x="556" y="610" type="line"/>
			<point x="584" y="610" type="line"/>
			<point x="711" y="610" type="line"/>
			<point x="723" y="670" type="line"/>
			<point x="447" y="670" type="line"/>
		</contour>
		<contour>
			<point x="802" y="610" type="line"/>
			<point x="895" y="610" type="line"/>
			<point x="915" y="610" type="line"/>
			<point x="1012" y="610" type="line"/>
			<point x="1024" y="670" type="line"/>
			<point x="814" y="670" type="line"/>
		</contour>
	</outline>
	<anchor name="aboveUC" x="560" y="690"/>
	<anchor name="belowLC" x="445" y="-20"/>
</glyph>
<glyph name="X" format="2">
	<unicode hex="0058"/>
	<advance width="696"/>
	<outline>
		<contour>
			<point x="4" y="0" type="line"/>
			<point x="242" y="0" type="line"/>
			<point x="252" y="60" type="line"/>
			<point x="148" y="60" type="line"/>
			<point x="112" y="60" type="line"/>
			<point x="14" y="60" type="line"/>
		</contour>
		<contour>
			<point x="44" y="0" type="line"/>
			<point x="120" y="0" type="line"/>
			<point x="376" y="328" type="line"/>
			<point x="336" y="360" type="line"/>
		</contour>
		<contour>
			<point x="108" y="610" type="line"/>
			<point x="224" y="610" type="line"/>
			<point x="260" y="610" type="line"/>
			<point x="378" y="610" type="line"/>
			<point x="388" y="670" type="line"/>
			<point x="118" y="670" type="line"/>
		</contour>
		<contour>
			<point x="480" y="0" type="line"/>
			<point x="580" y="0" type="line"/>
			<point x="400" y="400" type="line"/>
			<point x="380" y="400" type="line"/>
			<point x="264" y="670" type="line"/>
			<point x="164" y="670" type="line"/>
			<point x="336" y="288" type="line"/>
			<point x="356" y="288" type="line"/>
		</contour>
		<contour>
			<point x="356" y="0" type="line"/>
			<point x="626" y="0" type="line"/>
			<point x="636" y="60" type="line"/>
			<point x="520" y="60" type="line"/>
			<point x="484" y="60" type="line"/>
			<point x="366" y="60" type="line"/>
		</contour>
		<contour>
			<point x="360" y="360" type="line"/>
			<point x="400" y="328" type="line"/>
			<point x="676" y="670" type="line"/>
			<point x="600" y="670" type="line"/>
		</contour>
		<contour>
			<point x="468" y="610" type="line"/>
			<point x="568" y="610" type="line"/>
			<point x="608" y="610" type="line"/>
			<point x="706" y="610" type="line"/>
			<point x="716" y="670" type="line"/>
			<point x="478" y="670" type="line"/>
		</contour>
	</outline>
	<anchor name="aboveUC" x="442" y="691"/>
	<anchor name="belowLC" x="304" y="-22"/>
</glyph>
<glyph name="Y" format="2">
	<unicode hex="0059"/>
	<advance width="631"/>
	<outline>
		<contour>
			<point x="91" y="610" type="line"/>
			<point x="207" y="610" type="line"/>
			<point x="239" y="610" type="line"/>
			<point x="355" y="610" type="line"/>
			<point x="365" y="670" type="line"/>
			<point x="101" y="670" type="line"/>
		</contour>
		<contour>
			<point x="135" y="0" type="line"/>
			<point x="445" y="0" type="line"/>
			<point x="455" y="60" type="line"/>
			<point x="311" y="60" type="line"/>
			<point x="283" y="60" type="line"/>
			<point x="145" y="60" type="line"/>
		</contour>
		<contour>
			<point x="291" y="264" type="line"/>
			<point x="379" y="264" type="line"/>
			<point x="659" y="670" type="line"/>
			<point x="585" y="670" type="line"/>
			<point x="460" y="476" type="line"/>
			<point x="371" y="322" type="line"/>
			<point x="359" y="322" type="line"/>
			<point x="251" y="670" type="line"/>
			<point x="151" y="670" type="line"/>
		</contour>
		<contour>
			<point x="239" y="0" type="line"/>
			<point x="335" y="0" type="line"/>
			<point x="354" y="104"/>
			<point x="372" y="208"/>
			<point x="391" y="312" type="curve"/>
			<point x="295" y="312" type="line"/>
		</contour>
		<contour>
			<point x="457" y="610" type="line"/>
			<point x="567" y="610" type="line"/>
			<point x="603" y="610" type="line"/>
			<point x="693" y="610" type="line"/>
			<point x="703" y="670" type="line"/>
			<point x="467" y="670" type="line"/>
		</contour>
	</outline>
	<anchor name="aboveUC" x="421" y="690"/>
	<anchor name="belowLC" x="285" y="-20"/>
</glyph>
<glyph name="Z" format="2">
	<unicode hex="005A"/>
	<advance width="584"/>
	<outline>
		<contour>
			<point x="24" y="0" type="line"/>
			<point x="156" y="0" type="line"/>
			<point x="156" y="69" type="line"/>
			<point x="601" y="614" type="line"/>
			<point x="612" y="670" type="line"/>
			<point x="476" y="670" type="line"/>
			<point x="476" y="597" type="line"/>
			<point x="35" y="56" type="line"/>
		</contour>
		<contour>
			<point x="104" y="484" type="line"/>
			<point x="164" y="484" type="line"/>
			<point x="236" y="654" type="line"/>
			<point x="164" y="612" type="line"/>
			<point x="560" y="612" type="line"/>
			<point x="560" y="670" type="line"/>
			<point x="140" y="670" type="line"/>
		</contour>
		<contour>
			<point x="76" y="0" type="line"/>
			<point x="516" y="0" type="line"/>
			<point x="556" y="188" type="line"/>
			<point x="496" y="188" type="line"/>
			<point x="420" y="16" type="line"/>
			<point x="492" y="56" type="line"/>
			<point x="76" y="56" type="line"/>
		</contour>
	</outline>
	<anchor name="aboveUC" x="373" y="690"/>
	<anchor name="belowLC" x="279" y="-20"/>
</glyph>
<glyph name="bracketleft" format="2">
	<unicode hex="005B"/>
	<advance width="324"/>
	<outline>
		<contour>
			<point x="37" y="-160" type="line"/>
			<point x="114" y="-160" type="line"/>
			<point x="172" y="158" type="line"/>
			<point x="215" y="398" type="line"/>
			<point x="273" y="716" type="line"/>
			<point x="196" y="716" type="line"/>
			<point x="138" y="398" type="line"/>
			<point x="95" y="158" type="line"/>
		</contour>
		<contour>
			<point x="75" y="-160" type="line"/>
			<point x="225" y="-160" type="line"/>
			<point x="237" y="-96" type="line"/>
			<point x="103" y="-96" type="line"/>
			<point x="87" y="-96" type="line"/>
		</contour>
		<contour>
			<point x="222" y="652" type="line"/>
			<point x="238" y="652" type="line"/>
			<point x="371" y="652" type="line"/>
			<point x="383" y="716" type="line"/>
			<point x="234" y="716" type="line"/>
		</contour>
	</outline>
</glyph>
<glyph name="backslash" format="2">
	<unicode hex="005C"/>
	<advance width="311"/>
	<outline>
		<contour>
			<point x="257" y="-160" type="line"/>
			<point x="168" y="710" type="line"/>
			<point x="112" y="710" type="line"/>
			<point x="201" y="-160" type="line"/>
		</contour>
	</outline>
</glyph>
<glyph name="a" format="2">
	<unicode hex="0061"/>
	<advance width="586"/>
	<outline>
		<contour>
			<point x="163" y="-12" type="curve" smooth="yes"/>
			<point x="230" y="-12"/>
			<point x="279" y="27"/>
			<point x="337" y="112" type="curve"/>
			<point x="377" y="112" type="line"/>
			<point x="384" y="208" type="line"/>
			<point x="283" y="84"/>
			<point x="239" y="60"/>
			<point x="199" y="60" type="curve" smooth="yes"/>
			<point x="159" y="60"/>
			<point x="146" y="92"/>
			<point x="146" y="155" type="curve" smooth="yes"/>
			<point x="146" y="224"/>
			<point x="170" y="298"/>
			<point x="206" y="354" type="curve" smooth="yes"/>
			<point x="245" y="415"/>
			<point x="297" y="464"/>
			<point x="361" y="464" type="curve" smooth="yes"/>
			<point x="400" y="464"/>
			<point x="427" y="449"/>
			<point x="453" y="413" type="curve"/>
			<point x="483" y="443" type="line"/>
			<point x="448" y="497"/>
			<point x="433" y="520"/>
			<point x="381" y="520" type="curve" smooth="yes"/>
			<point x="231" y="520"/>
			<point x="49" y="320"/>
			<point x="49" y="121" type="curve" smooth="yes"/>
			<point x="49" y="18"/>
			<point x="99" y="-12"/>
		</contour>
		<contour>
			<point x="434" y="-12" type="curve" smooth="yes"/>
			<point x="494" y="-12"/>
			<point x="543" y="32"/>
			<point x="586" y="120" type="curve"/>
			<point x="547" y="144" type="line"/>
			<point x="505" y="72"/>
			<point x="488" y="56"/>
			<point x="462" y="56" type="curve" smooth="yes"/>
			<point x="442" y="56"/>
			<point x="433" y="68"/>
			<point x="433" y="90" type="curve" smooth="yes"/>
			<point x="433" y="108"/>
			<point x="438" y="128"/>
			<point x="448" y="168" type="curve" smooth="yes"/>
			<point x="535" y="540" type="line"/>
			<point x="490" y="540" type="line"/>
			<point x="442" y="472" type="line"/>
			<point x="426" y="472" type="line"/>
			<point x="351" y="152" type="line"/>
			<point x="367" y="152" type="line"/>
			<point x="363" y="136"/>
			<point x="353" y="104"/>
			<point x="353" y="72" type="curve" smooth="yes"/>
			<point x="353" y="12"/>
			<point x="376" y="-12"/>
		</contour>
	</outline>
	<anchor name="aboveLC" x="366" y="528"/>
	<anchor name="belowLC" x="267" y="-20"/>
	<anchor name="ogonek" x="410" y="0"/>
</glyph>
<glyph name="b" format="2">
	<unicode hex="0062"/>
	<advance width="556"/>
	<outline>
		<contour>
			<point x="96" y="252" type="line" smooth="yes"/>
			<point x="84" y="196"/>
			<point x="72" y="144"/>
			<point x="72" y="104" type="curve" smooth="yes"/>
			<point x="72" y="32"/>
			<point x="116" y="-12"/>
			<point x="204" y="-12" type="curve" smooth="yes"/>
			<point x="356" y="-12"/>
			<point x="516" y="148"/>
			<point x="516" y="352" type="curve" smooth="yes"/>
			<point x="516" y="472"/>
			<point x="468" y="520"/>
			<point x="396" y="520" type="curve" smooth="yes"/>
			<point x="332" y="520"/>
			<point x="284" y="472"/>
			<point x="228" y="352" type="curve"/>
			<point x="180" y="352" type="line"/>
			<point x="180" y="232" type="line"/>
			<point x="268" y="392"/>
			<point x="316" y="448"/>
			<point x="364" y="448" type="curve" smooth="yes"/>
			<point x="404" y="448"/>
			<point x="420" y="416"/>
			<point x="420" y="336" type="curve" smooth="yes"/>
			<point x="420" y="252"/>
			<point x="400" y="176"/>
			<point x="368" y="128" type="curve" smooth="yes"/>
			<point x="336" y="80"/>
			<point x="292" y="44"/>
			<point x="236" y="44" type="curve" smooth="yes"/>
			<point x="188" y="44"/>
			<point x="168" y="68"/>
			<point x="168" y="112" type="curve" smooth="yes"/>
			<point x="168" y="148"/>
			<point x="176" y="180"/>
			<point x="184" y="220" type="curve" smooth="yes"/>
			<point x="204" y="320" type="line"/>
			<point x="188" y="320" type="line"/>
			<point x="288" y="740" type="line"/>
			<point x="248" y="740" type="line"/>
			<point x="80" y="716" type="line"/>
			<point x="80" y="668" type="line"/>
			<point x="216" y="652" type="line"/>
			<point x="188" y="692" type="line"/>
		</contour>
	</outline>
	<anchor name="aboveLC" x="235" y="739"/>
	<anchor name="belowLC" x="187" y="-22"/>
</glyph>
<glyph name="c" format="2">
	<unicode hex="0063"/>
	<advance width="460"/>
	<outline>
		<contour>
			<point x="224" y="-12" type="curve" smooth="yes"/>
			<point x="312" y="-12"/>
			<point x="377" y="44"/>
			<point x="418" y="116" type="curve"/>
			<point x="383" y="144" type="line"/>
			<point x="346" y="100"/>
			<point x="313" y="60"/>
			<point x="249" y="60" type="curve" smooth="yes"/>
			<point x="185" y="60"/>
			<point x="147" y="104"/>
			<point x="147" y="200" type="curve" smooth="yes"/>
			<point x="147" y="328"/>
			<point x="232" y="452"/>
			<point x="292" y="476" type="curve"/>
			<point x="340" y="476" type="line"/>
			<point x="293" y="500" type="line"/>
			<point x="328" y="452" type="line" smooth="yes"/>
			<point x="351" y="420"/>
			<point x="371" y="404"/>
			<point x="399" y="404" type="curve" smooth="yes"/>
			<point x="435" y="404"/>
			<point x="452" y="430"/>
			<point x="456" y="456" type="curve"/>
			<point x="448" y="488"/>
			<point x="409" y="520"/>
			<point x="325" y="520" type="curve" smooth="yes"/>
			<point x="193" y="520"/>
			<point x="55" y="368"/>
			<point x="55" y="184" type="curve" smooth="yes"/>
			<point x="55" y="56"/>
			<point x="120" y="-12"/>
		</contour>
	</outline>
	<anchor name="aboveLC" x="325" y="542"/>
	<anchor name="belowLC" x="181" y="-22"/>
	<anchor name="baseLC" x="187" y="0"/>
</glyph>
<glyph name="d" format="2">
	<unicode hex="0064"/>
	<advance width="580"/>
	<outline>
		<contour>
			<point x="172" y="-12" type="curve" smooth="yes"/>
			<point x="240" y="-12"/>
			<point x="272" y="36"/>
			<point x="320" y="116" type="curve"/>
			<point x="364" y="116" type="line"/>
			<point x="364" y="208" type="line"/>
			<point x="280" y="92"/>
			<point x="248" y="60"/>
			<point x="208" y="60" type="curve" smooth="yes"/>
			<point x="168" y="60"/>
			<point x="144" y="92"/>
			<point x="144" y="156" type="curve" smooth="yes"/>
			<point x="144" y="240"/>
			<point x="168" y="316"/>
			<point x="192" y="364" type="curve" smooth="yes"/>
			<point x="216" y="412"/>
			<point x="256" y="472"/>
			<point x="332" y="472" type="curve" smooth="yes"/>
			<point x="380" y="472"/>
			<point x="412" y="456"/>
			<point x="436" y="432" type="curve"/>
			<point x="436" y="504" type="line"/>
			<point x="420" y="512"/>
			<point x="388" y="520"/>
			<point x="348" y="520" type="curve" smooth="yes"/>
			<point x="192" y="520"/>
			<point x="48" y="352"/>
			<point x="48" y="148" type="curve" smooth="yes"/>
			<point x="48" y="36"/>
			<point x="112" y="-12"/>
		</contour>
		<contour>
			<point x="428" y="-12" type="curve" smooth="yes"/>
			<point x="488" y="-12"/>
			<point x="536" y="32"/>
			<point x="576" y="120" type="curve"/>
			<point x="536" y="144" type="line"/>
			<point x="496" y="72"/>
			<point x="480" y="56"/>
			<point x="454" y="56" type="curve" smooth="yes"/>
			<point x="434" y="56"/>
			<point x="424" y="68"/>
			<point x="424" y="88" type="curve" smooth="yes"/>
			<point x="424" y="104"/>
			<point x="428" y="124"/>
			<point x="436" y="164" type="curve" smooth="yes"/>
			<point x="552" y="740" type="line"/>
			<point x="512" y="740" type="line"/>
			<point x="344" y="716" type="line"/>
			<point x="344" y="668" type="line"/>
			<point x="480" y="652" type="line"/>
			<point x="452" y="692" type="line"/>
			<point x="416" y="468" type="line"/>
			<point x="404" y="468" type="line"/>
			<point x="336" y="144" type="line"/>
			<point x="352" y="144" type="line"/>
			<point x="348" y="124"/>
			<point x="344" y="104"/>
			<point x="344" y="76" type="curve" smooth="yes"/>
			<point x="344" y="20"/>
			<point x="372" y="-12"/>
		</contour>
	</outline>
	<anchor name="aboveLC" x="501" y="792"/>
	<anchor name="belowLC" x="269" y="-22"/>
</glyph>
<glyph name="e" format="2">
	<unicode hex="0065"/>
	<advance width="472"/>
	<outline>
		<contour>
			<point x="224" y="-12" type="curve" smooth="yes"/>
			<point x="316" y="-12"/>
			<point x="380" y="44"/>
			<point x="420" y="116" type="curve"/>
			<point x="384" y="144" type="line"/>
			<point x="348" y="100"/>
			<point x="316" y="60"/>
			<point x="248" y="60" type="curve" smooth="yes"/>
			<point x="184" y="60"/>
			<point x="140" y="104"/>
			<point x="140" y="200" type="curve" smooth="yes"/>
			<point x="140" y="336"/>
			<point x="232" y="468"/>
			<point x="312" y="468" type="curve" smooth="yes"/>
			<point x="348" y="468"/>
			<point x="364" y="448"/>
			<point x="364" y="416" type="curve" smooth="yes"/>
			<point x="364" y="352"/>
			<point x="300" y="272"/>
			<point x="108" y="228" type="curve"/>
			<point x="108" y="188" type="line"/>
			<point x="380" y="256"/>
			<point x="448" y="336"/>
			<point x="448" y="420" type="curve" smooth="yes"/>
			<point x="448" y="480"/>
			<point x="404" y="520"/>
			<point x="328" y="520" type="curve" smooth="yes"/>
			<point x="184" y="520"/>
			<point x="52" y="368"/>
			<point x="52" y="184" type="curve" smooth="yes"/>
			<point x="52" y="56"/>
			<point x="120" y="-12"/>
		</contour>
	</outline>
	<anchor name="aboveLC" x="318" y="506"/>
	<anchor name="belowLC" x="191" y="-22"/>
	<anchor name="ogonek" x="240" y="0"/>
	<anchor name="aboveLC" x="322" y="506"/>
	<anchor name="belowLC" x="195" y="-22"/>
	<anchor name="ogonek" x="244" y="0"/>
</glyph>
<glyph name="f" format="2">
	<unicode hex="0066"/>
	<advance width="355"/>
	<outline>
		<contour>
			<point x="-55" y="-237" type="curve" smooth="yes"/>
			<point x="17" y="-237"/>
			<point x="61" y="-197"/>
			<point x="93" y="-157" type="curve" smooth="yes"/>
			<point x="125" y="-117"/>
			<point x="153" y="-65"/>
			<point x="173" y="59" type="curve" smooth="yes"/>
			<point x="196" y="196"/>
			<point x="218" y="347"/>
			<point x="243" y="484" type="curve" smooth="yes"/>
			<point x="269" y="628"/>
			<point x="286" y="652"/>
			<point x="325" y="704" type="curve"/>
			<point x="385" y="704" type="line"/>
			<point x="336" y="725" type="line"/>
			<point x="373" y="674" type="line" smooth="yes"/>
			<point x="395" y="644"/>
			<point x="415" y="629"/>
			<point x="442" y="629" type="curve" smooth="yes"/>
			<point x="466" y="629"/>
			<point x="481" y="649"/>
			<point x="485" y="672" type="curve"/>
			<point x="478" y="703"/>
			<point x="439" y="742"/>
			<point x="356" y="742" type="curve" smooth="yes"/>
			<point x="261" y="742"/>
			<point x="179" y="676"/>
			<point x="151" y="492" type="curve" smooth="yes"/>
			<point x="130" y="352"/>
			<point x="106" y="199"/>
			<point x="85" y="59" type="curve" smooth="yes"/>
			<point x="69" y="-49"/>
			<point x="53" y="-109"/>
			<point x="33" y="-149" type="curve" smooth="yes"/>
			<point x="21" y="-173"/>
			<point x="10" y="-186"/>
			<point x="2" y="-194" type="curve"/>
			<point x="-50" y="-194" type="line"/>
			<point x="-2" y="-214" type="line"/>
			<point x="-39" y="-177" type="line" smooth="yes"/>
			<point x="-71" y="-145"/>
			<point x="-85" y="-133"/>
			<point x="-115" y="-133" type="curve" smooth="yes"/>
			<point x="-147" y="-133"/>
			<point x="-163" y="-151"/>
			<point x="-167" y="-173" type="curve"/>
			<point x="-163" y="-199"/>
			<point x="-127" y="-237"/>
		</contour>
		<contour>
			<point x="46" y="448" type="line"/>
			<point x="183" y="456" type="line"/>
			<point x="358" y="448" type="line"/>
			<point x="370" y="508" type="line"/>
			<point x="175" y="508" type="line"/>
			<point x="175" y="516" type="line"/>
			<point x="56" y="500" type="line"/>
		</contour>
	</outline>
	<anchor name="aboveLC" x="360" y="740"/>
	<anchor name="belowLC" x="-34" y="-245"/>
</glyph>
<glyph name="g" format="2">
	<unicode hex="0067"/>
	<advance width="552"/>
	<outline>
		<contour>
			<point x="183" y="-231" type="curve" smooth="yes"/>
			<point x="307" y="-231"/>
			<point x="454" y="-160"/>
			<point x="454" y="-40" type="curve" smooth="yes"/>
			<point x="454" y="24"/>
			<point x="406" y="63"/>
			<point x="326" y="74" type="curve" smooth="yes"/>
			<point x="212" y="90" type="line" smooth="yes"/>
			<point x="175" y="95"/>
			<point x="160" y="112"/>
			<point x="160" y="134" type="curve" smooth="yes"/>
			<point x="160" y="156"/>
			<point x="167" y="178"/>
			<point x="198" y="202" type="curve"/>
			<point x="148" y="210" type="line"/>
			<point x="148" y="164" type="line"/>
			<point x="100" y="160"/>
			<point x="72" y="140"/>
			<point x="72" y="106" type="curve" smooth="yes"/>
			<point x="72" y="72"/>
			<point x="100" y="52"/>
			<point x="148" y="44" type="curve"/>
			<point x="148" y="18" type="line"/>
			<point x="154" y="18"/>
			<point x="161" y="17"/>
			<point x="167" y="16" type="curve" smooth="yes"/>
			<point x="286" y="2" type="line" smooth="yes"/>
			<point x="358" y="-6"/>
			<point x="382" y="-32"/>
			<point x="382" y="-68" type="curve" smooth="yes"/>
			<point x="382" y="-136"/>
			<point x="291" y="-179"/>
			<point x="207" y="-179" type="curve" smooth="yes"/>
			<point x="123" y="-179"/>
			<point x="68" y="-144"/>
			<point x="68" y="-96" type="curve" smooth="yes"/>
			<point x="68" y="-48"/>
			<point x="100" y="-20"/>
			<point x="188" y="20" type="curve"/>
			<point x="180" y="28" type="line"/>
			<point x="44" y="-4"/>
			<point x="-16" y="-48"/>
			<point x="-16" y="-112" type="curve" smooth="yes"/>
			<point x="-16" y="-176"/>
			<point x="59" y="-231"/>
		</contour>
		<contour>
			<point x="244" y="180" type="curve" smooth="yes"/>
			<point x="374" y="180"/>
			<point x="426" y="272"/>
			<point x="446" y="328" type="curve" smooth="yes"/>
			<point x="462" y="372"/>
			<point x="470" y="404"/>
			<point x="478" y="452" type="curve"/>
			<point x="458" y="400" type="line"/>
			<point x="542" y="408"/>
			<point x="566" y="440"/>
			<point x="566" y="486" type="curve" smooth="yes"/>
			<point x="566" y="502"/>
			<point x="562" y="516"/>
			<point x="558" y="524" type="curve"/>
			<point x="554" y="526"/>
			<point x="542" y="528"/>
			<point x="530" y="528" type="curve" smooth="yes"/>
			<point x="482" y="528"/>
			<point x="454" y="500"/>
			<point x="448" y="404" type="curve"/>
			<point x="420" y="404" type="line"/>
			<point x="418" y="472"/>
			<point x="370" y="520"/>
			<point x="290" y="520" type="curve" smooth="yes"/>
			<point x="177" y="520"/>
			<point x="96" y="428"/>
			<point x="96" y="320" type="curve" smooth="yes"/>
			<point x="96" y="228"/>
			<point x="158" y="180"/>
		</contour>
		<contour>
			<point x="254" y="224" type="curve" smooth="yes"/>
			<point x="206" y="224"/>
			<point x="182" y="256"/>
			<point x="182" y="312" type="curve" smooth="yes"/>
			<point x="182" y="396"/>
			<point x="230" y="476"/>
			<point x="298" y="476" type="curve" smooth="yes"/>
			<point x="346" y="476"/>
			<point x="370" y="444"/>
			<point x="370" y="388" type="curve" smooth="yes"/>
			<point x="370" y="304"/>
			<point x="322" y="224"/>
		</contour>
	</outline>
	<anchor name="aboveLC" x="304" y="528"/>
	<anchor name="belowLC" x="152" y="-245"/>
</glyph>
<glyph name="h" format="2">
	<unicode hex="0068"/>
	<advance width="620"/>
	<outline>
		<contour>
			<point x="92" y="-8" type="line"/>
			<point x="156" y="0" type="line"/>
			<point x="224" y="340" type="line"/>
			<point x="216" y="340" type="line"/>
			<point x="304" y="740" type="line"/>
			<point x="264" y="740" type="line"/>
			<point x="96" y="716" type="line"/>
			<point x="96" y="668" type="line"/>
			<point x="232" y="652" type="line"/>
			<point x="204" y="692" type="line"/>
			<point x="160" y="480" type="line"/>
			<point x="60" y="0" type="line"/>
		</contour>
		<contour>
			<point x="372" y="64" type="curve" smooth="yes"/>
			<point x="372" y="20"/>
			<point x="404" y="-12"/>
			<point x="460" y="-12" type="curve" smooth="yes"/>
			<point x="528" y="-12"/>
			<point x="576" y="40"/>
			<point x="616" y="112" type="curve"/>
			<point x="576" y="136" type="line"/>
			<point x="536" y="72"/>
			<point x="520" y="56"/>
			<point x="496" y="56" type="curve" smooth="yes"/>
			<point x="476" y="56"/>
			<point x="468" y="68"/>
			<point x="468" y="84" type="curve" smooth="yes"/>
			<point x="468" y="104"/>
			<point x="476" y="132"/>
			<point x="484" y="164" type="curve" smooth="yes"/>
			<point x="524" y="332" type="line" smooth="yes"/>
			<point x="532" y="364"/>
			<point x="540" y="404"/>
			<point x="540" y="428" type="curve" smooth="yes"/>
			<point x="540" y="484"/>
			<point x="504" y="520"/>
			<point x="436" y="520" type="curve" smooth="yes"/>
			<point x="356" y="520"/>
			<point x="308" y="460"/>
			<point x="252" y="372" type="curve"/>
			<point x="212" y="372" type="line"/>
			<point x="212" y="308" type="line"/>
			<point x="300" y="404"/>
			<point x="340" y="444"/>
			<point x="392" y="444" type="curve" smooth="yes"/>
			<point x="424" y="444"/>
			<point x="440" y="428"/>
			<point x="440" y="400" type="curve" smooth="yes"/>
			<point x="440" y="372"/>
			<point x="432" y="340"/>
			<point x="424" y="308" type="curve" smooth="yes"/>
			<point x="388" y="156" type="line" smooth="yes"/>
			<point x="380" y="124"/>
			<point x="372" y="92"/>
		</contour>
	</outline>
	<anchor name="aboveLC" x="246" y="739"/>
	<anchor name="belowLC" x="212" y="-12"/>
</glyph>
<glyph name="j" format="2">
	<unicode hex="006A"/>
	<advance width="300"/>
	<outline>
		<contour>
			<point x="234" y="616" type="curve" smooth="yes"/>
			<point x="276" y="616"/>
			<point x="304" y="652"/>
			<point x="304" y="688" type="curve" smooth="yes"/>
			<point x="304" y="720"/>
			<point x="280" y="744"/>
			<point x="246" y="744" type="curve" smooth="yes"/>
			<point x="204" y="744"/>
			<point x="176" y="708"/>
			<point x="176" y="672" type="curve" smooth="yes"/>
			<point x="176" y="640"/>
			<point x="200" y="616"/>
		</contour>
		<contour>
			<point x="-71" y="-237" type="line"/>
			<point x="-15" y="-221"/>
			<point x="33" y="-197"/>
			<point x="65" y="-165" type="curve" smooth="yes"/>
			<point x="97" y="-133"/>
			<point x="136" y="-93"/>
			<point x="161" y="35" type="curve" smooth="yes"/>
			<point x="252" y="508" type="line"/>
			<point x="212" y="508" type="line"/>
			<point x="45" y="464" type="line"/>
			<point x="35" y="416" type="line"/>
			<point x="164" y="416" type="line"/>
			<point x="152" y="464" type="line"/>
			<point x="73" y="43" type="line" smooth="yes"/>
			<point x="49" y="-85"/>
			<point x="17" y="-125"/>
			<point x="-7" y="-149" type="curve" smooth="yes"/>
			<point x="-31" y="-173"/>
			<point x="-63" y="-189"/>
			<point x="-91" y="-197" type="curve"/>
		</contour>
	</outline>
	<anchor name="aboveLC" x="249" y="744"/>
	<anchor name="belowLC" x="-12" y="-245"/>
</glyph>
<glyph name="k" format="2">
	<unicode hex="006B"/>
	<advance width="544"/>
	<outline>
		<contour>
			<point x="60" y="0" type="line"/>
			<point x="92" y="-8" type="line"/>
			<point x="156" y="0" type="line"/>
			<point x="200" y="220" type="line"/>
			<point x="304" y="740" type="line"/>
			<point x="264" y="740" type="line"/>
			<point x="96" y="716" type="line"/>
			<point x="96" y="668" type="line"/>
			<point x="232" y="652" type="line"/>
			<point x="204" y="692" type="line"/>
			<point x="160" y="480" type="line"/>
		</contour>
		<contour>
			<point x="514" y="0" type="curve"/>
			<point x="520" y="36" type="line"/>
			<point x="484" y="40" type="line" smooth="yes"/>
			<point x="452" y="44"/>
			<point x="424" y="60"/>
			<point x="396" y="120" type="curve" smooth="yes"/>
			<point x="368" y="180" type="line" smooth="yes"/>
			<point x="340" y="240"/>
			<point x="300" y="264"/>
			<point x="228" y="276" type="curve" smooth="yes"/>
			<point x="204" y="280" type="line"/>
			<point x="204" y="256" type="line"/>
			<point x="444" y="384" type="line" smooth="yes"/>
			<point x="496" y="412"/>
			<point x="524" y="428"/>
			<point x="524" y="464" type="curve" smooth="yes"/>
			<point x="524" y="488"/>
			<point x="508" y="504"/>
			<point x="488" y="512" type="curve"/>
			<point x="180" y="268" type="line"/>
			<point x="180" y="256" type="line"/>
			<point x="192" y="252" type="line" smooth="yes"/>
			<point x="240" y="236"/>
			<point x="260" y="212"/>
			<point x="284" y="156" type="curve" smooth="yes"/>
			<point x="316" y="80" type="line" smooth="yes"/>
			<point x="346" y="8"/>
			<point x="384" y="-12"/>
			<point x="436" y="-12" type="curve" smooth="yes"/>
			<point x="464" y="-12"/>
			<point x="500" y="-4"/>
		</contour>
	</outline>
	<anchor name="aboveLC" x="246" y="739"/>
	<anchor name="belowLC" x="235" y="-22"/>
</glyph>
<glyph name="l" format="2">
	<unicode hex="006C"/>
	<advance width="324"/>
	<outline>
		<contour>
			<point x="162" y="-12" type="curve" smooth="yes"/>
			<point x="232" y="-12"/>
			<point x="280" y="32"/>
			<point x="320" y="120" type="curve"/>
			<point x="280" y="144" type="line"/>
			<point x="240" y="72"/>
			<point x="224" y="56"/>
			<point x="198" y="56" type="curve" smooth="yes"/>
			<point x="178" y="56"/>
			<point x="168" y="68"/>
			<point x="168" y="88" type="curve" smooth="yes"/>
			<point x="168" y="104"/>
			<point x="172" y="124"/>
			<point x="180" y="164" type="curve" smooth="yes"/>
			<point x="296" y="740" type="line"/>
			<point x="256" y="740" type="line"/>
			<point x="88" y="716" type="line"/>
			<point x="88" y="668" type="line"/>
			<point x="224" y="652" type="line"/>
			<point x="196" y="692" type="line"/>
			<point x="152" y="484" type="line"/>
			<point x="84" y="164" type="line" smooth="yes"/>
			<point x="76" y="124"/>
			<point x="72" y="104"/>
			<point x="72" y="76" type="curve" smooth="yes"/>
			<point x="72" y="20"/>
			<point x="106" y="-12"/>
		</contour>
	</outline>
	<anchor name="aboveLC" x="242" y="739"/>
	<anchor name="belowLC" x="134" y="-22"/>
</glyph>
<glyph name="m" format="2">
	<unicode hex="006D"/>
	<advance width="920"/>
	<outline>
		<contour>
			<point x="100" y="-8" type="line"/>
			<point x="164" y="0" type="line"/>
			<point x="180" y="79"/>
			<point x="196" y="157"/>
			<point x="212" y="236" type="curve" smooth="yes"/>
			<point x="240" y="364" type="line"/>
			<point x="232" y="364" type="line"/>
			<point x="248" y="508" type="line"/>
			<point x="218" y="518" type="line"/>
			<point x="65" y="464" type="line"/>
			<point x="55" y="416" type="line"/>
			<point x="180" y="416" type="line"/>
			<point x="168" y="460" type="line"/>
			<point x="68" y="0" type="line"/>
		</contour>
		<contour>
			<point x="396" y="-8" type="line"/>
			<point x="460" y="0" type="line"/>
			<point x="476" y="73"/>
			<point x="492" y="147"/>
			<point x="508" y="220" type="curve" smooth="yes"/>
			<point x="532" y="328" type="line"/>
			<point x="524" y="328" type="line"/>
			<point x="528" y="348"/>
			<point x="536" y="392"/>
			<point x="536" y="424" type="curve" smooth="yes"/>
			<point x="536" y="484"/>
			<point x="500" y="520"/>
			<point x="438" y="520" type="curve" smooth="yes"/>
			<point x="362" y="520"/>
			<point x="311" y="461"/>
			<point x="254" y="372" type="curve"/>
			<point x="228" y="372" type="line"/>
			<point x="228" y="316" type="line"/>
			<point x="308" y="404"/>
			<point x="348" y="444"/>
			<point x="398" y="444" type="curve" smooth="yes"/>
			<point x="428" y="444"/>
			<point x="444" y="428"/>
			<point x="444" y="396" type="curve" smooth="yes"/>
			<point x="444" y="368"/>
			<point x="436" y="332"/>
			<point x="428" y="296" type="curve" smooth="yes"/>
			<point x="364" y="0" type="line"/>
		</contour>
		<contour>
			<point x="760" y="-12" type="curve" smooth="yes"/>
			<point x="828" y="-12"/>
			<point x="876" y="40"/>
			<point x="916" y="112" type="curve"/>
			<point x="876" y="136" type="line"/>
			<point x="836" y="72"/>
			<point x="820" y="56"/>
			<point x="796" y="56" type="curve" smooth="yes"/>
			<point x="776" y="56"/>
			<point x="768" y="68"/>
			<point x="768" y="84" type="curve" smooth="yes"/>
			<point x="768" y="104"/>
			<point x="776" y="132"/>
			<point x="784" y="164" type="curve" smooth="yes"/>
			<point x="824" y="332" type="line" smooth="yes"/>
			<point x="832" y="364"/>
			<point x="840" y="404"/>
			<point x="840" y="428" type="curve" smooth="yes"/>
			<point x="840" y="484"/>
			<point x="804" y="520"/>
			<point x="738" y="520" type="curve" smooth="yes"/>
			<point x="657" y="520"/>
			<point x="607" y="461"/>
			<point x="550" y="372" type="curve"/>
			<point x="516" y="372" type="line"/>
			<point x="516" y="308" type="line"/>
			<point x="604" y="404"/>
			<point x="644" y="444"/>
			<point x="694" y="444" type="curve" smooth="yes"/>
			<point x="724" y="444"/>
			<point x="740" y="428"/>
			<point x="740" y="400" type="curve" smooth="yes"/>
			<point x="740" y="372"/>
			<point x="732" y="340"/>
			<point x="724" y="308" type="curve" smooth="yes"/>
			<point x="688" y="156" type="line" smooth="yes"/>
			<point x="680" y="124"/>
			<point x="672" y="92"/>
			<point x="672" y="64" type="curve" smooth="yes"/>
			<point x="672" y="20"/>
			<point x="704" y="-12"/>
		</contour>
	</outline>
	<anchor name="aboveLC" x="511" y="528"/>
	<anchor name="belowLC" x="422" y="-20"/>
</glyph>
<glyph name="n" format="2">
	<unicode hex="006E"/>
	<advance width="628"/>
	<outline>
		<contour>
			<point x="100" y="-8" type="line"/>
			<point x="164" y="0" type="line"/>
			<point x="180" y="79"/>
			<point x="196" y="157"/>
			<point x="212" y="236" type="curve" smooth="yes"/>
			<point x="240" y="364" type="line"/>
			<point x="232" y="364" type="line"/>
			<point x="248" y="508" type="line"/>
			<point x="218" y="518" type="line"/>
			<point x="65" y="464" type="line"/>
			<point x="55" y="416" type="line"/>
			<point x="180" y="416" type="line"/>
			<point x="168" y="460" type="line"/>
			<point x="68" y="0" type="line"/>
		</contour>
		<contour>
			<point x="468" y="-12" type="curve" smooth="yes"/>
			<point x="536" y="-12"/>
			<point x="584" y="40"/>
			<point x="624" y="112" type="curve"/>
			<point x="584" y="136" type="line"/>
			<point x="544" y="72"/>
			<point x="528" y="56"/>
			<point x="504" y="56" type="curve" smooth="yes"/>
			<point x="484" y="56"/>
			<point x="476" y="68"/>
			<point x="476" y="84" type="curve" smooth="yes"/>
			<point x="476" y="104"/>
			<point x="484" y="132"/>
			<point x="492" y="164" type="curve" smooth="yes"/>
			<point x="532" y="332" type="line" smooth="yes"/>
			<point x="540" y="364"/>
			<point x="548" y="404"/>
			<point x="548" y="428" type="curve" smooth="yes"/>
			<point x="548" y="484"/>
			<point x="512" y="520"/>
			<point x="444" y="520" type="curve" smooth="yes"/>
			<point x="362" y="520"/>
			<point x="311" y="461"/>
			<point x="255" y="372" type="curve"/>
			<point x="228" y="372" type="line"/>
			<point x="228" y="316" type="line"/>
			<point x="308" y="404"/>
			<point x="348" y="444"/>
			<point x="400" y="444" type="curve" smooth="yes"/>
			<point x="432" y="444"/>
			<point x="448" y="428"/>
			<point x="448" y="400" type="curve" smooth="yes"/>
			<point x="448" y="372"/>
			<point x="440" y="340"/>
			<point x="432" y="308" type="curve" smooth="yes"/>
			<point x="396" y="156" type="line" smooth="yes"/>
			<point x="388" y="124"/>
			<point x="380" y="92"/>
			<point x="380" y="64" type="curve" smooth="yes"/>
			<point x="380" y="20"/>
			<point x="412" y="-12"/>
		</contour>
	</outline>
	<anchor name="aboveLC" x="347" y="528"/>
	<anchor name="belowLC" x="276" y="-20"/>
</glyph>
<glyph name="o" format="2">
	<unicode hex="006F"/>
	<advance width="564"/>
	<outline>
		<contour>
			<point x="240" y="-12" type="curve" smooth="yes"/>
			<point x="400" y="-12"/>
			<point x="520" y="144"/>
			<point x="520" y="324" type="curve" smooth="yes"/>
			<point x="520" y="448"/>
			<point x="448" y="520"/>
			<point x="332" y="520" type="curve" smooth="yes"/>
			<point x="172" y="520"/>
			<point x="52" y="364"/>
			<point x="52" y="184" type="curve" smooth="yes"/>
			<point x="52" y="60"/>
			<point x="124" y="-12"/>
		</contour>
		<contour>
			<point x="248" y="40" type="curve" smooth="yes"/>
			<point x="188" y="40"/>
			<point x="148" y="84"/>
			<point x="148" y="184" type="curve" smooth="yes"/>
			<point x="148" y="332"/>
			<point x="220" y="468"/>
			<point x="324" y="468" type="curve" smooth="yes"/>
			<point x="384" y="468"/>
			<point x="424" y="424"/>
			<point x="424" y="324" type="curve" smooth="yes"/>
			<point x="424" y="176"/>
			<point x="352" y="40"/>
		</contour>
	</outline>
	<anchor name="aboveLC" x="317" y="506"/>
	<anchor name="belowLC" x="202" y="-22"/>
	<anchor name="hornLC" x="416" y="480"/>
	<anchor name="ogonek" x="276" y="0"/>
	<anchor name="aboveLC" x="321" y="506"/>
	<anchor name="belowLC" x="206" y="-22"/>
	<anchor name="hornLC" x="420" y="480"/>
	<anchor name="ogonek" x="280" y="0"/>
</glyph>
<glyph name="p" format="2">
	<unicode hex="0070"/>
	<advance width="584"/>
	<outline>
		<contour>
			<point x="216" y="-12" type="curve" smooth="yes"/>
			<point x="361" y="-12"/>
			<point x="550" y="161"/>
			<point x="550" y="376" type="curve" smooth="yes"/>
			<point x="550" y="480"/>
			<point x="503" y="520"/>
			<point x="437" y="520" type="curve" smooth="yes"/>
			<point x="367" y="520"/>
			<point x="306" y="472"/>
			<point x="254" y="380" type="curve"/>
			<point x="224" y="380" type="line"/>
			<point x="221" y="284" type="line"/>
			<point x="310" y="416"/>
			<point x="357" y="448"/>
			<point x="397" y="448" type="curve" smooth="yes"/>
			<point x="437" y="448"/>
			<point x="453" y="416"/>
			<point x="453" y="350" type="curve" smooth="yes"/>
			<point x="453" y="260"/>
			<point x="415" y="184"/>
			<point x="382" y="136" type="curve" smooth="yes"/>
			<point x="348" y="88"/>
			<point x="311" y="44"/>
			<point x="255" y="44" type="curve" smooth="yes"/>
			<point x="207" y="44"/>
			<point x="165" y="60"/>
			<point x="142" y="84" type="curve"/>
			<point x="139" y="4" type="line"/>
			<point x="155" y="-4"/>
			<point x="176" y="-12"/>
		</contour>
		<contour>
			<point x="34" y="-225" type="line"/>
			<point x="121" y="-225" type="line"/>
			<point x="137" y="-141"/>
			<point x="155" y="-44"/>
			<point x="171" y="40" type="curve"/>
			<point x="180" y="40" type="line"/>
			<point x="248" y="364" type="line"/>
			<point x="232" y="364" type="line"/>
			<point x="248" y="508" type="line"/>
			<point x="208" y="508" type="line"/>
			<point x="65" y="464" type="line"/>
			<point x="55" y="416" type="line"/>
			<point x="180" y="416" type="line"/>
			<point x="168" y="444" type="line"/>
		</contour>
		<contour>
			<point x="-43" y="-225" type="line"/>
			<point x="215" y="-225" type="line"/>
			<point x="227" y="-173" type="line"/>
			<point x="102" y="-173" type="line"/>
			<point x="78" y="-173" type="line"/>
			<point x="-31" y="-173" type="line"/>
		</contour>
	</outline>
	<anchor name="aboveLC" x="352" y="528"/>
	<anchor name="belowLC" x="93" y="-245"/>
</glyph>
<glyph name="q" format="2">
	<unicode hex="0071"/>
	<advance width="552"/>
	<outline>
		<contour>
			<point x="176" y="-12" type="curve" smooth="yes"/>
			<point x="240" y="-12"/>
			<point x="272" y="28"/>
			<point x="320" y="112" type="curve"/>
			<point x="372" y="112" type="line"/>
			<point x="372" y="208" type="line"/>
			<point x="280" y="84"/>
			<point x="248" y="60"/>
			<point x="208" y="60" type="curve" smooth="yes"/>
			<point x="168" y="60"/>
			<point x="148" y="92"/>
			<point x="148" y="160" type="curve" smooth="yes"/>
			<point x="148" y="232"/>
			<point x="164" y="296"/>
			<point x="196" y="352" type="curve" smooth="yes"/>
			<point x="228" y="408"/>
			<point x="268" y="452"/>
			<point x="332" y="452" type="curve" smooth="yes"/>
			<point x="388" y="452"/>
			<point x="428" y="420"/>
			<point x="460" y="372" type="curve"/>
			<point x="460" y="468" type="line"/>
			<point x="436" y="492"/>
			<point x="404" y="508"/>
			<point x="348" y="508" type="curve" smooth="yes"/>
			<point x="200" y="508"/>
			<point x="52" y="340"/>
			<point x="52" y="152" type="curve" smooth="yes"/>
			<point x="52" y="36"/>
			<point x="112" y="-12"/>
		</contour>
		<contour>
			<point x="180" y="-212" type="line"/>
			<point x="446" y="-212" type="line"/>
			<point x="456" y="-160" type="line"/>
			<point x="360" y="-160" type="line"/>
			<point x="290" y="-160" type="line"/>
			<point x="190" y="-160" type="line"/>
		</contour>
		<contour>
			<point x="510" y="540" type="line"/>
			<point x="462" y="540" type="line"/>
			<point x="420" y="472" type="line"/>
			<point x="404" y="472" type="line"/>
			<point x="340" y="152" type="line"/>
			<point x="356" y="152" type="line"/>
			<point x="268" y="-212" type="line"/>
			<point x="360" y="-212" type="line"/>
		</contour>
	</outline>
	<anchor name="aboveLC" x="387" y="506"/>
	<anchor name="belowLC" x="309" y="-251"/>
</glyph>
<glyph name="r" format="2">
	<unicode hex="0072"/>
	<advance width="452"/>
	<outline>
		<contour>
			<point x="207" y="231" type="line"/>
			<point x="271" y="343"/>
			<point x="308" y="408"/>
			<point x="340" y="448" type="curve"/>
			<point x="392" y="448" type="line"/>
			<point x="349" y="456" type="line"/>
			<point x="356" y="443" type="line" smooth="yes"/>
			<point x="370" y="417"/>
			<point x="384" y="404"/>
			<point x="414" y="404" type="curve" smooth="yes"/>
			<point x="449" y="404"/>
			<point x="469" y="433"/>
			<point x="473" y="472" type="curve"/>
			<point x="464" y="496"/>
			<point x="448" y="520"/>
			<point x="400" y="520" type="curve" smooth="yes"/>
			<point x="321" y="520"/>
			<point x="285" y="448"/>
			<point x="240" y="336" type="curve"/>
			<point x="212" y="336" type="line"/>
		</contour>
		<contour>
			<point x="68" y="0" type="line"/>
			<point x="100" y="-8" type="line"/>
			<point x="164" y="0" type="line"/>
			<point x="180" y="79"/>
			<point x="196" y="157"/>
			<point x="212" y="236" type="curve" smooth="yes"/>
			<point x="232" y="328" type="line"/>
			<point x="216" y="328" type="line"/>
			<point x="256" y="508" type="line"/>
			<point x="216" y="508" type="line"/>
			<point x="65" y="464" type="line"/>
			<point x="55" y="416" type="line"/>
			<point x="180" y="416" type="line"/>
			<point x="168" y="460" type="line"/>
		</contour>
	</outline>
	<anchor name="aboveLC" x="298" y="528"/>
	<anchor name="belowLC" x="118" y="-20"/>
</glyph>
<glyph name="s" format="2">
	<unicode hex="0073"/>
	<advance width="448"/>
	<outline>
		<contour>
			<point x="202" y="-12" type="curve" smooth="yes"/>
			<point x="308" y="-12"/>
			<point x="384" y="48"/>
			<point x="384" y="136" type="curve" smooth="yes"/>
			<point x="384" y="208"/>
			<point x="338" y="246"/>
			<point x="272" y="292" type="curve" smooth="yes"/>
			<point x="220" y="328"/>
			<point x="192" y="352"/>
			<point x="192" y="400" type="curve" smooth="yes"/>
			<point x="192" y="448"/>
			<point x="224" y="480"/>
			<point x="280" y="488" type="curve"/>
			<point x="352" y="488" type="line"/>
			<point x="296" y="496" type="line"/>
			<point x="312" y="444" type="line" smooth="yes"/>
			<point x="324" y="404"/>
			<point x="344" y="388"/>
			<point x="372" y="388" type="curve" smooth="yes"/>
			<point x="400" y="388"/>
			<point x="416" y="408"/>
			<point x="420" y="440" type="curve"/>
			<point x="408" y="484"/>
			<point x="360" y="520"/>
			<point x="276" y="520" type="curve" smooth="yes"/>
			<point x="172" y="520"/>
			<point x="104" y="464"/>
			<point x="104" y="382" type="curve" smooth="yes"/>
			<point x="104" y="308"/>
			<point x="150" y="270"/>
			<point x="216" y="224" type="curve" smooth="yes"/>
			<point x="268" y="188"/>
			<point x="296" y="164"/>
			<point x="296" y="114" type="curve" smooth="yes"/>
			<point x="296" y="64"/>
			<point x="264" y="32"/>
			<point x="200" y="24" type="curve"/>
			<point x="112" y="24" type="line"/>
			<point x="168" y="16" type="line"/>
			<point x="156" y="64" type="line" smooth="yes"/>
			<point x="148" y="96"/>
			<point x="130" y="124"/>
			<point x="90" y="124" type="curve" smooth="yes"/>
			<point x="58" y="124"/>
			<point x="40" y="100"/>
			<point x="36" y="72" type="curve"/>
			<point x="56" y="24"/>
			<point x="108" y="-12"/>
		</contour>
	</outline>
	<anchor name="aboveLC" x="272" y="542"/>
	<anchor name="belowLC" x="155" y="-22"/>
	<anchor name="baseLC" x="159" y="0"/>
</glyph>
<glyph name="t" format="2">
	<unicode hex="0074"/>
	<advance width="388"/>
	<outline>
		<contour>
			<point x="92" y="164" type="line" smooth="yes"/>
			<point x="84" y="128"/>
			<point x="80" y="104"/>
			<point x="80" y="78" type="curve" smooth="yes"/>
			<point x="80" y="20"/>
			<point x="114" y="-12"/>
			<point x="172" y="-12" type="curve" smooth="yes"/>
			<point x="244" y="-12"/>
			<point x="292" y="40"/>
			<point x="352" y="132" type="curve"/>
			<point x="312" y="156" type="line"/>
			<point x="260" y="80"/>
			<point x="240" y="60"/>
			<point x="210" y="60" type="curve" smooth="yes"/>
			<point x="188" y="60"/>
			<point x="176" y="72"/>
			<point x="176" y="94" type="curve" smooth="yes"/>
			<point x="176" y="110"/>
			<point x="180" y="128"/>
			<point x="188" y="164" type="curve" smooth="yes"/>
			<point x="292" y="648" type="line"/>
			<point x="236" y="648" type="line"/>
			<point x="156" y="464" type="line"/>
		</contour>
		<contour>
			<point x="56" y="448" type="line"/>
			<point x="192" y="456" type="line"/>
			<point x="374" y="448" type="line"/>
			<point x="384" y="508" type="line"/>
			<point x="200" y="500" type="line"/>
			<point x="200" y="516" type="line"/>
			<point x="64" y="500" type="line"/>
		</contour>
	</outline>
	<anchor name="aboveLC" x="263" y="684"/>
	<anchor name="belowLC" x="134" y="-22"/>
	<anchor name="baseLC" x="142" y="0"/>
</glyph>
<glyph name="u" format="2">
	<unicode hex="0075"/>
	<advance width="624"/>
	<outline>
		<contour>
			<point x="180" y="-12" type="curve" smooth="yes"/>
			<point x="260" y="-12"/>
			<point x="308" y="48"/>
			<point x="364" y="136" type="curve"/>
			<point x="396" y="136" type="line"/>
			<point x="396" y="192" type="line"/>
			<point x="316" y="104"/>
			<point x="276" y="64"/>
			<point x="224" y="64" type="curve" smooth="yes"/>
			<point x="192" y="64"/>
			<point x="176" y="80"/>
			<point x="176" y="108" type="curve" smooth="yes"/>
			<point x="176" y="136"/>
			<point x="184" y="168"/>
			<point x="192" y="200" type="curve" smooth="yes"/>
			<point x="266" y="508" type="line"/>
			<point x="228" y="508" type="line"/>
			<point x="60" y="484" type="line"/>
			<point x="60" y="438" type="line"/>
			<point x="188" y="420" type="line"/>
			<point x="160" y="460" type="line"/>
			<point x="92" y="176" type="line" smooth="yes"/>
			<point x="84" y="144"/>
			<point x="76" y="104"/>
			<point x="76" y="80" type="curve" smooth="yes"/>
			<point x="76" y="24"/>
			<point x="112" y="-12"/>
		</contour>
		<contour>
			<point x="464" y="-12" type="curve" smooth="yes"/>
			<point x="528" y="-12"/>
			<point x="576" y="36"/>
			<point x="616" y="112" type="curve"/>
			<point x="576" y="136" type="line"/>
			<point x="536" y="72"/>
			<point x="520" y="56"/>
			<point x="496" y="56" type="curve" smooth="yes"/>
			<point x="476" y="56"/>
			<point x="468" y="68"/>
			<point x="468" y="84" type="curve" smooth="yes"/>
			<point x="468" y="104"/>
			<point x="476" y="140"/>
			<point x="484" y="176" type="curve" smooth="yes"/>
			<point x="556" y="508" type="line"/>
			<point x="524" y="516" type="line"/>
			<point x="460" y="508" type="line"/>
			<point x="408" y="260" type="line"/>
			<point x="384" y="144" type="line"/>
			<point x="392" y="144" type="line"/>
			<point x="388" y="128"/>
			<point x="380" y="96"/>
			<point x="380" y="64" type="curve" smooth="yes"/>
			<point x="380" y="20"/>
			<point x="408" y="-12"/>
		</contour>
	</outline>
	<anchor name="aboveLC" x="347" y="506"/>
	<anchor name="belowLC" x="273" y="-22"/>
	<anchor name="hornLC" x="506" y="471"/>
	<anchor name="ogonek" x="430" y="0"/>
	<anchor name="aboveLC" x="359" y="506"/>
	<anchor name="belowLC" x="285" y="-22"/>
	<anchor name="hornLC" x="518" y="471"/>
	<anchor name="ogonek" x="442" y="0"/>
</glyph>
<glyph name="v" format="2">
	<unicode hex="0076"/>
	<advance width="543"/>
	<outline>
		<contour>
			<point x="181" y="0" type="curve"/>
			<point x="192" y="-12" type="line"/>
			<point x="266" y="-4" type="line"/>
			<point x="352" y="98"/>
			<point x="426" y="207"/>
			<point x="471" y="288" type="curve" smooth="yes"/>
			<point x="511" y="360"/>
			<point x="535" y="422"/>
			<point x="535" y="476" type="curve" smooth="yes"/>
			<point x="535" y="493"/>
			<point x="533" y="504"/>
			<point x="531" y="512" type="curve"/>
			<point x="523" y="516"/>
			<point x="511" y="520"/>
			<point x="491" y="520" type="curve" smooth="yes"/>
			<point x="447" y="520"/>
			<point x="419" y="492"/>
			<point x="419" y="444" type="curve" smooth="yes"/>
			<point x="419" y="408"/>
			<point x="431" y="384"/>
			<point x="447" y="360" type="curve" smooth="yes"/>
			<point x="455" y="348" type="line"/>
			<point x="455" y="400" type="line"/>
			<point x="447" y="368"/>
			<point x="437" y="336"/>
			<point x="421" y="304" type="curve" smooth="yes"/>
			<point x="380" y="221"/>
			<point x="330" y="142"/>
			<point x="275" y="70" type="curve"/>
			<point x="255" y="70" type="line"/>
			<point x="261" y="212"/>
			<point x="247" y="354"/>
			<point x="245" y="416" type="curve" smooth="yes"/>
			<point x="243" y="488"/>
			<point x="207" y="520"/>
			<point x="153" y="520" type="curve" smooth="yes"/>
			<point x="95" y="520"/>
			<point x="63" y="480"/>
			<point x="15" y="392" type="curve"/>
			<point x="55" y="368" type="line"/>
			<point x="87" y="424"/>
			<point x="103" y="448"/>
			<point x="123" y="448" type="curve" smooth="yes"/>
			<point x="143" y="448"/>
			<point x="153" y="432"/>
			<point x="155" y="388" type="curve" smooth="yes"/>
			<point x="159" y="308"/>
			<point x="181" y="148"/>
		</contour>
	</outline>
	<anchor name="aboveLC" x="330" y="528"/>
	<anchor name="belowLC" x="208" y="-20"/>
</glyph>
<glyph name="w" format="2">
	<unicode hex="0077"/>
	<advance width="825"/>
	<outline>
		<contour>
			<point x="176" y="0" type="curve"/>
			<point x="187" y="-12" type="line"/>
			<point x="270" y="-4" type="line"/>
			<point x="324" y="78"/>
			<point x="404" y="232"/>
			<point x="446" y="346" type="curve"/>
			<point x="458" y="345" type="line"/>
			<point x="461" y="241"/>
			<point x="462" y="105"/>
			<point x="466" y="0" type="curve"/>
			<point x="475" y="-12" type="line"/>
			<point x="541" y="-4" type="line"/>
			<point x="628" y="96"/>
			<point x="707" y="206"/>
			<point x="750" y="289" type="curve" smooth="yes"/>
			<point x="790" y="362"/>
			<point x="813" y="424"/>
			<point x="813" y="478" type="curve" smooth="yes"/>
			<point x="813" y="495"/>
			<point x="810" y="506"/>
			<point x="808" y="513" type="curve"/>
			<point x="800" y="517"/>
			<point x="788" y="520"/>
			<point x="768" y="520" type="curve" smooth="yes"/>
			<point x="724" y="520"/>
			<point x="697" y="489"/>
			<point x="697" y="441" type="curve" smooth="yes"/>
			<point x="697" y="405"/>
			<point x="711" y="383"/>
			<point x="726" y="360" type="curve" smooth="yes"/>
			<point x="734" y="348" type="line"/>
			<point x="733" y="410" type="line"/>
			<point x="725" y="378"/>
			<point x="715" y="342"/>
			<point x="699" y="309" type="curve" smooth="yes"/>
			<point x="662" y="231"/>
			<point x="610" y="157"/>
			<point x="551" y="70" type="curve"/>
			<point x="540" y="70" type="line"/>
			<point x="535" y="221"/>
			<point x="529" y="360"/>
			<point x="524" y="508" type="curve"/>
			<point x="461" y="508" type="line"/>
			<point x="412" y="362"/>
			<point x="339" y="204"/>
			<point x="262" y="70" type="curve"/>
			<point x="250" y="70" type="line"/>
			<point x="251" y="216"/>
			<point x="248" y="354"/>
			<point x="245" y="416" type="curve" smooth="yes"/>
			<point x="241" y="489"/>
			<point x="207" y="520"/>
			<point x="150" y="520" type="curve" smooth="yes"/>
			<point x="92" y="520"/>
			<point x="61" y="480"/>
			<point x="16" y="392" type="curve"/>
			<point x="57" y="368" type="line"/>
			<point x="87" y="424"/>
			<point x="102" y="448"/>
			<point x="122" y="448" type="curve" smooth="yes"/>
			<point x="142" y="448"/>
			<point x="153" y="432"/>
			<point x="156" y="388" type="curve" smooth="yes"/>
			<point x="163" y="308"/>
			<point x="173" y="148"/>
		</contour>
	</outline>
	<anchor name="aboveLC" x="474" y="528"/>
	<anchor name="belowLC" x="329" y="-20"/>
</glyph>
<glyph name="x" format="2">
	<unicode hex="0078"/>
	<advance width="648"/>
	<outline>
		<contour>
			<point x="428" y="-12" type="curve" smooth="yes"/>
			<point x="488" y="-12"/>
			<point x="533" y="36"/>
			<point x="588" y="108" type="curve"/>
			<point x="553" y="136" type="line"/>
			<point x="511" y="84"/>
			<point x="486" y="60"/>
			<point x="458" y="60" type="curve" smooth="yes"/>
			<point x="430" y="60"/>
			<point x="414" y="76"/>
			<point x="404" y="128" type="curve" smooth="yes"/>
			<point x="376" y="280" type="line"/>
			<point x="354" y="280" type="line"/>
			<point x="337" y="428" type="line" smooth="yes"/>
			<point x="330" y="492"/>
			<point x="302" y="520"/>
			<point x="246" y="520" type="curve" smooth="yes"/>
			<point x="186" y="520"/>
			<point x="152" y="472"/>
			<point x="106" y="392" type="curve"/>
			<point x="141" y="368" type="line"/>
			<point x="183" y="432"/>
			<point x="200" y="448"/>
			<point x="220" y="448" type="curve" smooth="yes"/>
			<point x="240" y="448"/>
			<point x="250" y="436"/>
			<point x="258" y="392" type="curve" smooth="yes"/>
			<point x="291" y="214" type="line"/>
			<point x="315" y="214" type="line"/>
			<point x="322" y="108" type="line" smooth="yes"/>
			<point x="326" y="40"/>
			<point x="352" y="-12"/>
		</contour>
		<contour>
			<point x="26" y="52" type="curve"/>
			<point x="33" y="20"/>
			<point x="60" y="-12"/>
			<point x="120" y="-12" type="curve" smooth="yes"/>
			<point x="180" y="-12"/>
			<point x="202" y="8"/>
			<point x="227" y="40" type="curve" smooth="yes"/>
			<point x="253" y="72"/>
			<point x="290" y="164"/>
			<point x="321" y="268" type="curve"/>
			<point x="294" y="276" type="line"/>
			<point x="272" y="207"/>
			<point x="231" y="127"/>
			<point x="196" y="70" type="curve" smooth="yes"/>
			<point x="187" y="54"/>
			<point x="177" y="39"/>
			<point x="169" y="28" type="curve"/>
			<point x="129" y="28" type="line"/>
			<point x="148" y="4" type="line"/>
			<point x="142" y="48" type="line" smooth="yes"/>
			<point x="139" y="72"/>
			<point x="124" y="104"/>
			<point x="84" y="104" type="curve" smooth="yes"/>
			<point x="48" y="104"/>
			<point x="31" y="76"/>
		</contour>
		<contour>
			<point x="380" y="232" type="line"/>
			<point x="402" y="297"/>
			<point x="445" y="386"/>
			<point x="482" y="445" type="curve" smooth="yes"/>
			<point x="490" y="458"/>
			<point x="497" y="470"/>
			<point x="505" y="480" type="curve"/>
			<point x="545" y="480" type="line"/>
			<point x="526" y="504" type="line"/>
			<point x="532" y="460" type="line" smooth="yes"/>
			<point x="535" y="436"/>
			<point x="550" y="404"/>
			<point x="590" y="404" type="curve" smooth="yes"/>
			<point x="626" y="404"/>
			<point x="643" y="432"/>
			<point x="648" y="456" type="curve"/>
			<point x="641" y="488"/>
			<point x="614" y="520"/>
			<point x="554" y="520" type="curve" smooth="yes"/>
			<point x="494" y="520"/>
			<point x="471" y="500"/>
			<point x="446" y="468" type="curve" smooth="yes"/>
			<point x="421" y="436"/>
			<point x="384" y="352"/>
			<point x="352" y="240" type="curve"/>
		</contour>
	</outline>
	<anchor name="aboveLC" x="388" y="528"/>
	<anchor name="belowLC" x="251" y="-20"/>
</glyph>
<glyph name="y" format="2">
	<unicode hex="0079"/>
	<advance width="554"/>
	<outline>
		<contour>
			<point x="-10" y="-236" type="curve" smooth="yes"/>
			<point x="86" y="-236"/>
			<point x="139" y="-188"/>
			<point x="185" y="-136" type="curve" smooth="yes"/>
			<point x="227" y="-88"/>
			<point x="272" y="-28"/>
			<point x="310" y="28" type="curve" smooth="yes"/>
			<point x="356" y="96"/>
			<point x="394" y="156"/>
			<point x="433" y="224" type="curve" smooth="yes"/>
			<point x="467" y="284"/>
			<point x="493" y="336"/>
			<point x="523" y="400" type="curve" smooth="yes"/>
			<point x="540" y="436"/>
			<point x="549" y="460"/>
			<point x="550" y="478" type="curve" smooth="yes"/>
			<point x="551" y="504"/>
			<point x="533" y="520"/>
			<point x="505" y="520" type="curve" smooth="yes"/>
			<point x="473" y="520"/>
			<point x="455" y="500"/>
			<point x="441" y="444" type="curve" smooth="yes"/>
			<point x="408" y="316"/>
			<point x="364" y="204"/>
			<point x="270" y="16" type="curve"/>
			<point x="245" y="-12"/>
			<point x="200" y="-64"/>
			<point x="162" y="-104" type="curve" smooth="yes"/>
			<point x="125" y="-144"/>
			<point x="96" y="-172"/>
			<point x="72" y="-190" type="curve"/>
			<point x="90" y="-184" type="line"/>
			<point x="-4" y="-184" type="line"/>
			<point x="63" y="-192" type="line"/>
			<point x="40" y="-168" type="line" smooth="yes"/>
			<point x="21" y="-148"/>
			<point x="-3" y="-132"/>
			<point x="-39" y="-132" type="curve" smooth="yes"/>
			<point x="-83" y="-132"/>
			<point x="-103" y="-156"/>
			<point x="-108" y="-180" type="curve"/>
			<point x="-100" y="-213"/>
			<point x="-73" y="-236"/>
		</contour>
		<contour>
			<point x="196" y="-88" type="curve"/>
			<point x="296" y="16" type="line"/>
			<point x="256" y="16" type="line"/>
			<point x="256" y="136"/>
			<point x="252" y="312"/>
			<point x="246" y="400" type="curve" smooth="yes"/>
			<point x="240" y="480"/>
			<point x="212" y="520"/>
			<point x="148" y="520" type="curve" smooth="yes"/>
			<point x="92" y="520"/>
			<point x="56" y="484"/>
			<point x="16" y="396" type="curve"/>
			<point x="60" y="376" type="line"/>
			<point x="84" y="424"/>
			<point x="100" y="448"/>
			<point x="120" y="448" type="curve" smooth="yes"/>
			<point x="140" y="448"/>
			<point x="147" y="432"/>
			<point x="164" y="320" type="curve" smooth="yes"/>
			<point x="176" y="240"/>
			<point x="192" y="84"/>
		</contour>
	</outline>
	<anchor name="aboveLC" x="337" y="528"/>
	<anchor name="belowLC" x="18" y="-245"/>
</glyph>
<glyph name="z" format="2">
	<unicode hex="007A"/>
	<advance width="544"/>
	<outline>
		<contour>
			<point x="332" y="-24" type="curve" smooth="yes"/>
			<point x="428" y="-24"/>
			<point x="488" y="56"/>
			<point x="488" y="136" type="curve" smooth="yes"/>
			<point x="488" y="188"/>
			<point x="460" y="212"/>
			<point x="440" y="220" type="curve"/>
			<point x="416" y="216"/>
			<point x="380" y="196"/>
			<point x="380" y="152" type="curve" smooth="yes"/>
			<point x="380" y="116"/>
			<point x="412" y="96"/>
			<point x="448" y="92" type="curve"/>
			<point x="448" y="52" type="line"/>
			<point x="456" y="68" type="line"/>
			<point x="432" y="62"/>
			<point x="404" y="56"/>
			<point x="356" y="56" type="curve" smooth="yes"/>
			<point x="292" y="56"/>
			<point x="228" y="76"/>
			<point x="140" y="148" type="curve"/>
			<point x="124" y="132" type="line"/>
			<point x="172" y="28"/>
			<point x="244" y="-24"/>
		</contour>
		<contour>
			<point x="112" y="0" type="line"/>
			<point x="148" y="100" type="line"/>
			<point x="244" y="204"/>
			<point x="320" y="264"/>
			<point x="424" y="368" type="curve" smooth="yes"/>
			<point x="480" y="424"/>
			<point x="504" y="464"/>
			<point x="520" y="504" type="curve"/>
			<point x="488" y="520" type="line"/>
			<point x="428" y="508" type="line"/>
			<point x="392" y="408" type="line"/>
			<point x="296" y="304"/>
			<point x="220" y="244"/>
			<point x="116" y="140" type="curve" smooth="yes"/>
			<point x="60" y="84"/>
			<point x="36" y="44"/>
			<point x="20" y="4" type="curve"/>
			<point x="52" y="-12" type="line"/>
		</contour>
		<contour>
			<point x="76" y="328" type="line"/>
			<point x="120" y="328" type="line"/>
			<point x="184" y="488" type="line"/>
			<point x="128" y="436" type="line"/>
			<point x="236" y="428"/>
			<point x="324" y="404"/>
			<point x="408" y="368" type="curve"/>
			<point x="432" y="392" type="line"/>
			<point x="364" y="472"/>
			<point x="276" y="504"/>
			<point x="176" y="520" type="curve"/>
			<point x="88" y="460" type="line"/>
		</contour>
	</outline>
	<anchor name="aboveLC" x="315" y="542"/>
	<anchor name="belowLC" x="173" y="-22"/>
</glyph>
<glyph name="bar" format="2">
	<unicode hex="007C"/>
	<advance width="240"/>
	<outline>
		<contour>
			<point x="99" y="-212" type="line"/>
			<point x="163" y="-212" type="line"/>
			<point x="163" y="740" type="line"/>
			<point x="99" y="740" type="line"/>
		</contour>
	</outline>
</glyph>
<glyph name="asciitilde" format="2">
	<unicode hex="007E"/>
	<advance width="538"/>
	<outline>
		<contour>
			<point x="317" y="372" type="curve" smooth="yes"/>
			<point x="278" y="398"/>
			<point x="245" y="416"/>
			<point x="197" y="416" type="curve" smooth="yes"/>
			<point x="133" y="416"/>
			<point x="89" y="376"/>
			<point x="77" y="290" type="curve"/>
			<point x="133" y="280" type="line"/>
			<point x="141" y="328"/>
			<point x="157" y="348"/>
			<point x="193" y="348" type="curve" smooth="yes"/>
			<point x="225" y="348"/>
			<point x="248" y="336"/>
			<point x="277" y="316" type="curve" smooth="yes"/>
			<point x="316" y="290"/>
			<point x="349" y="272"/>
			<point x="397" y="272" type="curve" smooth="yes"/>
			<point x="461" y="272"/>
			<point x="505" y="312"/>
			<point x="517" y="398" type="curve"/>
			<point x="461" y="408" type="line"/>
			<point x="453" y="360"/>
			<point x="437" y="340"/>
			<point x="401" y="340" type="curve" smooth="yes"/>
			<point x="369" y="340"/>
			<point x="346" y="352"/>
		</contour>
	</outline>
</glyph>
<glyph name="cent" format="2">
	<unicode hex="00A2"/>
	<advance width="536"/>
	<outline>
		<contour>
			<point x="86" y="248" type="curve" smooth="yes"/>
			<point x="86" y="120"/>
			<point x="158" y="56"/>
			<point x="258" y="56" type="curve" smooth="yes"/>
			<point x="358" y="56"/>
			<point x="414" y="116"/>
			<point x="446" y="168" type="curve"/>
			<point x="414" y="196" type="line"/>
			<point x="374" y="156"/>
			<point x="342" y="124"/>
			<point x="290" y="124" type="curve" smooth="yes"/>
			<point x="222" y="124"/>
			<point x="174" y="168"/>
			<point x="174" y="256" type="curve" smooth="yes"/>
			<point x="174" y="376"/>
			<point x="238" y="512"/>
			<point x="370" y="512" type="curve" smooth="yes"/>
			<point x="402" y="512"/>
			<point x="426" y="508"/>
			<point x="442" y="504" type="curve"/>
			<point x="394" y="532" type="line"/>
			<point x="410" y="452" type="line" smooth="yes"/>
			<point x="418" y="412"/>
			<point x="434" y="396"/>
			<point x="462" y="396" type="curve" smooth="yes"/>
			<point x="490" y="396"/>
			<point x="506" y="416"/>
			<point x="510" y="440" type="curve"/>
			<point x="502" y="504"/>
			<point x="450" y="560"/>
			<point x="346" y="560" type="curve" smooth="yes"/>
			<point x="206" y="560"/>
			<point x="86" y="416"/>
		</contour>
		<contour>
			<point x="262" y="-44" type="line"/>
			<point x="398" y="660" type="line"/>
			<point x="350" y="660" type="line"/>
			<point x="214" y="-44" type="line"/>
		</contour>
	</outline>
</glyph>
<glyph name="sterling" format="2">
	<unicode hex="00A3"/>
	<advance width="510"/>
	<outline>
		<contour>
			<point x="3" y="0" type="line"/>
			<point x="412" y="0" type="line"/>
			<point x="428" y="80" type="line"/>
			<point x="75" y="80" type="line"/>
			<point x="75" y="64" type="line"/>
			<point x="174" y="126"/>
			<point x="242" y="216"/>
			<point x="242" y="309" type="curve" smooth="yes"/>
			<point x="242" y="361"/>
			<point x="216" y="392"/>
			<point x="216" y="474" type="curve" smooth="yes"/>
			<point x="216" y="546"/>
			<point x="264" y="615"/>
			<point x="351" y="615" type="curve" smooth="yes"/>
			<point x="383" y="615"/>
			<point x="417" y="611"/>
			<point x="457" y="593" type="curve"/>
			<point x="397" y="624" type="line"/>
			<point x="399" y="595"/>
			<point x="402" y="565"/>
			<point x="404" y="536" type="curve" smooth="yes"/>
			<point x="408" y="486"/>
			<point x="423" y="470"/>
			<point x="454" y="470" type="curve" smooth="yes"/>
			<point x="471" y="470"/>
			<point x="486" y="479"/>
			<point x="498" y="500" type="curve"/>
			<point x="498" y="607"/>
			<point x="439" y="660"/>
			<point x="335" y="660" type="curve" smooth="yes"/>
			<point x="215" y="660"/>
			<point x="131" y="575"/>
			<point x="131" y="478" type="curve" smooth="yes"/>
			<point x="131" y="406"/>
			<point x="179" y="362"/>
			<point x="179" y="307" type="curve" smooth="yes"/>
			<point x="179" y="205"/>
			<point x="113" y="120"/>
			<point x="15" y="57" type="curve"/>
		</contour>
		<contour>
			<point x="67" y="285" type="line"/>
			<point x="373" y="285" type="line"/>
			<point x="383" y="335" type="line"/>
			<point x="77" y="335" type="line"/>
		</contour>
	</outline>
</glyph>
<glyph name="yen" format="2">
	<unicode hex="00A5"/>
	<advance width="536"/>
	<outline>
		<contour>
			<point x="242" y="276" type="line"/>
			<point x="330" y="276" type="line"/>
			<point x="564" y="648" type="line"/>
			<point x="498" y="648" type="line"/>
			<point x="318" y="344" type="line"/>
			<point x="306" y="344" type="line"/>
			<point x="240" y="648" type="line"/>
			<point x="140" y="648" type="line"/>
		</contour>
		<contour>
			<point x="96" y="0" type="line"/>
			<point x="378" y="0" type="line"/>
			<point x="388" y="60" type="line"/>
			<point x="260" y="60" type="line"/>
			<point x="232" y="60" type="line"/>
			<point x="106" y="60" type="line"/>
		</contour>
		<contour>
			<point x="92" y="588" type="line"/>
			<point x="196" y="588" type="line"/>
			<point x="228" y="588" type="line"/>
			<point x="320" y="588" type="line"/>
			<point x="330" y="648" type="line"/>
			<point x="102" y="648" type="line"/>
		</contour>
		<contour>
			<point x="394" y="588" type="line"/>
			<point x="480" y="588" type="line"/>
			<point x="508" y="588" type="line"/>
			<point x="586" y="588" type="line"/>
			<point x="596" y="648" type="line"/>
			<point x="404" y="648" type="line"/>
		</contour>
		<contour>
			<point x="70" y="144" type="line"/>
			<point x="454" y="144" type="line"/>
			<point x="462" y="192" type="line"/>
			<point x="78" y="192" type="line"/>
		</contour>
		<contour>
			<point x="90" y="268" type="line"/>
			<point x="474" y="268" type="line"/>
			<point x="482" y="316" type="line"/>
			<point x="98" y="316" type="line"/>
		</contour>
		<contour>
			<point x="188" y="0" type="line"/>
			<point x="284" y="0" type="line"/>
			<point x="340" y="312" type="line"/>
			<point x="244" y="312" type="line"/>
		</contour>
	</outline>
</glyph>
<glyph name="brokenbar" format="2">
	<unicode hex="00A6"/>
	<advance width="240"/>
	<outline>
		<contour>
			<point x="99" y="-212" type="line"/>
			<point x="163" y="-212" type="line"/>
			<point x="163" y="196" type="line"/>
			<point x="99" y="196" type="line"/>
		</contour>
		<contour>
			<point x="163" y="332" type="line"/>
			<point x="163" y="740" type="line"/>
			<point x="99" y="740" type="line"/>
			<point x="99" y="332" type="line"/>
		</contour>
	</outline>
</glyph>
<glyph name="section" format="2">
	<unicode hex="00A7"/>
	<advance width="464"/>
	<outline>
		<contour>
			<point x="160" y="-108" type="curve" smooth="yes"/>
			<point x="260" y="-108"/>
			<point x="332" y="-56"/>
			<point x="332" y="32" type="curve" smooth="yes"/>
			<point x="332" y="104"/>
			<point x="292" y="144"/>
			<point x="220" y="192" type="curve" smooth="yes"/>
			<point x="196" y="208" type="line" smooth="yes"/>
			<point x="148" y="240"/>
			<point x="128" y="264"/>
			<point x="128" y="304" type="curve" smooth="yes"/>
			<point x="128" y="352"/>
			<point x="172" y="408"/>
			<point x="284" y="416" type="curve"/>
			<point x="268" y="440" type="line"/>
			<point x="132" y="432"/>
			<point x="56" y="368"/>
			<point x="56" y="280" type="curve" smooth="yes"/>
			<point x="56" y="208"/>
			<point x="96" y="172"/>
			<point x="168" y="124" type="curve" smooth="yes"/>
			<point x="192" y="108" type="line" smooth="yes"/>
			<point x="240" y="76"/>
			<point x="260" y="54"/>
			<point x="260" y="10" type="curve" smooth="yes"/>
			<point x="260" y="-34"/>
			<point x="224" y="-68"/>
			<point x="152" y="-68" type="curve" smooth="yes"/>
			<point x="100" y="-68"/>
			<point x="72" y="-60"/>
			<point x="52" y="-52" type="curve"/>
			<point x="108" y="-88" type="line"/>
			<point x="96" y="-16" type="line" smooth="yes"/>
			<point x="90" y="18"/>
			<point x="76" y="32"/>
			<point x="52" y="32" type="curve" smooth="yes"/>
			<point x="28" y="32"/>
			<point x="16" y="16"/>
			<point x="12" y="0" type="curve"/>
			<point x="20" y="-56"/>
			<point x="64" y="-108"/>
		</contour>
		<contour>
			<point x="316" y="688" type="curve" smooth="yes"/>
			<point x="224" y="688"/>
			<point x="156" y="636"/>
			<point x="156" y="548" type="curve" smooth="yes"/>
			<point x="156" y="476"/>
			<point x="196" y="436"/>
			<point x="268" y="388" type="curve" smooth="yes"/>
			<point x="292" y="372" type="line" smooth="yes"/>
			<point x="340" y="340"/>
			<point x="360" y="316"/>
			<point x="360" y="276" type="curve" smooth="yes"/>
			<point x="360" y="228"/>
			<point x="316" y="172"/>
			<point x="204" y="164" type="curve"/>
			<point x="220" y="140" type="line"/>
			<point x="356" y="148"/>
			<point x="432" y="212"/>
			<point x="432" y="300" type="curve" smooth="yes"/>
			<point x="432" y="372"/>
			<point x="392" y="408"/>
			<point x="320" y="456" type="curve" smooth="yes"/>
			<point x="296" y="472" type="line" smooth="yes"/>
			<point x="248" y="504"/>
			<point x="228" y="526"/>
			<point x="228" y="570" type="curve" smooth="yes"/>
			<point x="228" y="614"/>
			<point x="262" y="648"/>
			<point x="332" y="648" type="curve" smooth="yes"/>
			<point x="376" y="648"/>
			<point x="402" y="644"/>
			<point x="420" y="640" type="curve"/>
			<point x="356" y="668" type="line"/>
			<point x="368" y="620" type="line" smooth="yes"/>
			<point x="378" y="578"/>
			<point x="396" y="564"/>
			<point x="420" y="564" type="curve" smooth="yes"/>
			<point x="444" y="564"/>
			<point x="456" y="580"/>
			<point x="460" y="596" type="curve"/>
			<point x="452" y="644"/>
			<point x="410" y="688"/>
		</contour>
	</outline>
</glyph>
<glyph name="copyright" format="2">
	<unicode hex="00A9"/>
	<advance width="820"/>
	<outline>
		<contour>
			<point x="404" y="-16" type="curve" smooth="yes"/>
			<point x="606" y="-16"/>
			<point x="786" y="130"/>
			<point x="786" y="376" type="curve" smooth="yes"/>
			<point x="786" y="570"/>
			<point x="658" y="686"/>
			<point x="464" y="686" type="curve" smooth="yes"/>
			<point x="266" y="686"/>
			<point x="86" y="542"/>
			<point x="86" y="296" type="curve" smooth="yes"/>
			<point x="86" y="102"/>
			<point x="214" y="-16"/>
		</contour>
		<contour>
			<point x="406" y="26" type="curve" smooth="yes"/>
			<point x="242" y="26"/>
			<point x="136" y="129"/>
			<point x="136" y="298" type="curve" smooth="yes"/>
			<point x="136" y="514"/>
			<point x="294" y="644"/>
			<point x="462" y="644" type="curve" smooth="yes"/>
			<point x="630" y="644"/>
			<point x="736" y="543"/>
			<point x="736" y="374" type="curve" smooth="yes"/>
			<point x="736" y="158"/>
			<point x="578" y="26"/>
		</contour>
		<contour>
			<point x="438" y="136" type="curve" smooth="yes"/>
			<point x="486" y="136"/>
			<point x="514" y="144"/>
			<point x="534" y="152" type="curve"/>
			<point x="550" y="264" type="line"/>
			<point x="506" y="264" type="line"/>
			<point x="474" y="172" type="line"/>
			<point x="526" y="192" type="line"/>
			<point x="502" y="184"/>
			<point x="486" y="180"/>
			<point x="454" y="180" type="curve" smooth="yes"/>
			<point x="378" y="180"/>
			<point x="326" y="220"/>
			<point x="326" y="312" type="curve" smooth="yes"/>
			<point x="326" y="420"/>
			<point x="386" y="496"/>
			<point x="482" y="496" type="curve" smooth="yes"/>
			<point x="526" y="496"/>
			<point x="550" y="488"/>
			<point x="562" y="480" type="curve"/>
			<point x="514" y="518" type="line"/>
			<point x="526" y="412" type="line"/>
			<point x="570" y="412" type="line"/>
			<point x="578" y="522" type="line"/>
			<point x="562" y="528"/>
			<point x="534" y="538"/>
			<point x="478" y="538" type="curve" smooth="yes"/>
			<point x="350" y="538"/>
			<point x="258" y="444"/>
			<point x="258" y="308" type="curve" smooth="yes"/>
			<point x="258" y="188"/>
			<point x="338" y="136"/>
		</contour>
	</outline>
</glyph>
<glyph name="logicalnot" format="2">
	<unicode hex="00AC"/>
	<advance width="538"/>
	<outline>
		<contour>
			<point x="44" y="334" type="line"/>
			<point x="468" y="334" type="line"/>
			<point x="448" y="364" type="line"/>
			<point x="448" y="140" type="line"/>
			<point x="518" y="140" type="line"/>
			<point x="518" y="400" type="line"/>
			<point x="44" y="400" type="line"/>
		</contour>
	</outline>
</glyph>
<glyph name="registered" format="2">
	<unicode hex="00AE"/>
	<advance width="492"/>
	<outline>
		<contour>
			<point x="376" y="416" type="curve"/>
			<point x="380" y="440" type="line"/>
			<point x="324" y="440" type="line"/>
			<point x="358" y="424" type="line"/>
			<point x="341" y="484" type="line" smooth="yes"/>
			<point x="336" y="502"/>
			<point x="324" y="509"/>
			<point x="296" y="510" type="curve"/>
			<point x="296" y="518" type="line"/>
			<point x="342" y="520"/>
			<point x="376" y="534"/>
			<point x="376" y="571" type="curve" smooth="yes"/>
			<point x="376" y="602"/>
			<point x="348" y="620"/>
			<point x="304" y="620" type="curve" smooth="yes"/>
			<point x="272" y="620" type="line"/>
			<point x="272" y="598" type="line"/>
			<point x="296" y="598" type="line" smooth="yes"/>
			<point x="320" y="598"/>
			<point x="332" y="588"/>
			<point x="332" y="567" type="curve" smooth="yes"/>
			<point x="332" y="542"/>
			<point x="316" y="527"/>
			<point x="288" y="527" type="curve" smooth="yes"/>
			<point x="256" y="527" type="line"/>
			<point x="256" y="505" type="line"/>
			<point x="272" y="505" type="line" smooth="yes"/>
			<point x="286" y="505"/>
			<point x="293" y="500"/>
			<point x="296" y="484" type="curve" smooth="yes"/>
			<point x="304" y="444" type="line" smooth="yes"/>
			<point x="308" y="422"/>
			<point x="322" y="412"/>
			<point x="348" y="412" type="curve" smooth="yes"/>
			<point x="362" y="412"/>
			<point x="370" y="414"/>
		</contour>
		<contour>
			<point x="176" y="416" type="line"/>
			<point x="274" y="416" type="line"/>
			<point x="279" y="440" type="line"/>
			<point x="240" y="440" type="line"/>
			<point x="216" y="440" type="line"/>
			<point x="181" y="440" type="line"/>
		</contour>
		<contour>
			<point x="214" y="596" type="line"/>
			<point x="248" y="596" type="line"/>
			<point x="252" y="596" type="line"/>
			<point x="252" y="620" type="line"/>
			<point x="219" y="620" type="line"/>
		</contour>
		<contour>
			<point x="268" y="316" type="curve" smooth="yes"/>
			<point x="384" y="316"/>
			<point x="484" y="400"/>
			<point x="484" y="538" type="curve" smooth="yes"/>
			<point x="484" y="644"/>
			<point x="408" y="712"/>
			<point x="304" y="712" type="curve" smooth="yes"/>
			<point x="188" y="712"/>
			<point x="88" y="628"/>
			<point x="88" y="490" type="curve" smooth="yes"/>
			<point x="88" y="384"/>
			<point x="164" y="316"/>
		</contour>
		<contour>
			<point x="270" y="350" type="curve" smooth="yes"/>
			<point x="184" y="350"/>
			<point x="126" y="404"/>
			<point x="126" y="492" type="curve" smooth="yes"/>
			<point x="126" y="608"/>
			<point x="208" y="678"/>
			<point x="302" y="678" type="curve" smooth="yes"/>
			<point x="388" y="678"/>
			<point x="446" y="624"/>
			<point x="446" y="536" type="curve" smooth="yes"/>
			<point x="446" y="420"/>
			<point x="364" y="350"/>
		</contour>
		<contour>
			<point x="202" y="416" type="line"/>
			<point x="248" y="416" type="line"/>
			<point x="288" y="620" type="line"/>
			<point x="242" y="620" type="line"/>
		</contour>
	</outline>
</glyph>
<glyph name="plusminus" format="2">
	<unicode hex="00B1"/>
	<advance width="538"/>
	<outline>
		<contour>
			<point x="247" y="108" type="line"/>
			<point x="317" y="108" type="line"/>
			<point x="317" y="546" type="line"/>
			<point x="247" y="546" type="line"/>
		</contour>
		<contour>
			<point x="519" y="294" type="line"/>
			<point x="519" y="360" type="line"/>
			<point x="45" y="360" type="line"/>
			<point x="45" y="294" type="line"/>
		</contour>
		<contour>
			<point x="519" y="0" type="line"/>
			<point x="519" y="66" type="line"/>
			<point x="45" y="66" type="line"/>
			<point x="45" y="0" type="line"/>
		</contour>
	</outline>
</glyph>
<glyph name="two.sups" format="2">
	<unicode hex="00B2"/>
	<advance width="339"/>
	<outline>
		<contour>
			<point x="121" y="398" type="line"/>
			<point x="368" y="398" type="line"/>
			<point x="382" y="456" type="line"/>
			<point x="179" y="453" type="line"/>
			<point x="179" y="440" type="line"/>
			<point x="388" y="610"/>
			<point x="434" y="657"/>
			<point x="435" y="737" type="curve" smooth="yes"/>
			<point x="436" y="814"/>
			<point x="374" y="851"/>
			<point x="302" y="851" type="curve" smooth="yes"/>
			<point x="230" y="851"/>
			<point x="183" y="805"/>
			<point x="168" y="751" type="curve"/>
			<point x="171" y="734"/>
			<point x="183" y="716"/>
			<point x="206" y="716" type="curve" smooth="yes"/>
			<point x="226" y="716"/>
			<point x="251" y="729"/>
			<point x="251" y="766" type="curve" smooth="yes"/>
			<point x="251" y="836" type="line"/>
			<point x="222" y="802" type="line"/>
			<point x="233" y="799"/>
			<point x="248" y="804"/>
			<point x="271" y="804" type="curve" smooth="yes"/>
			<point x="323" y="804"/>
			<point x="347" y="776"/>
			<point x="347" y="729" type="curve" smooth="yes"/>
			<point x="347" y="677"/>
			<point x="328" y="632"/>
			<point x="132" y="449" type="curve"/>
		</contour>
	</outline>
</glyph>
<glyph name="three.sups" format="2">
	<unicode hex="00B3"/>
	<advance width="389"/>
	<outline>
		<contour>
			<point x="260" y="398" type="curve" smooth="yes"/>
			<point x="362" y="397"/>
			<point x="432" y="440"/>
			<point x="431" y="517" type="curve" smooth="yes"/>
			<point x="431" y="584"/>
			<point x="386" y="614"/>
			<point x="319" y="623" type="curve"/>
			<point x="319" y="633" type="line"/>
			<point x="400" y="642"/>
			<point x="455" y="674"/>
			<point x="455" y="743" type="curve" smooth="yes"/>
			<point x="455" y="803"/>
			<point x="407" y="842"/>
			<point x="326" y="842" type="curve" smooth="yes"/>
			<point x="239" y="842"/>
			<point x="193" y="800"/>
			<point x="184" y="743" type="curve"/>
			<point x="192" y="729"/>
			<point x="202" y="716"/>
			<point x="224" y="716" type="curve" smooth="yes"/>
			<point x="247" y="715"/>
			<point x="265" y="728"/>
			<point x="268" y="763" type="curve" smooth="yes"/>
			<point x="273" y="827" type="line"/>
			<point x="253" y="802" type="line"/>
			<point x="260" y="798"/>
			<point x="275" y="802"/>
			<point x="298" y="802" type="curve" smooth="yes"/>
			<point x="347" y="802"/>
			<point x="381" y="783"/>
			<point x="381" y="734" type="curve" smooth="yes"/>
			<point x="382" y="679"/>
			<point x="337" y="654"/>
			<point x="256" y="654" type="curve"/>
			<point x="244" y="605" type="line"/>
			<point x="323" y="605"/>
			<point x="353" y="576"/>
			<point x="353" y="526" type="curve" smooth="yes"/>
			<point x="354" y="477"/>
			<point x="323" y="439"/>
			<point x="257" y="439" type="curve" smooth="yes"/>
			<point x="217" y="439"/>
			<point x="200" y="444"/>
			<point x="174" y="451" type="curve"/>
			<point x="218" y="420" type="line"/>
			<point x="218" y="482" type="line" smooth="yes"/>
			<point x="218" y="517"/>
			<point x="200" y="533"/>
			<point x="173" y="533" type="curve" smooth="yes"/>
			<point x="150" y="533"/>
			<point x="138" y="522"/>
			<point x="133" y="499" type="curve"/>
			<point x="140" y="440"/>
			<point x="175" y="399"/>
		</contour>
	</outline>
</glyph>
<glyph name="paragraph" format="2">
	<unicode hex="00B6"/>
	<advance width="596"/>
	<outline>
		<contour>
			<point x="530" y="672" type="line"/>
			<point x="519" y="608" type="line"/>
			<point x="534" y="608" type="line"/>
			<point x="632" y="608" type="line"/>
			<point x="643" y="672" type="line"/>
		</contour>
		<contour>
			<point x="397" y="180" type="line"/>
			<point x="341" y="-132" type="line"/>
			<point x="415" y="-132" type="line"/>
			<point x="471" y="180" type="line"/>
			<point x="504" y="360" type="line"/>
			<point x="560" y="672" type="line"/>
			<point x="486" y="672" type="line"/>
		</contour>
		<contour>
			<point x="393" y="608" type="line"/>
			<point x="504" y="608" type="line"/>
			<point x="515" y="672" type="line"/>
			<point x="419" y="672" type="line" smooth="yes"/>
			<point x="204" y="672"/>
			<point x="72" y="548"/>
			<point x="72" y="380" type="curve" smooth="yes"/>
			<point x="72" y="228"/>
			<point x="180" y="164"/>
			<point x="309" y="148" type="curve"/>
		</contour>
	</outline>
</glyph>
<glyph name="one.sups" format="2">
	<unicode hex="00B9"/>
	<advance width="234"/>
	<outline>
		<contour>
			<point x="295" y="398" type="line"/>
			<point x="303" y="448" type="line"/>
			<point x="206" y="448" type="line"/>
			<point x="184" y="448" type="line"/>
			<point x="90" y="448" type="line"/>
			<point x="82" y="398" type="line"/>
		</contour>
		<contour>
			<point x="227" y="398" type="line"/>
			<point x="299" y="743" type="line"/>
			<point x="319" y="838" type="line"/>
			<point x="298" y="838" type="line"/>
			<point x="157" y="801" type="line"/>
			<point x="151" y="754" type="line"/>
			<point x="258" y="760" type="line"/>
			<point x="229" y="805" type="line"/>
			<point x="145" y="398" type="line"/>
		</contour>
	</outline>
</glyph>
<glyph name="AE" format="2">
	<unicode hex="00C6"/>
	<advance width="944"/>
	<outline>
		<contour>
			<point x="499" y="0" type="line"/>
			<point x="856" y="0" type="line"/>
			<point x="896" y="188" type="line"/>
			<point x="836" y="188" type="line"/>
			<point x="760" y="16" type="line"/>
			<point x="832" y="60" type="line"/>
			<point x="499" y="60" type="line"/>
		</contour>
		<contour>
			<point x="852" y="492" type="line"/>
			<point x="916" y="492" type="line"/>
			<point x="944" y="670" type="line"/>
			<point x="599" y="670" type="line"/>
			<point x="599" y="610" type="line"/>
			<point x="884" y="610" type="line"/>
			<point x="852" y="634" type="line"/>
		</contour>
		<contour>
			<point x="-22" y="0" type="line"/>
			<point x="208" y="0" type="line"/>
			<point x="220" y="60" type="line"/>
			<point x="111" y="60" type="line"/>
			<point x="91" y="60" type="line"/>
			<point x="-10" y="60" type="line"/>
		</contour>
		<contour>
			<point x="427" y="0" type="line"/>
			<point x="523" y="0" type="line"/>
			<point x="542" y="104"/>
			<point x="560" y="208"/>
			<point x="579" y="312" type="curve" smooth="yes"/>
			<point x="643" y="670" type="line"/>
			<point x="547" y="670" type="line"/>
			<point x="528" y="566"/>
			<point x="510" y="464"/>
			<point x="491" y="360" type="curve" smooth="yes"/>
		</contour>
		<contour>
			<point x="712" y="224" type="line"/>
			<point x="768" y="224" type="line"/>
			<point x="810" y="460" type="line"/>
			<point x="754" y="460" type="line"/>
			<point x="716" y="354" type="line"/>
			<point x="712" y="330" type="line"/>
		</contour>
		<contour>
			<point x="338" y="0" type="line"/>
			<point x="471" y="0" type="line"/>
			<point x="471" y="60" type="line"/>
			<point x="455" y="60" type="line"/>
			<point x="350" y="60" type="line"/>
		</contour>
		<contour>
			<point x="366" y="610" type="line"/>
			<point x="559" y="610" type="line"/>
			<point x="575" y="610" type="line"/>
			<point x="575" y="670" type="line"/>
			<point x="378" y="670" type="line"/>
		</contour>
		<contour>
			<point x="23" y="0" type="line"/>
			<point x="99" y="0" type="line"/>
			<point x="278" y="261" type="line"/>
			<point x="549" y="670" type="line"/>
			<point x="491" y="670" type="line"/>
		</contour>
		<contour>
			<point x="239" y="236" type="line"/>
			<point x="521" y="236" type="line"/>
			<point x="521" y="288" type="line"/>
			<point x="239" y="288" type="line"/>
		</contour>
		<contour>
			<point x="539" y="314" type="line"/>
			<point x="757" y="314" type="line"/>
			<point x="757" y="370" type="line"/>
			<point x="539" y="370" type="line"/>
		</contour>
	</outline>
	<anchor name="aboveUC" x="689" y="690"/>
</glyph>
<glyph name="Idieresis" format="2">
	<unicode hex="00CF"/>
	<advance width="372"/>
	<outline>
		<contour>
			<point x="201" y="744" type="curve" smooth="yes"/>
			<point x="237" y="744"/>
			<point x="262" y="775"/>
			<point x="262" y="807" type="curve" smooth="yes"/>
			<point x="262" y="835"/>
			<point x="241" y="856"/>
			<point x="211" y="856" type="curve" smooth="yes"/>
			<point x="174" y="856"/>
			<point x="150" y="824"/>
			<point x="150" y="793" type="curve" smooth="yes"/>
			<point x="150" y="765"/>
			<point x="171" y="744"/>
		</contour>
		<contour>
			<point x="377" y="744" type="curve" smooth="yes"/>
			<point x="413" y="744"/>
			<point x="438" y="775"/>
			<point x="438" y="807" type="curve" smooth="yes"/>
			<point x="438" y="835"/>
			<point x="417" y="856"/>
			<point x="387" y="856" type="curve" smooth="yes"/>
			<point x="350" y="856"/>
			<point x="326" y="824"/>
			<point x="326" y="793" type="curve" smooth="yes"/>
			<point x="326" y="765"/>
			<point x="347" y="744"/>
		</contour>
		<component base="I"/>
	</outline>
</glyph>
<glyph name="Eth" format="2">
	<unicode hex="00D0"/>
	<advance width="744"/>
	<outline>
		<contour>
			<point x="420" y="318" type="line"/>
			<point x="428" y="370" type="line"/>
			<point x="72" y="370" type="line"/>
			<point x="64" y="318" type="line"/>
		</contour>
		<component base="D"/>
	</outline>
</glyph>
<glyph name="Oslash" format="2">
	<unicode hex="00D8"/>
	<advance width="720"/>
	<outline>
		<contour>
			<point x="708" y="652" type="line"/>
			<point x="672" y="688" type="line"/>
			<point x="12" y="20" type="line"/>
			<point x="48" y="-16" type="line"/>
		</contour>
		<component base="O"/>
	</outline>
	<anchor name="aboveUC" x="417" y="691"/>
</glyph>
<glyph name="Thorn" format="2">
	<unicode hex="00DE"/>
	<advance width="624"/>
	<outline>
		<contour>
			<point x="192" y="152" type="line"/>
			<point x="300" y="152" type="line" smooth="yes"/>
			<point x="484" y="152"/>
			<point x="588" y="244"/>
			<point x="588" y="368" type="curve" smooth="yes"/>
			<point x="588" y="472"/>
			<point x="504" y="536"/>
			<point x="352" y="536" type="curve" smooth="yes"/>
			<point x="264" y="536" type="line"/>
			<point x="264" y="476" type="line"/>
			<point x="344" y="476" type="line" smooth="yes"/>
			<point x="440" y="476"/>
			<point x="488" y="436"/>
			<point x="488" y="364" type="curve" smooth="yes"/>
			<point x="488" y="268"/>
			<point x="428" y="208"/>
			<point x="300" y="208" type="curve" smooth="yes"/>
			<point x="192" y="208" type="line"/>
		</contour>
		<contour>
			<point x="16" y="0" type="line"/>
			<point x="294" y="0" type="line"/>
			<point x="304" y="56" type="line"/>
			<point x="176" y="56" type="line"/>
			<point x="148" y="60" type="line"/>
			<point x="26" y="60" type="line"/>
		</contour>
		<contour>
			<point x="104" y="0" type="line"/>
			<point x="200" y="0" type="line"/>
			<point x="256" y="312" type="line"/>
			<point x="320" y="672" type="line"/>
			<point x="224" y="672" type="line"/>
			<point x="168" y="360" type="line"/>
		</contour>
		<contour>
			<point x="120" y="612" type="line"/>
			<point x="248" y="612" type="line"/>
			<point x="276" y="616" type="line"/>
			<point x="398" y="616" type="line"/>
			<point x="408" y="672" type="line"/>
			<point x="130" y="672" type="line"/>
		</contour>
	</outline>
</glyph>
<glyph name="germandbls" format="2">
	<unicode hex="00DF"/>
	<advance width="592"/>
	<outline>
		<contour>
			<point x="116" y="333"/>
			<point x="96" y="203"/>
			<point x="76" y="72" type="curve" smooth="yes"/>
			<point x="59" y="-36"/>
			<point x="44" y="-96"/>
			<point x="24" y="-136" type="curve" smooth="yes"/>
			<point x="12" y="-160"/>
			<point x="-4" y="-184"/>
			<point x="-12" y="-192" type="curve"/>
			<point x="-64" y="-192" type="line"/>
			<point x="-24" y="-216" type="line"/>
			<point x="-52" y="-168" type="line" smooth="yes"/>
			<point x="-68" y="-140"/>
			<point x="-88" y="-120"/>
			<point x="-124" y="-120" type="curve" smooth="yes"/>
			<point x="-156" y="-120"/>
			<point x="-172" y="-140"/>
			<point x="-176" y="-160" type="curve"/>
			<point x="-168" y="-188"/>
			<point x="-136" y="-224"/>
			<point x="-64" y="-224" type="curve" smooth="yes"/>
			<point x="8" y="-224"/>
			<point x="52" y="-184"/>
			<point x="84" y="-144" type="curve" smooth="yes"/>
			<point x="116" y="-104"/>
			<point x="144" y="-52"/>
			<point x="164" y="72" type="curve" smooth="yes"/>
			<point x="187" y="209"/>
			<point x="209" y="347"/>
			<point x="232" y="484" type="curve" smooth="yes"/>
			<point x="256" y="628"/>
			<point x="304" y="708"/>
			<point x="400" y="708" type="curve" smooth="yes"/>
			<point x="456" y="708"/>
			<point x="488" y="676"/>
			<point x="488" y="628" type="curve" smooth="yes"/>
			<point x="488" y="580"/>
			<point x="464" y="536"/>
			<point x="424" y="500" type="curve" smooth="yes"/>
			<point x="384" y="464"/>
			<point x="320" y="416"/>
			<point x="320" y="336" type="curve" smooth="yes"/>
			<point x="320" y="284"/>
			<point x="348" y="248"/>
			<point x="392" y="208" type="curve" smooth="yes"/>
			<point x="436" y="168"/>
			<point x="448" y="148"/>
			<point x="448" y="112" type="curve" smooth="yes"/>
			<point x="448" y="64"/>
			<point x="416" y="32"/>
			<point x="356" y="32" type="curve" smooth="yes"/>
			<point x="334" y="32"/>
			<point x="325" y="33"/>
			<point x="304" y="40" type="curve"/>
			<point x="332" y="24" type="line"/>
			<point x="324" y="84" type="line" smooth="yes"/>
			<point x="320" y="116"/>
			<point x="304" y="132"/>
			<point x="276" y="132" type="curve" smooth="yes"/>
			<point x="248" y="132"/>
			<point x="232" y="112"/>
			<point x="228" y="92" type="curve"/>
			<point x="236" y="40"/>
			<point x="288" y="-12"/>
			<point x="372" y="-12" type="curve" smooth="yes"/>
			<point x="464" y="-12"/>
			<point x="540" y="44"/>
			<point x="540" y="128" type="curve" smooth="yes"/>
			<point x="540" y="188"/>
			<point x="508" y="228"/>
			<point x="464" y="268" type="curve" smooth="yes"/>
			<point x="420" y="308"/>
			<point x="396" y="328"/>
			<point x="396" y="368" type="curve" smooth="yes"/>
			<point x="396" y="408"/>
			<point x="416" y="440"/>
			<point x="472" y="484" type="curve" smooth="yes"/>
			<point x="528" y="528"/>
			<point x="572" y="572"/>
			<point x="572" y="632" type="curve" smooth="yes"/>
			<point x="572" y="708"/>
			<point x="504" y="752"/>
			<point x="408" y="752" type="curve" smooth="yes"/>
			<point x="272" y="752"/>
			<point x="168" y="676"/>
			<point x="136" y="464" type="curve" smooth="yes"/>
		</contour>
	</outline>
</glyph>
<glyph name="ae" format="2">
	<unicode hex="00E6"/>
	<advance width="735"/>
	<outline>
		<contour>
			<point x="143" y="-13" type="curve" smooth="yes"/>
			<point x="204" y="-13"/>
			<point x="279" y="46"/>
			<point x="343" y="129" type="curve"/>
			<point x="338" y="163" type="line"/>
			<point x="266" y="82"/>
			<point x="222" y="55"/>
			<point x="184" y="55" type="curve" smooth="yes"/>
			<point x="148" y="55"/>
			<point x="124" y="84"/>
			<point x="124" y="145" type="curve" smooth="yes"/>
			<point x="124" y="234"/>
			<point x="162" y="312"/>
			<point x="210" y="362" type="curve" smooth="yes"/>
			<point x="247" y="400"/>
			<point x="289" y="421"/>
			<point x="321" y="421" type="curve" smooth="yes"/>
			<point x="356" y="421"/>
			<point x="387" y="408"/>
			<point x="415" y="379" type="curve"/>
			<point x="456" y="414" type="line"/>
			<point x="432" y="457"/>
			<point x="401" y="487"/>
			<point x="356" y="487" type="curve" smooth="yes"/>
			<point x="228" y="487"/>
			<point x="48" y="278"/>
			<point x="48" y="104" type="curve" smooth="yes"/>
			<point x="48" y="22"/>
			<point x="95" y="-13"/>
		</contour>
		<component base="e" xOffset="263"/>
	</outline>
	<anchor name="aboveLC" x="458" y="506"/>
	<anchor name="belowLC" x="337" y="-22"/>
</glyph>
<glyph name="idieresis" format="2">
	<unicode hex="00EF"/>
	<advance width="320"/>
	<outline>
		<contour>
			<point x="132" y="625" type="curve" smooth="yes"/>
			<point x="162" y="625"/>
			<point x="187" y="649"/>
			<point x="187" y="683" type="curve" smooth="yes"/>
			<point x="187" y="708"/>
			<point x="168" y="727"/>
			<point x="142" y="727" type="curve" smooth="yes"/>
			<point x="114" y="727"/>
			<point x="87" y="704"/>
			<point x="87" y="670" type="curve" smooth="yes"/>
			<point x="87" y="642"/>
			<point x="108" y="625"/>
		</contour>
		<contour>
			<point x="327" y="625" type="curve" smooth="yes"/>
			<point x="357" y="625"/>
			<point x="382" y="649"/>
			<point x="382" y="683" type="curve" smooth="yes"/>
			<point x="382" y="708"/>
			<point x="363" y="727"/>
			<point x="337" y="727" type="curve" smooth="yes"/>
			<point x="310" y="727"/>
			<point x="283" y="704"/>
			<point x="283" y="670" type="curve" smooth="yes"/>
			<point x="283" y="642"/>
			<point x="304" y="625"/>
		</contour>
		<component base="dotlessi"/>
	</outline>
</glyph>
<glyph name="eth" format="2">
	<unicode hex="00F0"/>
	<advance width="548"/>
	<outline>
		<contour>
			<point x="228" y="-12" type="curve" smooth="yes"/>
			<point x="372" y="-12"/>
			<point x="500" y="112"/>
			<point x="500" y="360" type="curve" smooth="yes"/>
			<point x="500" y="568"/>
			<point x="372" y="688"/>
			<point x="232" y="752" type="curve"/>
			<point x="204" y="716" type="line"/>
			<point x="332" y="648"/>
			<point x="404" y="536"/>
			<point x="428" y="368" type="curve"/>
			<point x="412" y="368" type="line"/>
			<point x="404" y="432"/>
			<point x="364" y="484"/>
			<point x="284" y="484" type="curve" smooth="yes"/>
			<point x="156" y="484"/>
			<point x="44" y="360"/>
			<point x="44" y="184" type="curve" smooth="yes"/>
			<point x="44" y="48"/>
			<point x="124" y="-12"/>
		</contour>
		<contour>
			<point x="236" y="40" type="curve" smooth="yes"/>
			<point x="172" y="40"/>
			<point x="140" y="80"/>
			<point x="140" y="176" type="curve" smooth="yes"/>
			<point x="140" y="320"/>
			<point x="204" y="432"/>
			<point x="300" y="432" type="curve" smooth="yes"/>
			<point x="364" y="432"/>
			<point x="396" y="392"/>
			<point x="396" y="296" type="curve" smooth="yes"/>
			<point x="396" y="152"/>
			<point x="332" y="40"/>
		</contour>
		<contour>
			<point x="216" y="544" type="line"/>
			<point x="504" y="704" type="line"/>
			<point x="484" y="740" type="line"/>
			<point x="196" y="580" type="line"/>
		</contour>
	</outline>
</glyph>
<glyph name="divide" format="2">
	<unicode hex="00F7"/>
	<advance width="537"/>
	<outline>
		<contour>
			<point x="268" y="64" type="curve" smooth="yes"/>
			<point x="307" y="64"/>
			<point x="338" y="90"/>
			<point x="338" y="132" type="curve" smooth="yes"/>
			<point x="338" y="174"/>
			<point x="307" y="200"/>
			<point x="268" y="200" type="curve" smooth="yes"/>
			<point x="229" y="200"/>
			<point x="198" y="174"/>
			<point x="198" y="132" type="curve" smooth="yes"/>
			<point x="198" y="90"/>
			<point x="229" y="64"/>
		</contour>
		<contour>
			<point x="268" y="454" type="curve" smooth="yes"/>
			<point x="307" y="454"/>
			<point x="338" y="480"/>
			<point x="338" y="522" type="curve" smooth="yes"/>
			<point x="338" y="564"/>
			<point x="307" y="590"/>
			<point x="268" y="590" type="curve" smooth="yes"/>
			<point x="229" y="590"/>
			<point x="198" y="564"/>
			<point x="198" y="522" type="curve" smooth="yes"/>
			<point x="198" y="480"/>
			<point x="229" y="454"/>
		</contour>
		<component base="minus"/>
	</outline>
</glyph>
<glyph name="oslash" format="2">
	<unicode hex="00F8"/>
	<advance width="564"/>
	<outline>
		<contour>
			<point x="544" y="488" type="line"/>
			<point x="512" y="520" type="line"/>
			<point x="20" y="20" type="line"/>
			<point x="52" y="-12" type="line"/>
		</contour>
		<component base="o"/>
	</outline>
	<anchor name="aboveLC" x="317" y="506"/>
</glyph>
<glyph name="thorn" format="2">
	<unicode hex="00FE"/>
	<advance width="584"/>
	<outline>
		<contour>
			<point x="-40" y="-212" type="line"/>
			<point x="218" y="-212" type="line"/>
			<point x="228" y="-160" type="line"/>
			<point x="104" y="-160" type="line"/>
			<point x="80" y="-160" type="line"/>
			<point x="-30" y="-160" type="line"/>
		</contour>
		<contour>
			<point x="36" y="-212" type="line"/>
			<point x="128" y="-212" type="line"/>
			<point x="168" y="40" type="line"/>
			<point x="180" y="40" type="line"/>
			<point x="248" y="364" type="line"/>
			<point x="232" y="364" type="line"/>
			<point x="320" y="740" type="line"/>
			<point x="280" y="740" type="line"/>
			<point x="112" y="716" type="line"/>
			<point x="112" y="668" type="line"/>
			<point x="248" y="652" type="line"/>
			<point x="220" y="692" type="line"/>
			<point x="176" y="476" type="line"/>
		</contour>
		<contour>
			<point x="232" y="-12" type="curve" smooth="yes"/>
			<point x="388" y="-12"/>
			<point x="536" y="166"/>
			<point x="536" y="370" type="curve" smooth="yes"/>
			<point x="536" y="474"/>
			<point x="484" y="520"/>
			<point x="418" y="520" type="curve" smooth="yes"/>
			<point x="348" y="520"/>
			<point x="312" y="472"/>
			<point x="264" y="380" type="curve"/>
			<point x="220" y="380" type="line"/>
			<point x="220" y="284" type="line"/>
			<point x="304" y="416"/>
			<point x="340" y="448"/>
			<point x="380" y="448" type="curve" smooth="yes"/>
			<point x="420" y="448"/>
			<point x="440" y="414"/>
			<point x="440" y="350" type="curve" smooth="yes"/>
			<point x="440" y="274"/>
			<point x="416" y="192"/>
			<point x="392" y="144" type="curve" smooth="yes"/>
			<point x="368" y="96"/>
			<point x="328" y="44"/>
			<point x="252" y="44" type="curve" smooth="yes"/>
			<point x="204" y="44"/>
			<point x="172" y="60"/>
			<point x="148" y="84" type="curve"/>
			<point x="148" y="4" type="line"/>
			<point x="164" y="-4"/>
			<point x="192" y="-12"/>
		</contour>
	</outline>
	<anchor name="aboveLC" x="269" y="792"/>
	<anchor name="belowLC" x="339" y="-4"/>
</glyph>
<glyph name="aogonek" format="2">
	<unicode hex="0105"/>
	<advance width="576"/>
	<outline>
		<contour>
			<point x="214" y="-12" type="curve" smooth="yes"/>
			<point x="277" y="-12"/>
			<point x="310" y="28"/>
			<point x="362" y="112" type="curve"/>
			<point x="414" y="112" type="line"/>
			<point x="417" y="208" type="line"/>
			<point x="320" y="84"/>
			<point x="287" y="60"/>
			<point x="248" y="60" type="curve" smooth="yes"/>
			<point x="207" y="60"/>
			<point x="188" y="92"/>
			<point x="191" y="156" type="curve" smooth="yes"/>
			<point x="193" y="224"/>
			<point x="209" y="298"/>
			<point x="244" y="354" type="curve" smooth="yes"/>
			<point x="277" y="410"/>
			<point x="321" y="452"/>
			<point x="386" y="452" type="curve" smooth="yes"/>
			<point x="441" y="452"/>
			<point x="480" y="420"/>
			<point x="511" y="372" type="curve"/>
			<point x="514" y="468" type="line"/>
			<point x="490" y="492"/>
			<point x="459" y="508"/>
			<point x="404" y="508" type="curve" smooth="yes"/>
			<point x="253" y="508"/>
			<point x="94" y="324"/>
			<point x="95" y="140" type="curve" smooth="yes"/>
			<point x="94" y="28"/>
			<point x="149" y="-12"/>
		</contour>
		<contour>
			<point x="400" y="152" type="line"/>
			<point x="396" y="136"/>
			<point x="388" y="104"/>
			<point x="388" y="80" type="curve" smooth="yes"/>
			<point x="388" y="28"/>
			<point x="424" y="4"/>
			<point x="472" y="4" type="curve" smooth="yes"/>
			<point x="480" y="4" type="line"/>
			<point x="480" y="-16" type="line"/>
			<point x="456" y="-28"/>
			<point x="388" y="-68"/>
			<point x="388" y="-136" type="curve" smooth="yes"/>
			<point x="388" y="-188"/>
			<point x="424" y="-224"/>
			<point x="492" y="-224" type="curve" smooth="yes"/>
			<point x="544" y="-224"/>
			<point x="576" y="-204"/>
			<point x="600" y="-188" type="curve"/>
			<point x="580" y="-148" type="line"/>
			<point x="560" y="-160"/>
			<point x="541" y="-172"/>
			<point x="512" y="-172" type="curve" smooth="yes"/>
			<point x="480" y="-172"/>
			<point x="456" y="-152"/>
			<point x="456" y="-112" type="curve" smooth="yes"/>
			<point x="456" y="-68"/>
			<point x="484" y="-32"/>
			<point x="532" y="4" type="curve" smooth="yes"/>
			<point x="564" y="28"/>
			<point x="592" y="60"/>
			<point x="620" y="120" type="curve"/>
			<point x="580" y="144" type="line"/>
			<point x="540" y="72"/>
			<point x="524" y="56"/>
			<point x="498" y="56" type="curve" smooth="yes"/>
			<point x="478" y="56"/>
			<point x="468" y="68"/>
			<point x="468" y="90" type="curve" smooth="yes"/>
			<point x="468" y="108"/>
			<point x="472" y="128"/>
			<point x="480" y="168" type="curve"/>
			<point x="567" y="540" type="line"/>
			<point x="519" y="540" type="line"/>
			<point x="474" y="472" type="line"/>
			<point x="458" y="472" type="line"/>
			<point x="383" y="152" type="line"/>
		</contour>
	</outline>
	<anchor name="aboveLC" x="360" y="542"/>
	<anchor name="belowLC" x="217" y="-22"/>
</glyph>
<glyph name="dcroat" format="2">
	<unicode hex="0111"/>
	<advance width="580"/>
	<outline>
		<contour>
			<point x="428" y="-12" type="curve" smooth="yes"/>
			<point x="488" y="-12"/>
			<point x="536" y="32"/>
			<point x="576" y="120" type="curve"/>
			<point x="536" y="144" type="line"/>
			<point x="496" y="72"/>
			<point x="480" y="56"/>
			<point x="454" y="56" type="curve" smooth="yes"/>
			<point x="434" y="56"/>
			<point x="424" y="68"/>
			<point x="424" y="88" type="curve" smooth="yes"/>
			<point x="424" y="104"/>
			<point x="428" y="124"/>
			<point x="436" y="164" type="curve" smooth="yes"/>
			<point x="552" y="740" type="line"/>
			<point x="512" y="740" type="line"/>
			<point x="344" y="716" type="line"/>
			<point x="344" y="668" type="line"/>
			<point x="480" y="652" type="line"/>
			<point x="452" y="692" type="line"/>
			<point x="412" y="436" type="line"/>
			<point x="400" y="436" type="line"/>
			<point x="336" y="144" type="line"/>
			<point x="352" y="144" type="line"/>
			<point x="348" y="124"/>
			<point x="344" y="104"/>
			<point x="344" y="76" type="curve" smooth="yes"/>
			<point x="344" y="20"/>
			<point x="372" y="-12"/>
		</contour>
		<contour>
			<point x="168" y="-12" type="curve" smooth="yes"/>
			<point x="236" y="-12"/>
			<point x="272" y="36"/>
			<point x="320" y="116" type="curve"/>
			<point x="364" y="116" type="line"/>
			<point x="364" y="208" type="line"/>
			<point x="280" y="92"/>
			<point x="248" y="60"/>
			<point x="208" y="60" type="curve" smooth="yes"/>
			<point x="168" y="60"/>
			<point x="144" y="88"/>
			<point x="144" y="148" type="curve" smooth="yes"/>
			<point x="144" y="224"/>
			<point x="168" y="292"/>
			<point x="192" y="340" type="curve" smooth="yes"/>
			<point x="216" y="388"/>
			<point x="260" y="440"/>
			<point x="328" y="440" type="curve" smooth="yes"/>
			<point x="376" y="440"/>
			<point x="408" y="424"/>
			<point x="432" y="400" type="curve"/>
			<point x="436" y="472" type="line"/>
			<point x="420" y="480"/>
			<point x="388" y="488"/>
			<point x="348" y="488" type="curve" smooth="yes"/>
			<point x="192" y="488"/>
			<point x="48" y="312"/>
			<point x="48" y="132" type="curve"/>
			<point x="48" y="28"/>
			<point x="104" y="-12"/>
		</contour>
		<contour>
			<point x="266" y="548" type="line"/>
			<point x="612" y="548" type="line"/>
			<point x="620" y="592" type="line"/>
			<point x="274" y="592" type="line"/>
		</contour>
	</outline>
</glyph>
<glyph name="eogonek" format="2">
	<unicode hex="0119"/>
	<advance width="477"/>
	<outline>
		<contour>
			<point x="282" y="-225" type="curve" smooth="yes"/>
			<point x="310" y="-225"/>
			<point x="330" y="-216"/>
			<point x="349" y="-208" type="curve"/>
			<point x="334" y="-166" type="line"/>
			<point x="325" y="-170"/>
			<point x="311" y="-173"/>
			<point x="298" y="-173" type="curve" smooth="yes"/>
			<point x="262" y="-173"/>
			<point x="242" y="-153"/>
			<point x="242" y="-113" type="curve" smooth="yes"/>
			<point x="242" y="-69"/>
			<point x="275" y="-25"/>
			<point x="326" y="8" type="curve" smooth="yes"/>
			<point x="376" y="41"/>
			<point x="406" y="70"/>
			<point x="432" y="116" type="curve"/>
			<point x="397" y="144" type="line"/>
			<point x="360" y="100"/>
			<point x="327" y="60"/>
			<point x="259" y="60" type="curve" smooth="yes"/>
			<point x="195" y="60"/>
			<point x="143" y="104"/>
			<point x="143" y="200" type="curve" smooth="yes"/>
			<point x="143" y="336"/>
			<point x="250" y="468"/>
			<point x="330" y="468" type="curve" smooth="yes"/>
			<point x="366" y="468"/>
			<point x="381" y="448"/>
			<point x="381" y="416" type="curve" smooth="yes"/>
			<point x="381" y="352"/>
			<point x="305" y="272"/>
			<point x="112" y="228" type="curve"/>
			<point x="111" y="188" type="line"/>
			<point x="384" y="256"/>
			<point x="465" y="336"/>
			<point x="465" y="420" type="curve" smooth="yes"/>
			<point x="465" y="480"/>
			<point x="423" y="520"/>
			<point x="347" y="520" type="curve" smooth="yes"/>
			<point x="203" y="520"/>
			<point x="55" y="368"/>
			<point x="55" y="184" type="curve" smooth="yes"/>
			<point x="55" y="56"/>
			<point x="130" y="-10"/>
			<point x="234" y="-10" type="curve" smooth="yes"/>
			<point x="250" y="-10"/>
			<point x="260" y="-9"/>
			<point x="266" y="-8" type="curve"/>
			<point x="266" y="-16" type="line"/>
			<point x="218" y="-40"/>
			<point x="174" y="-77"/>
			<point x="174" y="-137" type="curve" smooth="yes"/>
			<point x="174" y="-189"/>
			<point x="214" y="-225"/>
		</contour>
	</outline>
	<anchor name="aboveLC" x="343" y="528"/>
</glyph>
<glyph name="Hbar" format="2">
	<unicode hex="0126"/>
	<advance width="764"/>
	<outline>
		<contour>
			<point x="16" y="0" type="line"/>
			<point x="294" y="0" type="line"/>
			<point x="304" y="60" type="line"/>
			<point x="176" y="60" type="line"/>
			<point x="148" y="60" type="line"/>
			<point x="26" y="60" type="line"/>
		</contour>
		<contour>
			<point x="104" y="0" type="line"/>
			<point x="200" y="0" type="line"/>
			<point x="219" y="104"/>
			<point x="237" y="208"/>
			<point x="256" y="312" type="curve" smooth="yes"/>
			<point x="320" y="672" type="line"/>
			<point x="224" y="672" type="line"/>
			<point x="205" y="568"/>
			<point x="187" y="464"/>
			<point x="168" y="360" type="curve" smooth="yes"/>
		</contour>
		<contour>
			<point x="120" y="612" type="line"/>
			<point x="248" y="612" type="line"/>
			<point x="276" y="612" type="line"/>
			<point x="398" y="612" type="line"/>
			<point x="408" y="672" type="line"/>
			<point x="130" y="672" type="line"/>
		</contour>
		<contour>
			<point x="424" y="0" type="line"/>
			<point x="702" y="0" type="line"/>
			<point x="712" y="60" type="line"/>
			<point x="584" y="60" type="line"/>
			<point x="556" y="60" type="line"/>
			<point x="434" y="60" type="line"/>
		</contour>
		<contour>
			<point x="512" y="0" type="line"/>
			<point x="608" y="0" type="line"/>
			<point x="627" y="104"/>
			<point x="645" y="208"/>
			<point x="664" y="312" type="curve" smooth="yes"/>
			<point x="728" y="672" type="line"/>
			<point x="632" y="672" type="line"/>
			<point x="613" y="568"/>
			<point x="595" y="464"/>
			<point x="576" y="360" type="curve" smooth="yes"/>
		</contour>
		<contour>
			<point x="528" y="612" type="line"/>
			<point x="656" y="612" type="line"/>
			<point x="684" y="612" type="line"/>
			<point x="806" y="612" type="line"/>
			<point x="816" y="672" type="line"/>
			<point x="538" y="672" type="line"/>
		</contour>
		<contour>
			<point x="204" y="284" type="line"/>
			<point x="620" y="284" type="line"/>
			<point x="620" y="340" type="line"/>
			<point x="204" y="340" type="line"/>
		</contour>
		<contour>
			<point x="92" y="456" type="line"/>
			<point x="782" y="456" type="line"/>
			<point x="790" y="504" type="line"/>
			<point x="100" y="504" type="line"/>
		</contour>
	</outline>
</glyph>
<glyph name="hbar" format="2">
	<unicode hex="0127"/>
	<advance width="616"/>
	<outline>
		<contour>
			<point x="456" y="-12" type="curve" smooth="yes"/>
			<point x="524" y="-12"/>
			<point x="572" y="40"/>
			<point x="612" y="112" type="curve"/>
			<point x="572" y="136" type="line"/>
			<point x="532" y="72"/>
			<point x="516" y="56"/>
			<point x="492" y="56" type="curve" smooth="yes"/>
			<point x="472" y="56"/>
			<point x="464" y="68"/>
			<point x="464" y="84" type="curve" smooth="yes"/>
			<point x="464" y="104"/>
			<point x="472" y="132"/>
			<point x="480" y="164" type="curve" smooth="yes"/>
			<point x="512" y="300" type="line" smooth="yes"/>
			<point x="520" y="332"/>
			<point x="528" y="372"/>
			<point x="528" y="396" type="curve" smooth="yes"/>
			<point x="528" y="452"/>
			<point x="492" y="488"/>
			<point x="424" y="488" type="curve" smooth="yes"/>
			<point x="344" y="488"/>
			<point x="296" y="428"/>
			<point x="240" y="340" type="curve"/>
			<point x="200" y="340" type="line"/>
			<point x="200" y="276" type="line"/>
			<point x="288" y="372"/>
			<point x="328" y="412"/>
			<point x="380" y="412" type="curve" smooth="yes"/>
			<point x="412" y="412"/>
			<point x="428" y="396"/>
			<point x="428" y="368" type="curve" smooth="yes"/>
			<point x="428" y="340"/>
			<point x="420" y="308"/>
			<point x="412" y="276" type="curve" smooth="yes"/>
			<point x="384" y="156" type="line" smooth="yes"/>
			<point x="376" y="124"/>
			<point x="368" y="92"/>
			<point x="368" y="64" type="curve" smooth="yes"/>
			<point x="368" y="20"/>
			<point x="400" y="-12"/>
		</contour>
		<contour>
			<point x="88" y="-8" type="line"/>
			<point x="152" y="0" type="line"/>
			<point x="165" y="67"/>
			<point x="178" y="135"/>
			<point x="191" y="202" type="curve" smooth="yes"/>
			<point x="212" y="308" type="line"/>
			<point x="204" y="308" type="line"/>
			<point x="298" y="730" type="line"/>
			<point x="258" y="740" type="line"/>
			<point x="95" y="706" type="line"/>
			<point x="85" y="658" type="line"/>
			<point x="226" y="642" type="line"/>
			<point x="198" y="682" type="line"/>
			<point x="183" y="611"/>
			<point x="171" y="551"/>
			<point x="156" y="480" type="curve" smooth="yes"/>
			<point x="56" y="0" type="line"/>
		</contour>
		<contour>
			<point x="69" y="548" type="line"/>
			<point x="415" y="548" type="line"/>
			<point x="423" y="582" type="line"/>
			<point x="77" y="582" type="line"/>
		</contour>
	</outline>
</glyph>
<glyph name="iogonek" format="2">
	<unicode hex="012F"/>
	<advance width="320"/>
	<outline>
		<contour>
			<point x="192" y="-225" type="curve" smooth="yes"/>
			<point x="244" y="-225"/>
			<point x="272" y="-205"/>
			<point x="296" y="-189" type="curve"/>
			<point x="276" y="-149" type="line"/>
			<point x="256" y="-161"/>
			<point x="236" y="-173"/>
			<point x="208" y="-173" type="curve" smooth="yes"/>
			<point x="176" y="-173"/>
			<point x="152" y="-157"/>
			<point x="152" y="-121" type="curve" smooth="yes"/>
			<point x="152" y="-77"/>
			<point x="186" y="-36"/>
			<point x="236" y="8" type="curve" smooth="yes"/>
			<point x="268" y="36"/>
			<point x="292" y="72"/>
			<point x="316" y="120" type="curve"/>
			<point x="276" y="144" type="line"/>
			<point x="236" y="72"/>
			<point x="220" y="56"/>
			<point x="194" y="56" type="curve" smooth="yes"/>
			<point x="174" y="56"/>
			<point x="164" y="68"/>
			<point x="164" y="90" type="curve" smooth="yes"/>
			<point x="164" y="108"/>
			<point x="171" y="140"/>
			<point x="180" y="184" type="curve" smooth="yes"/>
			<point x="249" y="508" type="line"/>
			<point x="209" y="508" type="line"/>
			<point x="46" y="464" type="line"/>
			<point x="36" y="416" type="line"/>
			<point x="165" y="416" type="line"/>
			<point x="149" y="464" type="line"/>
			<point x="84" y="180" type="line" smooth="yes"/>
			<point x="75" y="140"/>
			<point x="68" y="108"/>
			<point x="68" y="78" type="curve" smooth="yes"/>
			<point x="68" y="24"/>
			<point x="100" y="-4"/>
			<point x="148" y="-4" type="curve" smooth="yes"/>
			<point x="162" y="-4"/>
			<point x="178" y="-2"/>
			<point x="184" y="0" type="curve"/>
			<point x="184" y="-18" type="line"/>
			<point x="136" y="-44"/>
			<point x="84" y="-77"/>
			<point x="84" y="-137" type="curve" smooth="yes"/>
			<point x="84" y="-189"/>
			<point x="120" y="-225"/>
		</contour>
		<contour>
			<point x="238" y="616" type="curve" smooth="yes"/>
			<point x="280" y="616"/>
			<point x="308" y="652"/>
			<point x="308" y="688" type="curve" smooth="yes"/>
			<point x="308" y="720"/>
			<point x="284" y="744"/>
			<point x="250" y="744" type="curve" smooth="yes"/>
			<point x="208" y="744"/>
			<point x="180" y="708"/>
			<point x="180" y="672" type="curve" smooth="yes"/>
			<point x="180" y="640"/>
			<point x="204" y="616"/>
		</contour>
	</outline>
</glyph>
<glyph name="dotlessi" format="2">
	<unicode hex="0131"/>
	<advance width="335"/>
	<outline>
		<contour>
			<point x="83" y="78" type="curve" smooth="yes"/>
			<point x="83" y="20"/>
			<point x="117" y="-12"/>
			<point x="173" y="-12" type="curve" smooth="yes"/>
			<point x="243" y="-12"/>
			<point x="291" y="40"/>
			<point x="331" y="120" type="curve"/>
			<point x="291" y="144" type="line"/>
			<point x="251" y="72"/>
			<point x="235" y="56"/>
			<point x="209" y="56" type="curve" smooth="yes"/>
			<point x="189" y="56"/>
			<point x="179" y="68"/>
			<point x="179" y="90" type="curve" smooth="yes"/>
			<point x="179" y="108"/>
			<point x="186" y="140"/>
			<point x="195" y="184" type="curve" smooth="yes"/>
			<point x="264" y="508" type="line"/>
			<point x="234" y="518" type="line"/>
			<point x="61" y="464" type="line"/>
			<point x="51" y="416" type="line"/>
			<point x="180" y="416" type="line"/>
			<point x="164" y="464" type="line"/>
			<point x="99" y="180" type="line" smooth="yes"/>
			<point x="90" y="140"/>
			<point x="83" y="108"/>
		</contour>
	</outline>
	<anchor name="aboveLC" x="234" y="528"/>
	<anchor name="belowLC" x="157" y="-20"/>
	<anchor name="ogonek" x="200" y="0"/>
</glyph>
<glyph name="kgreenlandic" format="2">
	<unicode hex="0138"/>
	<advance width="532"/>
	<outline>
		<contour>
			<point x="88" y="-8" type="line"/>
			<point x="152" y="0" type="line"/>
			<point x="168" y="79"/>
			<point x="184" y="157"/>
			<point x="200" y="236" type="curve" smooth="yes"/>
			<point x="236" y="400" type="line"/>
			<point x="260" y="508" type="line"/>
			<point x="220" y="508" type="line"/>
			<point x="48" y="464" type="line"/>
			<point x="48" y="416" type="line"/>
			<point x="168" y="416" type="line"/>
			<point x="156" y="460" type="line"/>
			<point x="56" y="0" type="line"/>
		</contour>
		<contour>
			<point x="432" y="-12" type="curve" smooth="yes"/>
			<point x="460" y="-12"/>
			<point x="496" y="-4"/>
			<point x="510" y="0" type="curve"/>
			<point x="516" y="36" type="line"/>
			<point x="480" y="40" type="line" smooth="yes"/>
			<point x="448" y="44"/>
			<point x="422" y="57"/>
			<point x="392" y="120" type="curve" smooth="yes"/>
			<point x="375" y="156" type="line" smooth="yes"/>
			<point x="345" y="220"/>
			<point x="304" y="244"/>
			<point x="232" y="250" type="curve" smooth="yes"/>
			<point x="208" y="252" type="line"/>
			<point x="208" y="260" type="line"/>
			<point x="440" y="384" type="line" smooth="yes"/>
			<point x="491" y="411"/>
			<point x="520" y="428"/>
			<point x="520" y="464" type="curve" smooth="yes"/>
			<point x="520" y="488"/>
			<point x="504" y="504"/>
			<point x="484" y="512" type="curve"/>
			<point x="188" y="268" type="line"/>
			<point x="188" y="232" type="line"/>
			<point x="201" y="230" type="line" smooth="yes"/>
			<point x="250" y="222"/>
			<point x="267" y="192"/>
			<point x="291" y="132" type="curve" smooth="yes"/>
			<point x="312" y="80" type="line" smooth="yes"/>
			<point x="342" y="6"/>
			<point x="380" y="-12"/>
		</contour>
	</outline>
</glyph>
<glyph name="Lslash" format="2">
	<unicode hex="0141"/>
	<advance width="600"/>
	<outline>
		<contour>
			<point x="448" y="476" type="line"/>
			<point x="212" y="352" type="line"/>
			<point x="212" y="304" type="line"/>
			<point x="436" y="416" type="line"/>
		</contour>
		<contour>
			<point x="212" y="360" type="line"/>
			<point x="60" y="284" type="line"/>
			<point x="48" y="224" type="line"/>
			<point x="212" y="312" type="line"/>
		</contour>
		<component base="L"/>
	</outline>
</glyph>
<glyph name="lslash" format="2">
	<unicode hex="0142"/>
	<advance width="316"/>
	<outline>
		<contour>
			<point x="156" y="406" type="line"/>
			<point x="20" y="346" type="line"/>
			<point x="8" y="290" type="line"/>
			<point x="156" y="370" type="line"/>
		</contour>
		<contour>
			<point x="332" y="482" type="line"/>
			<point x="184" y="402" type="line"/>
			<point x="184" y="366" type="line"/>
			<point x="320" y="426" type="line"/>
		</contour>
		<component base="l"/>
	</outline>
</glyph>
<glyph name="eng" format="2">
	<unicode hex="014B"/>
	<advance width="661"/>
	<outline>
		<contour>
			<point x="100" y="-8" type="line"/>
			<point x="164" y="0" type="line"/>
			<point x="180" y="79"/>
			<point x="196" y="157"/>
			<point x="212" y="236" type="curve" smooth="yes"/>
			<point x="240" y="364" type="line"/>
			<point x="232" y="364" type="line"/>
			<point x="248" y="508" type="line"/>
			<point x="218" y="518" type="line"/>
			<point x="65" y="464" type="line"/>
			<point x="55" y="416" type="line"/>
			<point x="180" y="416" type="line"/>
			<point x="168" y="460" type="line"/>
			<point x="68" y="0" type="line"/>
		</contour>
		<contour>
			<point x="244" y="-237" type="line"/>
			<point x="300" y="-221"/>
			<point x="342" y="-197"/>
			<point x="374" y="-165" type="curve" smooth="yes"/>
			<point x="406" y="-133"/>
			<point x="445" y="-93"/>
			<point x="470" y="35" type="curve"/>
			<point x="535" y="332" type="line"/>
			<point x="542" y="364"/>
			<point x="548" y="404"/>
			<point x="548" y="428" type="curve" smooth="yes"/>
			<point x="548" y="484"/>
			<point x="512" y="520"/>
			<point x="444" y="520" type="curve" smooth="yes"/>
			<point x="362" y="520"/>
			<point x="311" y="461"/>
			<point x="255" y="372" type="curve"/>
			<point x="228" y="372" type="line"/>
			<point x="228" y="316" type="line"/>
			<point x="308" y="404"/>
			<point x="348" y="444"/>
			<point x="400" y="444" type="curve" smooth="yes"/>
			<point x="432" y="444"/>
			<point x="448" y="428"/>
			<point x="448" y="400" type="curve" smooth="yes"/>
			<point x="448" y="372"/>
			<point x="441" y="340"/>
			<point x="435" y="308" type="curve" smooth="yes"/>
			<point x="382" y="43" type="line" smooth="yes"/>
			<point x="356" y="-85"/>
			<point x="326" y="-125"/>
			<point x="302" y="-149" type="curve" smooth="yes"/>
			<point x="278" y="-173"/>
			<point x="255" y="-189"/>
			<point x="227" y="-197" type="curve"/>
		</contour>
	</outline>
</glyph>
<glyph name="OE" format="2">
	<unicode hex="0152"/>
	<advance width="919"/>
	<outline>
		<contour>
			<point x="439" y="4" type="curve"/>
			<point x="439" y="64" type="line"/>
			<point x="415" y="56"/>
			<point x="379" y="48"/>
			<point x="343" y="48" type="curve" smooth="yes"/>
			<point x="235" y="48"/>
			<point x="173" y="112"/>
			<point x="173" y="240" type="curve" smooth="yes"/>
			<point x="173" y="444"/>
			<point x="279" y="626"/>
			<point x="439" y="626" type="curve" smooth="yes"/>
			<point x="495" y="626"/>
			<point x="543" y="610"/>
			<point x="563" y="598" type="curve"/>
			<point x="563" y="662" type="line"/>
			<point x="535" y="678"/>
			<point x="487" y="686"/>
			<point x="439" y="686" type="curve" smooth="yes"/>
			<point x="231" y="686"/>
			<point x="71" y="476"/>
			<point x="71" y="248" type="curve" smooth="yes"/>
			<point x="71" y="80"/>
			<point x="179" y="-12"/>
			<point x="335" y="-12" type="curve" smooth="yes"/>
			<point x="379" y="-12"/>
			<point x="415" y="-4"/>
		</contour>
		<contour>
			<point x="411" y="0" type="line"/>
			<point x="507" y="0" type="line"/>
			<point x="526" y="104"/>
			<point x="544" y="208"/>
			<point x="563" y="312" type="curve" smooth="yes"/>
			<point x="627" y="670" type="line"/>
			<point x="531" y="670" type="line"/>
			<point x="512" y="566"/>
			<point x="494" y="464"/>
			<point x="475" y="360" type="curve" smooth="yes"/>
		</contour>
		<contour>
			<point x="479" y="0" type="line"/>
			<point x="831" y="0" type="line"/>
			<point x="871" y="188" type="line"/>
			<point x="811" y="188" type="line"/>
			<point x="735" y="16" type="line"/>
			<point x="807" y="60" type="line"/>
			<point x="479" y="60" type="line"/>
		</contour>
		<contour>
			<point x="519" y="314" type="line"/>
			<point x="743" y="314" type="line"/>
			<point x="743" y="370" type="line"/>
			<point x="519" y="370" type="line"/>
		</contour>
		<contour>
			<point x="579" y="610" type="line"/>
			<point x="859" y="610" type="line"/>
			<point x="827" y="634" type="line"/>
			<point x="827" y="492" type="line"/>
			<point x="891" y="492" type="line"/>
			<point x="919" y="670" type="line"/>
			<point x="579" y="670" type="line"/>
		</contour>
		<contour>
			<point x="691" y="224" type="line"/>
			<point x="747" y="224" type="line"/>
			<point x="789" y="460" type="line"/>
			<point x="733" y="460" type="line"/>
			<point x="695" y="354" type="line"/>
			<point x="691" y="330" type="line"/>
		</contour>
	</outline>
	<anchor name="aboveUC" x="577" y="690"/>
</glyph>
<glyph name="oe" format="2">
	<unicode hex="0153"/>
	<advance width="803"/>
	<outline>
		<contour>
			<point x="214" y="-13" type="curve" smooth="yes"/>
			<point x="302" y="-13"/>
			<point x="381" y="51"/>
			<point x="426" y="143" type="curve"/>
			<point x="464" y="342" type="line"/>
			<point x="448" y="436"/>
			<point x="388" y="487"/>
			<point x="308" y="487" type="curve" smooth="yes"/>
			<point x="167" y="487"/>
			<point x="48" y="343"/>
			<point x="48" y="163" type="curve" smooth="yes"/>
			<point x="48" y="49"/>
			<point x="122" y="-13"/>
		</contour>
		<contour>
			<point x="225" y="27" type="curve" smooth="yes"/>
			<point x="169" y="27"/>
			<point x="128" y="70"/>
			<point x="128" y="176" type="curve" smooth="yes"/>
			<point x="128" y="325"/>
			<point x="202" y="447"/>
			<point x="297" y="447" type="curve" smooth="yes"/>
			<point x="352" y="447"/>
			<point x="390" y="405"/>
			<point x="390" y="296" type="curve" smooth="yes"/>
			<point x="390" y="162"/>
			<point x="324" y="27"/>
		</contour>
		<component base="e" xOffset="331"/>
	</outline>
	<anchor name="aboveLC" x="463" y="506"/>
</glyph>
<glyph name="Uogonek" format="2">
	<unicode hex="0172"/>
	<advance width="756"/>
	<outline>
		<contour>
			<point x="136" y="180" type="curve" smooth="yes"/>
			<point x="136" y="68"/>
			<point x="204" y="-6"/>
			<point x="340" y="-6" type="curve" smooth="yes"/>
			<point x="380" y="-6"/>
			<point x="402" y="0"/>
			<point x="416" y="4" type="curve"/>
			<point x="416" y="-18" type="line"/>
			<point x="364" y="-44"/>
			<point x="328" y="-86"/>
			<point x="328" y="-136" type="curve" smooth="yes"/>
			<point x="328" y="-188"/>
			<point x="364" y="-224"/>
			<point x="436" y="-224" type="curve" smooth="yes"/>
			<point x="488" y="-224"/>
			<point x="516" y="-204"/>
			<point x="540" y="-188" type="curve"/>
			<point x="520" y="-148" type="line"/>
			<point x="502" y="-160"/>
			<point x="484" y="-172"/>
			<point x="452" y="-172" type="curve" smooth="yes"/>
			<point x="420" y="-172"/>
			<point x="396" y="-152"/>
			<point x="396" y="-116" type="curve" smooth="yes"/>
			<point x="396" y="-76"/>
			<point x="420" y="-28"/>
			<point x="496" y="20" type="curve" smooth="yes"/>
			<point x="572" y="68"/>
			<point x="620" y="148"/>
			<point x="644" y="284" type="curve" smooth="yes"/>
			<point x="712" y="672" type="line"/>
			<point x="648" y="672" type="line"/>
			<point x="580" y="288" type="line" smooth="yes"/>
			<point x="552" y="132"/>
			<point x="484" y="52"/>
			<point x="372" y="52" type="curve" smooth="yes"/>
			<point x="260" y="52"/>
			<point x="232" y="116"/>
			<point x="232" y="180" type="curve" smooth="yes"/>
			<point x="232" y="216"/>
			<point x="236" y="240"/>
			<point x="244" y="288" type="curve" smooth="yes"/>
			<point x="312" y="672" type="line"/>
			<point x="216" y="672" type="line"/>
			<point x="160" y="360" type="line"/>
			<point x="148" y="292" type="line" smooth="yes"/>
			<point x="140" y="248"/>
			<point x="136" y="216"/>
		</contour>
		<contour>
			<point x="112" y="612" type="line"/>
			<point x="240" y="612" type="line"/>
			<point x="268" y="612" type="line"/>
			<point x="394" y="612" type="line"/>
			<point x="404" y="672" type="line"/>
			<point x="122" y="672" type="line"/>
		</contour>
		<contour>
			<point x="540" y="612" type="line"/>
			<point x="656" y="612" type="line"/>
			<point x="684" y="612" type="line"/>
			<point x="790" y="612" type="line"/>
			<point x="800" y="672" type="line"/>
			<point x="550" y="672" type="line"/>
		</contour>
	</outline>
	<anchor name="aboveUC" x="454" y="691"/>
	<anchor name="belowLC" x="336" y="-22"/>
	<anchor name="hornLC" x="678" y="728"/>
</glyph>
<glyph name="uogonek" format="2">
	<unicode hex="0173"/>
	<advance width="624"/>
	<outline>
		<contour>
			<point x="180" y="-12" type="curve" smooth="yes"/>
			<point x="260" y="-12"/>
			<point x="308" y="48"/>
			<point x="364" y="136" type="curve"/>
			<point x="396" y="136" type="line"/>
			<point x="396" y="192" type="line"/>
			<point x="316" y="104"/>
			<point x="276" y="64"/>
			<point x="224" y="64" type="curve" smooth="yes"/>
			<point x="192" y="64"/>
			<point x="176" y="80"/>
			<point x="176" y="108" type="curve" smooth="yes"/>
			<point x="176" y="136"/>
			<point x="184" y="168"/>
			<point x="192" y="200" type="curve" smooth="yes"/>
			<point x="266" y="508" type="line"/>
			<point x="228" y="508" type="line"/>
			<point x="65" y="484" type="line"/>
			<point x="55" y="438" type="line"/>
			<point x="188" y="420" type="line"/>
			<point x="160" y="460" type="line"/>
			<point x="92" y="176" type="line" smooth="yes"/>
			<point x="84" y="144"/>
			<point x="76" y="104"/>
			<point x="76" y="80" type="curve" smooth="yes"/>
			<point x="76" y="24"/>
			<point x="112" y="-12"/>
		</contour>
		<contour>
			<point x="384" y="-137" type="curve" smooth="yes"/>
			<point x="384" y="-189"/>
			<point x="420" y="-225"/>
			<point x="488" y="-225" type="curve" smooth="yes"/>
			<point x="540" y="-225"/>
			<point x="572" y="-205"/>
			<point x="596" y="-189" type="curve"/>
			<point x="576" y="-149" type="line"/>
			<point x="556" y="-161"/>
			<point x="537" y="-173"/>
			<point x="508" y="-173" type="curve" smooth="yes"/>
			<point x="476" y="-173"/>
			<point x="452" y="-153"/>
			<point x="452" y="-113" type="curve" smooth="yes"/>
			<point x="452" y="-69"/>
			<point x="480" y="-32"/>
			<point x="528" y="4" type="curve" smooth="yes"/>
			<point x="560" y="28"/>
			<point x="588" y="60"/>
			<point x="616" y="112" type="curve"/>
			<point x="576" y="136" type="line"/>
			<point x="540" y="80"/>
			<point x="524" y="56"/>
			<point x="496" y="56" type="curve" smooth="yes"/>
			<point x="478" y="56"/>
			<point x="468" y="68"/>
			<point x="468" y="88" type="curve" smooth="yes"/>
			<point x="468" y="108"/>
			<point x="476" y="140"/>
			<point x="484" y="176" type="curve" smooth="yes"/>
			<point x="556" y="508" type="line"/>
			<point x="524" y="516" type="line"/>
			<point x="460" y="508" type="line"/>
			<point x="443" y="425"/>
			<point x="425" y="343"/>
			<point x="408" y="260" type="curve" smooth="yes"/>
			<point x="384" y="144" type="line"/>
			<point x="392" y="144" type="line"/>
			<point x="388" y="128"/>
			<point x="384" y="112"/>
			<point x="384" y="84" type="curve" smooth="yes"/>
			<point x="384" y="28"/>
			<point x="420" y="4"/>
			<point x="468" y="4" type="curve" smooth="yes"/>
			<point x="481" y="4"/>
			<point x="493" y="4"/>
			<point x="506" y="4" type="curve"/>
			<point x="476" y="34" type="line"/>
			<point x="476" y="-16" type="line"/>
			<point x="452" y="-28"/>
			<point x="384" y="-69"/>
		</contour>
	</outline>
	<anchor name="aboveLC" x="355" y="542"/>
	<anchor name="belowLC" x="273" y="-22"/>
	<anchor name="hornLC" x="513" y="505"/>
</glyph>
<glyph name="longs" format="2">
	<unicode hex="017F"/>
	<advance width="356"/>
	<outline>
		<contour>
			<point x="364" y="752" type="curve" smooth="yes"/>
			<point x="264" y="752"/>
			<point x="180" y="676"/>
			<point x="152" y="492" type="curve" smooth="yes"/>
			<point x="86" y="60" type="line" smooth="yes"/>
			<point x="70" y="-48"/>
			<point x="54" y="-108"/>
			<point x="34" y="-148" type="curve" smooth="yes"/>
			<point x="22" y="-172"/>
			<point x="6" y="-196"/>
			<point x="-2" y="-204" type="curve"/>
			<point x="-54" y="-204" type="line"/>
			<point x="-14" y="-228" type="line"/>
			<point x="-42" y="-180" type="line" smooth="yes"/>
			<point x="-58" y="-152"/>
			<point x="-78" y="-132"/>
			<point x="-114" y="-132" type="curve" smooth="yes"/>
			<point x="-146" y="-132"/>
			<point x="-162" y="-152"/>
			<point x="-166" y="-172" type="curve"/>
			<point x="-158" y="-200"/>
			<point x="-126" y="-236"/>
			<point x="-54" y="-236" type="curve" smooth="yes"/>
			<point x="18" y="-236"/>
			<point x="62" y="-196"/>
			<point x="94" y="-156" type="curve" smooth="yes"/>
			<point x="126" y="-116"/>
			<point x="154" y="-64"/>
			<point x="174" y="60" type="curve" smooth="yes"/>
			<point x="244" y="484" type="line" smooth="yes"/>
			<point x="272" y="652"/>
			<point x="304" y="684"/>
			<point x="336" y="720" type="curve"/>
			<point x="388" y="720" type="line"/>
			<point x="348" y="736" type="line"/>
			<point x="376" y="692" type="line" smooth="yes"/>
			<point x="396" y="660"/>
			<point x="416" y="636"/>
			<point x="452" y="636" type="curve" smooth="yes"/>
			<point x="480" y="636"/>
			<point x="496" y="656"/>
			<point x="500" y="680" type="curve"/>
			<point x="492" y="712"/>
			<point x="452" y="752"/>
		</contour>
	</outline>
</glyph>
<glyph name="Schwa" format="2">
	<unicode hex="018F"/>
	<advance width="660"/>
	<outline>
		<contour>
			<point x="258" y="-16" type="curve" smooth="yes"/>
			<point x="466" y="-16"/>
			<point x="615" y="192"/>
			<point x="615" y="444" type="curve" smooth="yes"/>
			<point x="615" y="583"/>
			<point x="532" y="686"/>
			<point x="374" y="686" type="curve" smooth="yes"/>
			<point x="272" y="686"/>
			<point x="197" y="633"/>
			<point x="159" y="586" type="curve"/>
			<point x="197" y="548" type="line"/>
			<point x="238" y="584"/>
			<point x="292" y="614"/>
			<point x="355" y="614" type="curve" smooth="yes"/>
			<point x="452" y="614"/>
			<point x="515" y="563"/>
			<point x="515" y="436" type="curve" smooth="yes"/>
			<point x="515" y="225"/>
			<point x="410" y="44"/>
			<point x="275" y="44" type="curve" smooth="yes"/>
			<point x="192" y="44"/>
			<point x="136" y="101"/>
			<point x="136" y="212" type="curve" smooth="yes"/>
			<point x="136" y="257"/>
			<point x="144.4432468075" y="294.2189287205"/>
			<point x="152" y="315" type="curve"/>
			<point x="548" y="315" type="line"/>
			<point x="548" y="369" type="line"/>
			<point x="74" y="369" type="line"/>
			<point x="62.4805837637" y="334.4417512911"/>
			<point x="46" y="281.1282051282"/>
			<point x="46" y="220" type="curve" smooth="yes"/>
			<point x="46" y="60"/>
			<point x="138" y="-16"/>
		</contour>
	</outline>
	<anchor name="aboveUC" x="368" y="690"/>
	<anchor name="belowLC" x="280" y="-20"/>
</glyph>
<glyph name="florin" format="2">
	<unicode hex="0192"/>
	<advance width="536"/>
	<outline>
		<contour>
			<point x="148" y="346" type="line"/>
			<point x="459" y="346" type="line"/>
			<point x="468" y="394" type="line"/>
			<point x="157" y="394" type="line"/>
		</contour>
		<contour>
			<point x="222" y="188" type="line" smooth="yes"/>
			<point x="194" y="44"/>
			<point x="172" y="-4"/>
			<point x="156" y="-28" type="curve" smooth="yes"/>
			<point x="140" y="-52"/>
			<point x="132" y="-60"/>
			<point x="124" y="-68" type="curve"/>
			<point x="60" y="-68" type="line"/>
			<point x="116" y="-84" type="line"/>
			<point x="92" y="-44" type="line" smooth="yes"/>
			<point x="76" y="-18"/>
			<point x="60" y="-4"/>
			<point x="30" y="-4" type="curve" smooth="yes"/>
			<point x="0" y="-4"/>
			<point x="-16" y="-26"/>
			<point x="-20" y="-48" type="curve"/>
			<point x="-12" y="-72"/>
			<point x="20" y="-100"/>
			<point x="88" y="-100" type="curve" smooth="yes"/>
			<point x="148" y="-100"/>
			<point x="188" y="-76"/>
			<point x="212" y="-52" type="curve" smooth="yes"/>
			<point x="236" y="-28"/>
			<point x="276" y="12"/>
			<point x="310" y="188" type="curve" smooth="yes"/>
			<point x="346" y="372" type="line" smooth="yes"/>
			<point x="374" y="516"/>
			<point x="396" y="564"/>
			<point x="412" y="588" type="curve" smooth="yes"/>
			<point x="428" y="612"/>
			<point x="436" y="620"/>
			<point x="444" y="628" type="curve"/>
			<point x="508" y="628" type="line"/>
			<point x="452" y="644" type="line"/>
			<point x="476" y="604" type="line" smooth="yes"/>
			<point x="492" y="578"/>
			<point x="508" y="564"/>
			<point x="538" y="564" type="curve" smooth="yes"/>
			<point x="568" y="564"/>
			<point x="584" y="586"/>
			<point x="588" y="608" type="curve"/>
			<point x="580" y="632"/>
			<point x="548" y="660"/>
			<point x="480" y="660" type="curve" smooth="yes"/>
			<point x="420" y="660"/>
			<point x="380" y="636"/>
			<point x="356" y="612" type="curve" smooth="yes"/>
			<point x="332" y="588"/>
			<point x="292" y="548"/>
			<point x="258" y="372" type="curve" smooth="yes"/>
		</contour>
	</outline>
</glyph>
<glyph name="Uhorn" format="2">
	<unicode hex="01AF"/>
	<advance width="756"/>
	<outline>
		<contour>
			<point x="348" y="-16" type="curve" smooth="yes"/>
			<point x="524" y="-16"/>
			<point x="612" y="100"/>
			<point x="644" y="284" type="curve" smooth="yes"/>
			<point x="712" y="672" type="line"/>
			<point x="648" y="672" type="line"/>
			<point x="580" y="288" type="line" smooth="yes"/>
			<point x="552" y="132"/>
			<point x="484" y="48"/>
			<point x="372" y="48" type="curve" smooth="yes"/>
			<point x="260" y="48"/>
			<point x="232" y="116"/>
			<point x="232" y="180" type="curve" smooth="yes"/>
			<point x="232" y="216"/>
			<point x="236" y="240"/>
			<point x="244" y="288" type="curve" smooth="yes"/>
			<point x="312" y="672" type="line"/>
			<point x="216" y="672" type="line"/>
			<point x="160" y="360" type="line"/>
			<point x="148" y="292" type="line" smooth="yes"/>
			<point x="140" y="248"/>
			<point x="136" y="216"/>
			<point x="136" y="180" type="curve" smooth="yes"/>
			<point x="136" y="68"/>
			<point x="204" y="-16"/>
		</contour>
		<contour>
			<point x="112" y="612" type="line"/>
			<point x="240" y="612" type="line"/>
			<point x="268" y="612" type="line"/>
			<point x="394" y="612" type="line"/>
			<point x="404" y="672" type="line"/>
			<point x="122" y="672" type="line"/>
		</contour>
		<contour>
			<point x="540" y="612" type="line"/>
			<point x="656" y="612" type="line"/>
			<point x="664" y="612" type="line"/>
			<point x="664" y="672" type="line"/>
			<point x="550" y="672" type="line"/>
		</contour>
		<contour>
			<point x="700" y="612" type="line"/>
			<point x="788" y="620"/>
			<point x="824" y="672"/>
			<point x="824" y="752" type="curve" smooth="yes"/>
			<point x="824" y="784"/>
			<point x="818" y="814"/>
			<point x="812" y="824" type="curve"/>
			<point x="804" y="826"/>
			<point x="796" y="828"/>
			<point x="782" y="828" type="curve" smooth="yes"/>
			<point x="748" y="828"/>
			<point x="728" y="808"/>
			<point x="728" y="780" type="curve" smooth="yes"/>
			<point x="728" y="744"/>
			<point x="752" y="736"/>
			<point x="752" y="708" type="curve" smooth="yes"/>
			<point x="752" y="688"/>
			<point x="736" y="672"/>
			<point x="700" y="672" type="curve"/>
		</contour>
	</outline>
	<anchor name="aboveUC" x="454" y="691"/>
	<anchor name="belowLC" x="336" y="-22"/>
</glyph>
<glyph name="dotlessj" format="2">
	<unicode hex="0237"/>
	<advance width="300"/>
	<outline>
		<contour>
			<point x="-50" y="-237" type="line"/>
			<point x="2" y="-222"/>
			<point x="45" y="-196"/>
			<point x="76" y="-165" type="curve" smooth="yes"/>
			<point x="108" y="-133"/>
			<point x="147" y="-93"/>
			<point x="172" y="35" type="curve" smooth="yes"/>
			<point x="263" y="508" type="line"/>
			<point x="233" y="518" type="line"/>
			<point x="61" y="464" type="line"/>
			<point x="51" y="416" type="line"/>
			<point x="175" y="416" type="line"/>
			<point x="167" y="464" type="line"/>
			<point x="88" y="43" type="line" smooth="yes"/>
			<point x="64" y="-85"/>
			<point x="28" y="-125"/>
			<point x="4" y="-149" type="curve" smooth="yes"/>
			<point x="-19" y="-172"/>
			<point x="-42" y="-190"/>
			<point x="-67" y="-197" type="curve"/>
		</contour>
	</outline>
	<anchor name="aboveLC" x="224" y="528"/>
</glyph>
<glyph name="gscript" format="2">
	<unicode hex="0261"/>
	<advance width="554"/>
	<outline>
		<contour>
			<point x="172" y="-224" type="curve" smooth="yes"/>
			<point x="244" y="-224"/>
			<point x="308" y="-196"/>
			<point x="344" y="-152" type="curve" smooth="yes"/>
			<point x="380" y="-108"/>
			<point x="412" y="-32"/>
			<point x="436" y="192" type="curve"/>
			<point x="470" y="362" type="line"/>
			<point x="506" y="540" type="line"/>
			<point x="458" y="540" type="line"/>
			<point x="416" y="472" type="line"/>
			<point x="400" y="472" type="line"/>
			<point x="336" y="152" type="line"/>
			<point x="348" y="152" type="line"/>
			<point x="324" y="-24"/>
			<point x="308" y="-76"/>
			<point x="272" y="-120" type="curve" smooth="yes"/>
			<point x="236" y="-164"/>
			<point x="204" y="-180"/>
			<point x="124" y="-180" type="curve" smooth="yes"/>
			<point x="100" y="-180"/>
			<point x="76" y="-176"/>
			<point x="60" y="-172" type="curve"/>
			<point x="108" y="-204" type="line"/>
			<point x="100" y="-124" type="line" smooth="yes"/>
			<point x="96" y="-84"/>
			<point x="76" y="-68"/>
			<point x="48" y="-68" type="curve" smooth="yes"/>
			<point x="20" y="-68"/>
			<point x="4" y="-84"/>
			<point x="-4" y="-104" type="curve"/>
			<point x="12" y="-172"/>
			<point x="68" y="-224"/>
		</contour>
		<contour>
			<point x="172" y="-12" type="curve" smooth="yes"/>
			<point x="236" y="-12"/>
			<point x="268" y="28"/>
			<point x="316" y="112" type="curve"/>
			<point x="368" y="112" type="line"/>
			<point x="368" y="208" type="line"/>
			<point x="276" y="84"/>
			<point x="244" y="60"/>
			<point x="204" y="60" type="curve" smooth="yes"/>
			<point x="164" y="60"/>
			<point x="144" y="92"/>
			<point x="144" y="156" type="curve" smooth="yes"/>
			<point x="144" y="224"/>
			<point x="160" y="296"/>
			<point x="192" y="352" type="curve" smooth="yes"/>
			<point x="224" y="408"/>
			<point x="264" y="452"/>
			<point x="328" y="452" type="curve" smooth="yes"/>
			<point x="384" y="452"/>
			<point x="424" y="420"/>
			<point x="456" y="372" type="curve"/>
			<point x="456" y="468" type="line"/>
			<point x="432" y="492"/>
			<point x="400" y="508"/>
			<point x="344" y="508" type="curve" smooth="yes"/>
			<point x="196" y="508"/>
			<point x="48" y="340"/>
			<point x="48" y="148" type="curve" smooth="yes"/>
			<point x="48" y="36"/>
			<point x="108" y="-12"/>
		</contour>
	</outline>
	<anchor name="aboveLC" x="364" y="542"/>
	<anchor name="belowLC" x="124" y="-225"/>
</glyph>
<glyph name="h.sups" format="2">
	<unicode hex="02B0"/>
	<advance width="415"/>
	<outline>
		<contour>
			<point x="156" y="415" type="line"/>
			<point x="212" y="422" type="line"/>
			<point x="231" y="517" type="line"/>
			<point x="257" y="645" type="line"/>
			<point x="250" y="645" type="line"/>
			<point x="309" y="908" type="line"/>
			<point x="275" y="908" type="line"/>
			<point x="153" y="886" type="line"/>
			<point x="153" y="846" type="line"/>
			<point x="246" y="831" type="line"/>
			<point x="222" y="866" type="line"/>
			<point x="192" y="726" type="line"/>
			<point x="128" y="422" type="line"/>
		</contour>
		<contour>
			<point x="407" y="413" type="curve" smooth="yes"/>
			<point x="459" y="413"/>
			<point x="493" y="451"/>
			<point x="517" y="503" type="curve"/>
			<point x="484" y="521" type="line"/>
			<point x="462" y="480"/>
			<point x="454" y="472"/>
			<point x="441" y="472" type="curve" smooth="yes"/>
			<point x="418" y="472"/>
			<point x="424" y="495"/>
			<point x="436" y="546" type="curve" smooth="yes"/>
			<point x="459" y="641" type="line" smooth="yes"/>
			<point x="463" y="656"/>
			<point x="469" y="685"/>
			<point x="469" y="701" type="curve" smooth="yes"/>
			<point x="469" y="742"/>
			<point x="444" y="768"/>
			<point x="395" y="768" type="curve" smooth="yes"/>
			<point x="336" y="768"/>
			<point x="307" y="719"/>
			<point x="280" y="672" type="curve"/>
			<point x="249" y="672" type="line"/>
			<point x="249" y="624" type="line"/>
			<point x="302" y="679"/>
			<point x="325" y="701"/>
			<point x="354" y="701" type="curve" smooth="yes"/>
			<point x="371" y="701"/>
			<point x="381" y="691"/>
			<point x="381" y="674" type="curve" smooth="yes"/>
			<point x="381" y="653"/>
			<point x="375" y="632"/>
			<point x="371" y="617" type="curve" smooth="yes"/>
			<point x="352" y="538" type="line" smooth="yes"/>
			<point x="346" y="515"/>
			<point x="340" y="491"/>
			<point x="340" y="470" type="curve" smooth="yes"/>
			<point x="340" y="438"/>
			<point x="363" y="413"/>
		</contour>
	</outline>
</glyph>
<glyph name="j.sups" format="2">
	<unicode hex="02B2"/>
	<advance width="230"/>
	<outline>
		<contour>
			<point x="48" y="250" type="line"/>
			<point x="94" y="261"/>
			<point x="130" y="278"/>
			<point x="156" y="303" type="curve" smooth="yes"/>
			<point x="182" y="329"/>
			<point x="206" y="362"/>
			<point x="221" y="440" type="curve" smooth="yes"/>
			<point x="281" y="746" type="line"/>
			<point x="246" y="752" type="line"/>
			<point x="118" y="713" type="line"/>
			<point x="111" y="676" type="line"/>
			<point x="202" y="676" type="line"/>
			<point x="182" y="703" type="line"/>
			<point x="132" y="429" type="line" smooth="yes"/>
			<point x="121" y="367"/>
			<point x="106" y="342"/>
			<point x="93" y="324" type="curve" smooth="yes"/>
			<point x="79" y="306"/>
			<point x="61" y="291"/>
			<point x="35" y="282" type="curve"/>
		</contour>
		<contour>
			<point x="253" y="805" type="curve" smooth="yes"/>
			<point x="287" y="805"/>
			<point x="309" y="833"/>
			<point x="309" y="861" type="curve" smooth="yes"/>
			<point x="309" y="888"/>
			<point x="290" y="906"/>
			<point x="262" y="906" type="curve" smooth="yes"/>
			<point x="228" y="906"/>
			<point x="205" y="878"/>
			<point x="205" y="850" type="curve" smooth="yes"/>
			<point x="205" y="824"/>
			<point x="225" y="805"/>
		</contour>
	</outline>
</glyph>
<glyph name="r.sups" format="2">
	<unicode hex="02B3"/>
	<advance width="341"/>
	<outline>
		<contour>
			<point x="231" y="559" type="line"/>
			<point x="275" y="649"/>
			<point x="295" y="687"/>
			<point x="310" y="710" type="curve"/>
			<point x="348" y="710" type="line"/>
			<point x="310" y="726" type="line"/>
			<point x="335" y="695"/>
			<point x="344" y="685"/>
			<point x="370" y="685" type="curve" smooth="yes"/>
			<point x="398" y="685"/>
			<point x="414" y="707"/>
			<point x="418" y="732" type="curve"/>
			<point x="413" y="754"/>
			<point x="397" y="773"/>
			<point x="360" y="773" type="curve" smooth="yes"/>
			<point x="310" y="773"/>
			<point x="285" y="729"/>
			<point x="256" y="648" type="curve"/>
			<point x="232" y="648" type="line"/>
		</contour>
		<contour>
			<point x="118" y="426" type="line"/>
			<point x="144" y="418" type="line"/>
			<point x="210" y="426" type="line"/>
			<point x="256" y="644" type="line"/>
			<point x="240" y="644" type="line"/>
			<point x="264" y="766" type="line"/>
			<point x="241" y="772" type="line"/>
			<point x="121" y="733" type="line"/>
			<point x="113" y="696" type="line"/>
			<point x="203" y="696" type="line"/>
			<point x="183" y="721" type="line"/>
		</contour>
	</outline>
</glyph>
<glyph name="w.sups" format="2">
	<unicode hex="02B7"/>
	<advance width="579"/>
	<outline>
		<contour>
			<point x="209" y="419" type="curve"/>
			<point x="298" y="419" type="line"/>
			<point x="329" y="464"/>
			<point x="372" y="556"/>
			<point x="388" y="638" type="curve"/>
			<point x="402" y="638" type="line"/>
			<point x="395" y="419" type="line"/>
			<point x="474" y="419" type="line"/>
			<point x="533" y="488"/>
			<point x="576" y="549"/>
			<point x="611" y="612" type="curve" smooth="yes"/>
			<point x="643" y="668"/>
			<point x="657" y="708"/>
			<point x="657" y="736" type="curve" smooth="yes"/>
			<point x="657" y="748"/>
			<point x="655" y="755"/>
			<point x="654" y="761" type="curve"/>
			<point x="648" y="764"/>
			<point x="637" y="768"/>
			<point x="620" y="768" type="curve" smooth="yes"/>
			<point x="584" y="768"/>
			<point x="561" y="747"/>
			<point x="561" y="708" type="curve" smooth="yes"/>
			<point x="561" y="681"/>
			<point x="568" y="661"/>
			<point x="587" y="642" type="curve"/>
			<point x="587" y="678" type="line"/>
			<point x="583" y="660"/>
			<point x="577" y="641"/>
			<point x="565" y="620" type="curve" smooth="yes"/>
			<point x="530" y="551"/>
			<point x="513" y="509"/>
			<point x="485" y="464" type="curve"/>
			<point x="465" y="464" type="line"/>
			<point x="472" y="760" type="line"/>
			<point x="383" y="760" type="line"/>
			<point x="372" y="665"/>
			<point x="345" y="557"/>
			<point x="295" y="464" type="curve"/>
			<point x="275" y="464" type="line"/>
			<point x="276" y="553"/>
			<point x="277" y="652"/>
			<point x="277" y="694" type="curve" smooth="yes"/>
			<point x="277" y="744"/>
			<point x="249" y="768"/>
			<point x="209" y="768" type="curve" smooth="yes"/>
			<point x="164" y="768"/>
			<point x="142" y="738"/>
			<point x="106" y="675" type="curve"/>
			<point x="139" y="656" type="line"/>
			<point x="160" y="690"/>
			<point x="169" y="706"/>
			<point x="181" y="706" type="curve" smooth="yes"/>
			<point x="192" y="706"/>
			<point x="198" y="695"/>
			<point x="198" y="669" type="curve" smooth="yes"/>
			<point x="200" y="613"/>
			<point x="206" y="513"/>
		</contour>
	</outline>
</glyph>
<glyph name="y.sups" format="2">
	<unicode hex="02B8"/>
	<advance width="385"/>
	<outline>
		<contour>
			<point x="40" y="328" type="curve"/>
			<point x="46" y="305"/>
			<point x="67" y="283"/>
			<point x="121" y="283" type="curve"/>
			<point x="188" y="283"/>
			<point x="230" y="313"/>
			<point x="257" y="347" type="curve" smooth="yes"/>
			<point x="284" y="381"/>
			<point x="304" y="409"/>
			<point x="326" y="440" type="curve" smooth="yes"/>
			<point x="352" y="476"/>
			<point x="365" y="501"/>
			<point x="384" y="533" type="curve" smooth="yes"/>
			<point x="406" y="573"/>
			<point x="424" y="611"/>
			<point x="449" y="667" type="curve" smooth="yes"/>
			<point x="462" y="695"/>
			<point x="469" y="715"/>
			<point x="469" y="731" type="curve" smooth="yes"/>
			<point x="470" y="754"/>
			<point x="454" y="768"/>
			<point x="429" y="768" type="curve" smooth="yes"/>
			<point x="401" y="768"/>
			<point x="385" y="750"/>
			<point x="374" y="698" type="curve" smooth="yes"/>
			<point x="356" y="613"/>
			<point x="331" y="527"/>
			<point x="292" y="433" type="curve"/>
			<point x="280" y="424"/>
			<point x="258" y="404"/>
			<point x="234" y="377" type="curve" smooth="yes"/>
			<point x="211" y="351"/>
			<point x="191" y="332"/>
			<point x="185" y="327" type="curve"/>
			<point x="116" y="327" type="line"/>
			<point x="172" y="322" type="line"/>
			<point x="138" y="356"/>
			<point x="120" y="368"/>
			<point x="93" y="368" type="curve" smooth="yes"/>
			<point x="58" y="368"/>
			<point x="43" y="348"/>
		</contour>
		<contour>
			<point x="275" y="431" type="line"/>
			<point x="275" y="488"/>
			<point x="275" y="612"/>
			<point x="272" y="678" type="curve" smooth="yes"/>
			<point x="269" y="736"/>
			<point x="248" y="768"/>
			<point x="198" y="768" type="curve" smooth="yes"/>
			<point x="155" y="768"/>
			<point x="130" y="742"/>
			<point x="102" y="679" type="curve"/>
			<point x="139" y="664" type="line"/>
			<point x="152" y="690"/>
			<point x="160" y="706"/>
			<point x="172" y="706" type="curve" smooth="yes"/>
			<point x="184" y="706"/>
			<point x="187" y="695"/>
			<point x="201" y="601" type="curve" smooth="yes"/>
			<point x="208" y="549"/>
			<point x="219" y="452"/>
			<point x="223" y="345" type="curve"/>
			<point x="305" y="431" type="line"/>
		</contour>
	</outline>
</glyph>
<glyph name="ringhalfrightmod" format="2">
	<unicode hex="02BE"/>
	<advance width="200"/>
	<outline>
		<contour>
			<point x="248" y="654" type="curve" smooth="yes"/>
			<point x="248" y="712"/>
			<point x="204" y="748"/>
			<point x="145" y="752" type="curve"/>
			<point x="136" y="708" type="line"/>
			<point x="172" y="704"/>
			<point x="192" y="688"/>
			<point x="192" y="654" type="curve" smooth="yes"/>
			<point x="192" y="608"/>
			<point x="164" y="576"/>
			<point x="116" y="572" type="curve"/>
			<point x="108" y="528" type="line"/>
			<point x="196" y="532"/>
			<point x="248" y="584"/>
		</contour>
	</outline>
</glyph>
<glyph name="ringhalfleftmod" format="2">
	<unicode hex="02BF"/>
	<advance width="200"/>
	<outline>
		<contour>
			<point x="124" y="626" type="curve" smooth="yes"/>
			<point x="124" y="568"/>
			<point x="168" y="532"/>
			<point x="227" y="528" type="curve"/>
			<point x="236" y="572" type="line"/>
			<point x="200" y="576"/>
			<point x="180" y="592"/>
			<point x="180" y="626" type="curve" smooth="yes"/>
			<point x="180" y="672"/>
			<point x="208" y="704"/>
			<point x="256" y="708" type="curve"/>
			<point x="264" y="752" type="line"/>
			<point x="176" y="748"/>
			<point x="124" y="696"/>
		</contour>
	</outline>
</glyph>
<glyph name="l.sups" format="2">
	<unicode hex="02E1"/>
	<advance width="212"/>
	<outline>
		<contour>
			<point x="202" y="413" type="curve" smooth="yes"/>
			<point x="256" y="413"/>
			<point x="290" y="443"/>
			<point x="315" y="511" type="curve"/>
			<point x="281" y="529" type="line"/>
			<point x="259" y="480"/>
			<point x="251" y="472"/>
			<point x="235" y="472" type="curve" smooth="yes"/>
			<point x="217" y="472"/>
			<point x="214" y="487"/>
			<point x="225" y="540" type="curve" smooth="yes"/>
			<point x="300" y="908" type="line"/>
			<point x="266" y="908" type="line"/>
			<point x="144" y="886" type="line"/>
			<point x="144" y="846" type="line"/>
			<point x="237" y="831" type="line"/>
			<point x="213" y="866" type="line"/>
			<point x="183" y="730" type="line"/>
			<point x="141" y="541" type="line" smooth="yes"/>
			<point x="135" y="511"/>
			<point x="133" y="502"/>
			<point x="133" y="481" type="curve" smooth="yes"/>
			<point x="133" y="438"/>
			<point x="159" y="413"/>
		</contour>
	</outline>
</glyph>
<glyph name="s.sups" format="2">
	<unicode hex="02E2"/>
	<advance width="335"/>
	<outline>
		<contour>
			<point x="234" y="397" type="curve" smooth="yes"/>
			<point x="312" y="397"/>
			<point x="372" y="438"/>
			<point x="372" y="502" type="curve" smooth="yes"/>
			<point x="372" y="550"/>
			<point x="343" y="575"/>
			<point x="302" y="605" type="curve" smooth="yes"/>
			<point x="266" y="631"/>
			<point x="248" y="646"/>
			<point x="248" y="677" type="curve" smooth="yes"/>
			<point x="248" y="704"/>
			<point x="266" y="723"/>
			<point x="290" y="728" type="curve"/>
			<point x="307" y="727"/>
			<point x="323" y="725"/>
			<point x="340" y="724" type="curve"/>
			<point x="304" y="734" type="line"/>
			<point x="313" y="700" type="line" smooth="yes"/>
			<point x="321" y="668"/>
			<point x="340" y="656"/>
			<point x="362" y="656" type="curve" smooth="yes"/>
			<point x="383" y="656"/>
			<point x="393" y="671"/>
			<point x="395" y="692" type="curve"/>
			<point x="387" y="725"/>
			<point x="355" y="755"/>
			<point x="292" y="755" type="curve" smooth="yes"/>
			<point x="215" y="755"/>
			<point x="165" y="712"/>
			<point x="165" y="651" type="curve" smooth="yes"/>
			<point x="165" y="604"/>
			<point x="194" y="578"/>
			<point x="236" y="548" type="curve" smooth="yes"/>
			<point x="272" y="522"/>
			<point x="288" y="507"/>
			<point x="288" y="477" type="curve" smooth="yes"/>
			<point x="288" y="447"/>
			<point x="268" y="431"/>
			<point x="240" y="425" type="curve"/>
			<point x="219" y="427"/>
			<point x="197" y="428"/>
			<point x="176" y="429" type="curve"/>
			<point x="217" y="416" type="line"/>
			<point x="208" y="454" type="line" smooth="yes"/>
			<point x="202" y="482"/>
			<point x="185" y="501"/>
			<point x="158" y="501" type="curve" smooth="yes"/>
			<point x="135" y="501"/>
			<point x="124" y="490"/>
			<point x="118" y="469" type="curve"/>
			<point x="131" y="419"/>
			<point x="164" y="397"/>
		</contour>
	</outline>
</glyph>
